<?xml version="1.0" encoding="UTF-8"?>
<svg xmlns="http://www.w3.org/2000/svg" xmlns:xlink="http://www.w3.org/1999/xlink" width="1080" height="1920" viewBox="0 0 1080 1920">
<defs>
<g>
<g id="glyph-0-0">
<path d="M 1.035156 -0.238281 C 1.144531 -0.238281 1.246094 -0.253906 1.339844 -0.28125 C 1.433594 -0.308594 1.515625 -0.351562 1.582031 -0.402344 C 1.652344 -0.457031 1.707031 -0.519531 1.746094 -0.597656 C 1.785156 -0.671875 1.804688 -0.753906 1.804688 -0.847656 C 1.804688 -1.039062 1.738281 -1.175781 1.601562 -1.257812 C 1.46875 -1.339844 1.285156 -1.378906 1.058594 -1.378906 L 0.792969 -1.378906 L 0.792969 -1.578125 L 1.613281 -2.617188 L 0.367188 -2.617188 L 0.367188 -2.917969 L 2.011719 -2.917969 L 2.011719 -2.617188 L 1.191406 -1.652344 L 1.257812 -1.652344 C 1.386719 -1.652344 1.503906 -1.636719 1.609375 -1.601562 C 1.714844 -1.566406 1.804688 -1.511719 1.882812 -1.445312 C 1.960938 -1.378906 2.023438 -1.296875 2.066406 -1.203125 C 2.109375 -1.109375 2.128906 -1.003906 2.128906 -0.882812 C 2.128906 -0.734375 2.101562 -0.601562 2.042969 -0.484375 C 1.984375 -0.367188 1.90625 -0.269531 1.804688 -0.191406 C 1.703125 -0.109375 1.585938 -0.0507812 1.453125 -0.0117188 C 1.316406 0.03125 1.171875 0.0507812 1.019531 0.0507812 C 0.878906 0.0507812 0.757812 0.0390625 0.652344 0.0195312 C 0.546875 0 0.453125 -0.0273438 0.367188 -0.0585938 L 0.449219 -0.351562 C 0.523438 -0.316406 0.605469 -0.289062 0.703125 -0.269531 C 0.800781 -0.25 0.910156 -0.238281 1.035156 -0.238281 Z "/>
</g>
</g>
</defs>
<g fill="rgb(16.470588%, 10.196078%, 5.490196%)" fill-opacity="1">
<use xlink:href="#glyph-0-0" x="30" y="23.6875"/>
</g>
</svg>
