<?xml version="1.0" encoding="UTF-8"?>
<svg xmlns="http://www.w3.org/2000/svg" xmlns:xlink="http://www.w3.org/1999/xlink" width="1920" height="1080" viewBox="0 0 1920 1080">
<defs>
<g>
<g id="glyph-0-0">
<path d="M 0.742188 -3.792969 L 0.742188 0 L 0.367188 0 L 0.367188 -3.792969 Z "/>
</g>
<g id="glyph-0-1">
<path d="M 1.140625 -0.429688 C 1.140625 -0.339844 1.164062 -0.277344 1.207031 -0.25 C 1.253906 -0.222656 1.34375 -0.207031 1.484375 -0.207031 C 1.917969 -0.207031 2.273438 -0.292969 2.554688 -0.464844 C 2.984375 -0.726562 3.199219 -1.179688 3.199219 -1.816406 C 3.199219 -2.386719 3.023438 -2.816406 2.667969 -3.101562 C 2.363281 -3.347656 1.964844 -3.472656 1.460938 -3.472656 C 1.335938 -3.472656 1.253906 -3.457031 1.207031 -3.429688 C 1.164062 -3.402344 1.140625 -3.34375 1.140625 -3.253906 Z M 0.0898438 -0.101562 C 0.292969 -0.121094 0.425781 -0.160156 0.484375 -0.210938 C 0.546875 -0.261719 0.578125 -0.390625 0.578125 -0.601562 L 0.578125 -3.074219 C 0.578125 -3.277344 0.546875 -3.40625 0.488281 -3.464844 C 0.429688 -3.523438 0.296875 -3.558594 0.0898438 -3.574219 L 0.0898438 -3.675781 L 1.585938 -3.675781 C 2.089844 -3.675781 2.519531 -3.59375 2.867188 -3.425781 C 3.496094 -3.128906 3.8125 -2.59375 3.8125 -1.824219 C 3.8125 -1.546875 3.753906 -1.285156 3.640625 -1.035156 C 3.527344 -0.785156 3.359375 -0.574219 3.128906 -0.402344 C 2.984375 -0.296875 2.835938 -0.214844 2.679688 -0.15625 C 2.394531 -0.0507812 2.046875 0 1.632812 0 L 0.0898438 0 Z "/>
</g>
<g id="glyph-0-2">
<path d="M 0.0625 -0.101562 C 0.265625 -0.121094 0.398438 -0.160156 0.460938 -0.210938 C 0.519531 -0.261719 0.550781 -0.390625 0.550781 -0.601562 L 0.550781 -3.074219 C 0.550781 -3.269531 0.519531 -3.398438 0.460938 -3.460938 C 0.402344 -3.519531 0.269531 -3.558594 0.0625 -3.574219 L 0.0625 -3.675781 L 3.015625 -3.675781 L 3.03125 -2.878906 L 2.890625 -2.878906 C 2.84375 -3.125 2.773438 -3.285156 2.679688 -3.355469 C 2.585938 -3.429688 2.375 -3.464844 2.050781 -3.464844 L 1.296875 -3.464844 C 1.214844 -3.464844 1.164062 -3.449219 1.144531 -3.425781 C 1.125 -3.398438 1.117188 -3.347656 1.117188 -3.277344 L 1.117188 -2.039062 L 1.972656 -2.039062 C 2.210938 -2.039062 2.359375 -2.074219 2.425781 -2.144531 C 2.492188 -2.214844 2.542969 -2.355469 2.582031 -2.570312 L 2.710938 -2.570312 L 2.710938 -1.285156 L 2.582031 -1.285156 C 2.539062 -1.5 2.488281 -1.644531 2.421875 -1.714844 C 2.355469 -1.785156 2.207031 -1.816406 1.972656 -1.816406 L 1.117188 -1.816406 L 1.117188 -0.441406 C 1.117188 -0.332031 1.152344 -0.265625 1.222656 -0.246094 C 1.292969 -0.226562 1.5 -0.21875 1.847656 -0.21875 C 2.222656 -0.21875 2.5 -0.257812 2.679688 -0.339844 C 2.859375 -0.421875 3.019531 -0.621094 3.164062 -0.9375 L 3.316406 -0.9375 L 3.066406 0 L 0.0625 0 Z "/>
</g>
<g id="glyph-0-3">
<path d="M 2.402344 -2.667969 C 2.402344 -3.007812 2.257812 -3.238281 1.964844 -3.367188 C 1.808594 -3.433594 1.609375 -3.46875 1.367188 -3.46875 C 1.253906 -3.46875 1.183594 -3.457031 1.15625 -3.4375 C 1.128906 -3.414062 1.117188 -3.363281 1.117188 -3.285156 L 1.117188 -1.835938 C 1.21875 -1.828125 1.28125 -1.820312 1.3125 -1.820312 C 1.34375 -1.820312 1.375 -1.816406 1.402344 -1.816406 C 1.65625 -1.816406 1.859375 -1.855469 2.003906 -1.925781 C 2.269531 -2.058594 2.402344 -2.304688 2.402344 -2.667969 Z M 0.0898438 -0.101562 C 0.300781 -0.121094 0.433594 -0.164062 0.484375 -0.226562 C 0.539062 -0.289062 0.5625 -0.4375 0.5625 -0.667969 L 0.5625 -3.074219 C 0.5625 -3.265625 0.535156 -3.394531 0.476562 -3.457031 C 0.417969 -3.519531 0.289062 -3.554688 0.0898438 -3.574219 L 0.0898438 -3.675781 L 1.554688 -3.675781 C 2.023438 -3.675781 2.382812 -3.585938 2.632812 -3.402344 C 2.882812 -3.21875 3.007812 -2.980469 3.007812 -2.679688 C 3.007812 -2.300781 2.871094 -2.027344 2.59375 -1.859375 C 2.316406 -1.6875 1.96875 -1.601562 1.554688 -1.601562 C 1.496094 -1.601562 1.417969 -1.605469 1.324219 -1.605469 C 1.230469 -1.609375 1.164062 -1.613281 1.117188 -1.613281 L 1.117188 -0.601562 C 1.117188 -0.390625 1.148438 -0.261719 1.214844 -0.207031 C 1.277344 -0.152344 1.421875 -0.117188 1.644531 -0.101562 L 1.644531 0 L 0.0898438 0 Z "/>
</g>
<g id="glyph-0-4">
<path d="M 0.0625 -0.101562 C 0.265625 -0.121094 0.398438 -0.160156 0.460938 -0.210938 C 0.519531 -0.261719 0.550781 -0.390625 0.550781 -0.601562 L 0.550781 -3.074219 C 0.550781 -3.269531 0.519531 -3.398438 0.460938 -3.460938 C 0.402344 -3.519531 0.269531 -3.558594 0.0625 -3.574219 L 0.0625 -3.675781 L 1.632812 -3.675781 L 1.632812 -3.574219 C 1.429688 -3.5625 1.292969 -3.527344 1.222656 -3.472656 C 1.152344 -3.417969 1.117188 -3.296875 1.117188 -3.113281 L 1.117188 -0.441406 C 1.117188 -0.378906 1.128906 -0.332031 1.148438 -0.296875 C 1.167969 -0.261719 1.214844 -0.238281 1.285156 -0.230469 C 1.328125 -0.226562 1.371094 -0.222656 1.417969 -0.21875 C 1.464844 -0.21875 1.550781 -0.21875 1.675781 -0.21875 C 2.171875 -0.21875 2.503906 -0.257812 2.675781 -0.339844 C 2.851562 -0.421875 3.019531 -0.628906 3.183594 -0.964844 L 3.324219 -0.964844 L 3.050781 0 L 0.0625 0 Z "/>
</g>
<g id="glyph-0-5">
<path d="M 0.792969 -1.835938 C 0.792969 -1.253906 0.910156 -0.820312 1.140625 -0.542969 C 1.371094 -0.261719 1.652344 -0.121094 1.984375 -0.121094 C 2.3125 -0.121094 2.59375 -0.257812 2.824219 -0.53125 C 3.058594 -0.804688 3.175781 -1.238281 3.175781 -1.835938 C 3.175781 -2.441406 3.054688 -2.878906 2.820312 -3.148438 C 2.585938 -3.417969 2.308594 -3.554688 1.984375 -3.554688 C 1.652344 -3.554688 1.371094 -3.414062 1.140625 -3.132812 C 0.910156 -2.855469 0.792969 -2.421875 0.792969 -1.835938 Z M 0.164062 -1.835938 C 0.164062 -2.429688 0.351562 -2.90625 0.722656 -3.261719 C 1.066406 -3.589844 1.488281 -3.753906 1.984375 -3.753906 C 2.484375 -3.753906 2.90625 -3.589844 3.25 -3.261719 C 3.621094 -2.90625 3.804688 -2.429688 3.804688 -1.835938 C 3.804688 -1.234375 3.613281 -0.753906 3.230469 -0.398438 C 2.886719 -0.0820312 2.472656 0.078125 1.984375 0.078125 C 1.464844 0.078125 1.03125 -0.0976562 0.6875 -0.449219 C 0.339844 -0.808594 0.164062 -1.273438 0.164062 -1.835938 Z "/>
</g>
<g id="glyph-0-6">
<path d="M 1.675781 -3.675781 L 1.675781 -3.574219 C 1.546875 -3.578125 1.449219 -3.566406 1.382812 -3.542969 C 1.316406 -3.519531 1.285156 -3.46875 1.285156 -3.390625 C 1.285156 -3.367188 1.292969 -3.339844 1.300781 -3.304688 C 1.3125 -3.269531 1.335938 -3.222656 1.375 -3.164062 L 2.199219 -1.929688 L 2.996094 -3.183594 C 3.027344 -3.234375 3.046875 -3.277344 3.058594 -3.3125 C 3.070312 -3.347656 3.074219 -3.371094 3.074219 -3.386719 C 3.074219 -3.46875 3.03125 -3.519531 2.945312 -3.546875 C 2.894531 -3.5625 2.808594 -3.570312 2.6875 -3.574219 L 2.6875 -3.675781 L 3.902344 -3.675781 L 3.902344 -3.574219 C 3.789062 -3.566406 3.6875 -3.535156 3.601562 -3.472656 C 3.464844 -3.375 3.308594 -3.199219 3.136719 -2.9375 L 2.3125 -1.683594 L 2.3125 -0.601562 C 2.3125 -0.386719 2.347656 -0.253906 2.417969 -0.199219 C 2.488281 -0.144531 2.644531 -0.113281 2.886719 -0.101562 L 2.886719 0 L 1.1875 0 L 1.1875 -0.101562 C 1.4375 -0.117188 1.59375 -0.152344 1.65625 -0.214844 C 1.714844 -0.273438 1.746094 -0.425781 1.746094 -0.667969 L 1.746094 -1.632812 L 1.019531 -2.699219 C 0.769531 -3.066406 0.59375 -3.300781 0.492188 -3.40625 C 0.390625 -3.511719 0.265625 -3.566406 0.121094 -3.574219 L 0.121094 -3.675781 Z "/>
</g>
<g id="glyph-0-7">
<path d="M 0.0625 -0.101562 C 0.292969 -0.125 0.441406 -0.175781 0.503906 -0.257812 C 0.570312 -0.335938 0.601562 -0.523438 0.601562 -0.816406 L 0.601562 -3.074219 C 0.601562 -3.273438 0.570312 -3.40625 0.507812 -3.464844 C 0.445312 -3.527344 0.300781 -3.5625 0.0742188 -3.574219 L 0.0742188 -3.675781 L 1.175781 -3.675781 L 2.460938 -0.875 L 3.6875 -3.675781 L 4.796875 -3.675781 L 4.796875 -3.574219 C 4.589844 -3.558594 4.457031 -3.519531 4.398438 -3.460938 C 4.339844 -3.398438 4.308594 -3.269531 4.308594 -3.074219 L 4.308594 -0.601562 C 4.308594 -0.398438 4.335938 -0.269531 4.398438 -0.214844 C 4.457031 -0.15625 4.589844 -0.117188 4.796875 -0.101562 L 4.796875 0 L 3.238281 0 L 3.238281 -0.101562 C 3.464844 -0.117188 3.601562 -0.160156 3.65625 -0.222656 C 3.710938 -0.285156 3.742188 -0.433594 3.742188 -0.667969 L 3.742188 -3.164062 L 2.320312 0 L 2.242188 0 L 0.847656 -3.03125 L 0.847656 -0.816406 C 0.847656 -0.511719 0.890625 -0.316406 0.980469 -0.222656 C 1.039062 -0.164062 1.167969 -0.121094 1.367188 -0.101562 L 1.367188 0 L 0.0625 0 Z "/>
</g>
<g id="glyph-0-8">
<path d="M 0.0625 -0.101562 C 0.292969 -0.125 0.441406 -0.175781 0.503906 -0.257812 C 0.570312 -0.335938 0.601562 -0.523438 0.601562 -0.816406 L 0.601562 -3.265625 L 0.527344 -3.355469 C 0.445312 -3.453125 0.375 -3.511719 0.320312 -3.535156 C 0.261719 -3.554688 0.175781 -3.570312 0.0625 -3.574219 L 0.0625 -3.675781 L 1.015625 -3.675781 L 3.15625 -1 L 3.15625 -2.859375 C 3.15625 -3.164062 3.109375 -3.363281 3.019531 -3.457031 C 2.960938 -3.515625 2.828125 -3.554688 2.625 -3.574219 L 2.625 -3.675781 L 3.929688 -3.675781 L 3.929688 -3.574219 C 3.71875 -3.550781 3.574219 -3.5 3.503906 -3.417969 C 3.433594 -3.335938 3.398438 -3.148438 3.398438 -2.859375 L 3.398438 0.0664062 L 3.304688 0.0664062 L 0.847656 -2.980469 L 0.847656 -0.816406 C 0.847656 -0.511719 0.890625 -0.316406 0.980469 -0.222656 C 1.039062 -0.164062 1.167969 -0.121094 1.367188 -0.101562 L 1.367188 0 L 0.0625 0 Z "/>
</g>
<g id="glyph-0-9">
<path d="M 0.109375 -3.675781 L 3.246094 -3.675781 L 3.277344 -2.730469 L 3.144531 -2.730469 C 3.078125 -3.027344 2.996094 -3.222656 2.894531 -3.3125 C 2.796875 -3.402344 2.585938 -3.445312 2.261719 -3.445312 L 1.953125 -3.445312 L 1.953125 -0.601562 C 1.953125 -0.386719 1.988281 -0.253906 2.054688 -0.203125 C 2.121094 -0.152344 2.265625 -0.117188 2.492188 -0.101562 L 2.492188 0 L 0.875 0 L 0.875 -0.101562 C 1.109375 -0.117188 1.253906 -0.15625 1.3125 -0.21875 C 1.371094 -0.277344 1.398438 -0.425781 1.398438 -0.667969 L 1.398438 -3.445312 L 1.089844 -3.445312 C 0.78125 -3.445312 0.574219 -3.402344 0.460938 -3.3125 C 0.351562 -3.222656 0.269531 -3.03125 0.210938 -2.730469 L 0.0742188 -2.730469 Z "/>
</g>
</g>
</defs>
<g fill="rgb(85.098039%, 46.666667%, 34.117647%)" fill-opacity="1">
<use xlink:href="#glyph-0-0" x="30" y="24.166992"/>
<use xlink:href="#glyph-0-1" x="31" y="24.166992"/>
<use xlink:href="#glyph-0-2" x="35" y="24.166992"/>
<use xlink:href="#glyph-0-3" x="38" y="24.166992"/>
<use xlink:href="#glyph-0-4" x="41" y="24.166992"/>
<use xlink:href="#glyph-0-5" x="44" y="24.166992"/>
<use xlink:href="#glyph-0-6" x="48" y="24.166992"/>
<use xlink:href="#glyph-0-7" x="52" y="24.166992"/>
<use xlink:href="#glyph-0-2" x="57" y="24.166992"/>
<use xlink:href="#glyph-0-8" x="60" y="24.166992"/>
<use xlink:href="#glyph-0-9" x="64" y="24.166992"/>
<use xlink:href="#glyph-0-0" x="67" y="24.166992"/>
</g>
</svg>
