<?xml version="1.0" encoding="UTF-8"?>
<svg xmlns="http://www.w3.org/2000/svg" xmlns:xlink="http://www.w3.org/1999/xlink" width="1920" height="1080" viewBox="0 0 1920 1080">
<defs>
<g>
<g id="glyph-0-0">
<path d="M 0.449219 0.140625 C 0.371094 0.140625 0.289062 0.117188 0.210938 0.0742188 C 0.128906 0.03125 0.0664062 -0.0234375 0.015625 -0.0898438 C -0.0351562 -0.15625 -0.0585938 -0.226562 -0.0585938 -0.300781 C -0.0585938 -0.539062 0.0195312 -0.816406 0.179688 -1.136719 C 0.339844 -1.453125 0.5625 -1.785156 0.851562 -2.136719 C 1.136719 -2.484375 1.464844 -2.824219 1.839844 -3.148438 C 2.199219 -3.460938 2.492188 -3.699219 2.71875 -3.855469 C 2.945312 -4.011719 3.113281 -4.089844 3.21875 -4.089844 C 3.328125 -4.089844 3.421875 -4.042969 3.5 -3.949219 C 3.59375 -3.828125 3.636719 -3.773438 3.625 -3.785156 C 3.613281 -3.796875 3.613281 -3.800781 3.621094 -3.800781 C 3.632812 -3.800781 3.644531 -3.804688 3.65625 -3.816406 C 3.664062 -3.824219 3.671875 -3.839844 3.679688 -3.859375 C 3.773438 -4.019531 3.828125 -4.117188 3.851562 -4.148438 C 3.871094 -4.183594 3.871094 -4.1875 3.851562 -4.160156 C 3.890625 -4.226562 3.929688 -4.261719 3.96875 -4.261719 C 4.03125 -4.261719 4.089844 -4.25 4.148438 -4.230469 C 4.210938 -4.210938 4.257812 -4.183594 4.296875 -4.148438 C 4.332031 -4.117188 4.351562 -4.082031 4.351562 -4.050781 C 4.351562 -4.015625 4.328125 -3.933594 4.28125 -3.800781 L 3.160156 -0.828125 C 3.074219 -0.601562 3.117188 -0.488281 3.289062 -0.488281 C 3.410156 -0.488281 3.554688 -0.546875 3.726562 -0.664062 C 3.894531 -0.78125 4.042969 -0.921875 4.171875 -1.089844 C 4.183594 -1.101562 4.199219 -1.113281 4.214844 -1.125 C 4.230469 -1.136719 4.246094 -1.140625 4.261719 -1.140625 C 4.289062 -1.140625 4.304688 -1.132812 4.316406 -1.113281 C 4.324219 -1.097656 4.328125 -1.070312 4.328125 -1.03125 C 4.328125 -0.984375 4.285156 -0.890625 4.191406 -0.753906 C 4.097656 -0.617188 4 -0.5 3.898438 -0.398438 C 3.710938 -0.226562 3.523438 -0.09375 3.335938 0 C 3.144531 0.09375 2.96875 0.140625 2.808594 0.140625 C 2.742188 0.140625 2.675781 0.121094 2.609375 0.078125 C 2.542969 0.0390625 2.488281 -0.0117188 2.445312 -0.0703125 C 2.402344 -0.128906 2.378906 -0.191406 2.378906 -0.25 C 2.378906 -0.324219 2.398438 -0.398438 2.441406 -0.480469 C 2.414062 -0.421875 2.410156 -0.421875 2.433594 -0.480469 C 2.457031 -0.539062 2.5 -0.632812 2.554688 -0.761719 C 2.613281 -0.886719 2.671875 -1.019531 2.738281 -1.160156 C 2.804688 -1.300781 2.863281 -1.421875 2.910156 -1.53125 C 2.945312 -1.605469 2.957031 -1.660156 2.953125 -1.695312 C 2.949219 -1.730469 2.929688 -1.726562 2.890625 -1.679688 C 2.484375 -1.226562 2.136719 -0.867188 1.84375 -0.601562 C 1.554688 -0.332031 1.300781 -0.144531 1.078125 -0.03125 C 0.859375 0.0820312 0.648438 0.140625 0.449219 0.140625 Z M 1.011719 -0.488281 C 1.15625 -0.488281 1.375 -0.613281 1.664062 -0.855469 C 1.953125 -1.097656 2.285156 -1.4375 2.648438 -1.871094 C 2.902344 -2.164062 3.101562 -2.433594 3.25 -2.679688 C 3.398438 -2.925781 3.46875 -3.109375 3.46875 -3.230469 C 3.46875 -3.285156 3.425781 -3.347656 3.339844 -3.421875 C 3.300781 -3.453125 3.257812 -3.480469 3.210938 -3.5 C 3.164062 -3.519531 3.125 -3.53125 3.089844 -3.53125 C 2.96875 -3.53125 2.804688 -3.46875 2.59375 -3.351562 C 2.382812 -3.230469 2.191406 -3.085938 2.019531 -2.921875 C 1.800781 -2.707031 1.589844 -2.464844 1.390625 -2.199219 C 1.191406 -1.933594 1.027344 -1.675781 0.90625 -1.429688 C 0.78125 -1.183594 0.71875 -0.984375 0.71875 -0.828125 C 0.71875 -0.730469 0.746094 -0.648438 0.800781 -0.585938 C 0.855469 -0.523438 0.921875 -0.488281 1.011719 -0.488281 Z "/>
</g>
<g id="glyph-0-1">
<path d="M 0.671875 0.140625 C 0.597656 0.140625 0.523438 0.109375 0.445312 0.046875 C 0.367188 -0.0195312 0.308594 -0.09375 0.269531 -0.179688 C 0.230469 -0.265625 0.21875 -0.335938 0.238281 -0.390625 L 1.289062 -2.921875 C 1.335938 -3.035156 1.367188 -3.128906 1.378906 -3.210938 C 1.394531 -3.289062 1.375 -3.328125 1.320312 -3.328125 C 1.285156 -3.328125 1.230469 -3.304688 1.15625 -3.25 C 1.078125 -3.195312 0.992188 -3.128906 0.894531 -3.050781 C 0.796875 -2.96875 0.699219 -2.886719 0.601562 -2.800781 C 0.585938 -2.785156 0.5625 -2.785156 0.523438 -2.789062 C 0.488281 -2.796875 0.46875 -2.808594 0.46875 -2.828125 C 0.46875 -2.855469 0.476562 -2.894531 0.488281 -2.945312 C 0.503906 -2.996094 0.535156 -3.058594 0.589844 -3.128906 C 0.757812 -3.355469 0.941406 -3.546875 1.144531 -3.699219 C 1.347656 -3.851562 1.542969 -3.972656 1.726562 -4.054688 C 1.910156 -4.136719 2.046875 -4.179688 2.140625 -4.179688 C 2.171875 -4.179688 2.210938 -4.160156 2.253906 -4.125 C 2.296875 -4.089844 2.332031 -4.046875 2.359375 -3.996094 C 2.386719 -3.945312 2.386719 -3.898438 2.359375 -3.851562 C 2.140625 -3.398438 1.929688 -2.9375 1.730469 -2.46875 C 1.53125 -2.003906 1.328125 -1.542969 1.128906 -1.089844 C 1.070312 -0.957031 1.035156 -0.832031 1.019531 -0.71875 C 1.007812 -0.605469 1.035156 -0.550781 1.101562 -0.550781 C 1.167969 -0.550781 1.265625 -0.605469 1.398438 -0.71875 C 1.53125 -0.832031 1.683594 -0.980469 1.855469 -1.160156 C 2.023438 -1.339844 2.203125 -1.535156 2.390625 -1.738281 C 2.644531 -2.027344 2.886719 -2.324219 3.125 -2.628906 C 3.363281 -2.9375 3.566406 -3.214844 3.738281 -3.460938 C 3.914062 -3.707031 4.027344 -3.878906 4.078125 -3.980469 C 4.113281 -4.046875 4.152344 -4.089844 4.199219 -4.109375 C 4.246094 -4.128906 4.289062 -4.140625 4.328125 -4.140625 C 4.371094 -4.140625 4.410156 -4.121094 4.449219 -4.078125 C 4.488281 -4.039062 4.523438 -3.992188 4.546875 -3.941406 C 4.570312 -3.886719 4.570312 -3.839844 4.550781 -3.800781 L 3.269531 -0.859375 C 3.214844 -0.734375 3.191406 -0.636719 3.199219 -0.570312 C 3.207031 -0.503906 3.238281 -0.46875 3.300781 -0.46875 C 3.386719 -0.46875 3.5 -0.515625 3.640625 -0.609375 C 3.78125 -0.703125 3.921875 -0.8125 4.070312 -0.933594 C 4.214844 -1.058594 4.339844 -1.171875 4.441406 -1.269531 C 4.445312 -1.277344 4.457031 -1.28125 4.46875 -1.28125 C 4.488281 -1.28125 4.511719 -1.273438 4.53125 -1.253906 C 4.550781 -1.238281 4.558594 -1.214844 4.558594 -1.191406 C 4.558594 -1.175781 4.558594 -1.164062 4.550781 -1.148438 C 4.542969 -1.136719 4.535156 -1.121094 4.523438 -1.101562 C 4.515625 -1.082031 4.5 -1.058594 4.484375 -1.03125 C 4.46875 -1.003906 4.449219 -0.976562 4.425781 -0.945312 C 4.402344 -0.914062 4.375 -0.878906 4.339844 -0.839844 C 4.214844 -0.679688 4.066406 -0.523438 3.898438 -0.375 C 3.734375 -0.226562 3.554688 -0.101562 3.363281 -0.00390625 C 3.175781 0.09375 2.972656 0.140625 2.761719 0.140625 C 2.675781 0.140625 2.59375 0.0820312 2.523438 -0.03125 C 2.453125 -0.144531 2.441406 -0.242188 2.480469 -0.328125 C 2.574219 -0.53125 2.671875 -0.742188 2.78125 -0.96875 C 2.886719 -1.195312 2.980469 -1.40625 3.066406 -1.601562 C 3.148438 -1.792969 3.207031 -1.9375 3.238281 -2.03125 C 3.273438 -2.109375 3.269531 -2.152344 3.230469 -2.160156 C 3.191406 -2.167969 3.152344 -2.148438 3.121094 -2.109375 C 2.773438 -1.730469 2.464844 -1.398438 2.199219 -1.113281 C 1.933594 -0.832031 1.703125 -0.597656 1.503906 -0.414062 C 1.308594 -0.230469 1.140625 -0.09375 1.003906 0 C 0.867188 0.09375 0.757812 0.140625 0.671875 0.140625 Z "/>
</g>
<g id="glyph-0-2">
<path d="M 0.640625 0.140625 C 0.585938 0.140625 0.527344 0.117188 0.460938 0.0742188 C 0.394531 0.03125 0.339844 -0.0195312 0.296875 -0.0742188 C 0.253906 -0.132812 0.230469 -0.183594 0.230469 -0.230469 C 0.230469 -0.34375 0.246094 -0.441406 0.273438 -0.519531 C 0.304688 -0.601562 0.335938 -0.691406 0.371094 -0.789062 L 1.320312 -3.460938 C 1.332031 -3.507812 1.328125 -3.539062 1.304688 -3.554688 C 1.28125 -3.570312 1.253906 -3.578125 1.21875 -3.578125 L 0.820312 -3.601562 C 0.734375 -3.605469 0.683594 -3.625 0.664062 -3.65625 C 0.648438 -3.683594 0.640625 -3.714844 0.640625 -3.738281 C 0.640625 -3.753906 0.65625 -3.777344 0.691406 -3.816406 C 0.722656 -3.851562 0.765625 -3.886719 0.816406 -3.925781 C 0.867188 -3.960938 0.921875 -3.980469 0.980469 -3.980469 L 1.339844 -3.980469 C 1.414062 -3.980469 1.464844 -3.992188 1.488281 -4.015625 C 1.515625 -4.039062 1.546875 -4.085938 1.578125 -4.160156 L 1.820312 -4.648438 C 1.847656 -4.703125 1.898438 -4.765625 1.96875 -4.835938 C 2.042969 -4.90625 2.117188 -4.964844 2.195312 -5.019531 C 2.273438 -5.074219 2.328125 -5.101562 2.359375 -5.101562 C 2.414062 -5.101562 2.445312 -5.0625 2.460938 -4.988281 C 2.472656 -4.917969 2.464844 -4.847656 2.441406 -4.78125 L 2.179688 -4.109375 C 2.167969 -4.0625 2.171875 -4.035156 2.195312 -4.019531 C 2.21875 -4.007812 2.257812 -4 2.308594 -4 C 2.441406 -4 2.578125 -3.988281 2.71875 -3.96875 C 2.859375 -3.949219 2.972656 -3.933594 3.058594 -3.921875 C 3.167969 -3.902344 3.230469 -3.878906 3.253906 -3.855469 C 3.277344 -3.832031 3.289062 -3.804688 3.289062 -3.769531 C 3.289062 -3.757812 3.277344 -3.734375 3.25 -3.703125 C 3.222656 -3.675781 3.171875 -3.65625 3.101562 -3.648438 C 2.953125 -3.644531 2.8125 -3.636719 2.679688 -3.625 C 2.546875 -3.613281 2.40625 -3.605469 2.261719 -3.601562 C 2.152344 -3.59375 2.078125 -3.578125 2.035156 -3.550781 C 1.992188 -3.523438 1.964844 -3.488281 1.949219 -3.449219 L 1.058594 -0.988281 C 1.03125 -0.910156 1.019531 -0.839844 1.019531 -0.78125 C 1.019531 -0.71875 1.039062 -0.671875 1.074219 -0.640625 C 1.113281 -0.605469 1.167969 -0.589844 1.238281 -0.589844 C 1.332031 -0.589844 1.433594 -0.625 1.539062 -0.691406 C 1.644531 -0.757812 1.75 -0.832031 1.851562 -0.921875 C 1.949219 -1.007812 2.035156 -1.082031 2.101562 -1.148438 C 2.175781 -1.222656 2.238281 -1.257812 2.289062 -1.25 C 2.34375 -1.242188 2.371094 -1.21875 2.371094 -1.179688 C 2.371094 -1.132812 2.351562 -1.082031 2.320312 -1.023438 C 2.285156 -0.96875 2.242188 -0.910156 2.191406 -0.851562 C 2.082031 -0.738281 1.972656 -0.628906 1.855469 -0.53125 C 1.738281 -0.429688 1.617188 -0.339844 1.496094 -0.253906 C 1.371094 -0.171875 1.253906 -0.101562 1.144531 -0.046875 C 1.035156 0.0117188 0.9375 0.0585938 0.851562 0.0898438 C 0.765625 0.125 0.691406 0.140625 0.640625 0.140625 Z "/>
</g>
<g id="glyph-0-3">
<path d="M 0.558594 0.179688 C 0.527344 0.179688 0.496094 0.167969 0.46875 0.140625 C 0.441406 0.113281 0.421875 0.078125 0.410156 0.0390625 C 0.398438 0 0.390625 -0.0390625 0.390625 -0.078125 C 0.390625 -0.179688 0.402344 -0.28125 0.425781 -0.378906 C 0.449219 -0.480469 0.480469 -0.601562 0.519531 -0.75 L 1.929688 -5.578125 C 1.964844 -5.691406 1.996094 -5.816406 2.03125 -5.953125 C 2.0625 -6.089844 2.078125 -6.191406 2.078125 -6.261719 C 2.078125 -6.328125 2.039062 -6.375 1.953125 -6.410156 C 1.871094 -6.445312 1.789062 -6.472656 1.710938 -6.5 C 1.664062 -6.511719 1.621094 -6.527344 1.585938 -6.546875 C 1.546875 -6.5625 1.53125 -6.582031 1.53125 -6.609375 C 1.53125 -6.636719 1.539062 -6.660156 1.558594 -6.683594 C 1.578125 -6.707031 1.625 -6.734375 1.699219 -6.761719 C 1.753906 -6.78125 1.828125 -6.808594 1.925781 -6.839844 C 2.023438 -6.875 2.125 -6.910156 2.234375 -6.945312 C 2.34375 -6.980469 2.445312 -7.011719 2.535156 -7.035156 C 2.625 -7.058594 2.6875 -7.070312 2.71875 -7.070312 C 2.753906 -7.070312 2.789062 -7.066406 2.828125 -7.058594 C 2.871094 -7.054688 2.890625 -7.023438 2.890625 -6.96875 C 2.890625 -6.917969 2.886719 -6.871094 2.875 -6.828125 C 2.863281 -6.789062 2.851562 -6.746094 2.839844 -6.699219 L 1.480469 -2 C 1.46875 -1.953125 1.46875 -1.929688 1.484375 -1.929688 C 1.5 -1.929688 1.519531 -1.941406 1.539062 -1.96875 C 1.832031 -2.402344 2.136719 -2.789062 2.449219 -3.125 C 2.761719 -3.460938 3.058594 -3.726562 3.339844 -3.921875 C 3.621094 -4.113281 3.859375 -4.210938 4.058594 -4.210938 C 4.28125 -4.210938 4.449219 -4.136719 4.566406 -3.988281 C 4.683594 -3.84375 4.738281 -3.671875 4.738281 -3.480469 C 4.738281 -3.140625 4.679688 -2.78125 4.554688 -2.398438 C 4.429688 -2.019531 4.269531 -1.65625 4.070312 -1.308594 C 3.871094 -0.960938 3.652344 -0.667969 3.421875 -0.421875 C 3.378906 -0.378906 3.320312 -0.328125 3.238281 -0.265625 C 3.160156 -0.203125 3.066406 -0.140625 2.960938 -0.078125 C 2.855469 -0.0195312 2.746094 0.03125 2.636719 0.0742188 C 2.527344 0.117188 2.421875 0.140625 2.328125 0.140625 C 2.28125 0.140625 2.226562 0.121094 2.164062 0.078125 C 2.101562 0.0390625 2.046875 -0.0117188 2.003906 -0.0703125 C 1.960938 -0.128906 1.941406 -0.183594 1.941406 -0.230469 C 1.941406 -0.261719 1.953125 -0.304688 1.980469 -0.351562 C 2.007812 -0.398438 2.039062 -0.4375 2.078125 -0.46875 C 2.121094 -0.503906 2.160156 -0.519531 2.199219 -0.519531 C 2.257812 -0.519531 2.3125 -0.507812 2.355469 -0.484375 C 2.398438 -0.460938 2.4375 -0.433594 2.46875 -0.398438 C 2.507812 -0.367188 2.550781 -0.335938 2.589844 -0.308594 C 2.628906 -0.28125 2.675781 -0.269531 2.730469 -0.269531 C 2.84375 -0.269531 2.964844 -0.335938 3.089844 -0.46875 C 3.214844 -0.601562 3.339844 -0.78125 3.453125 -1 C 3.570312 -1.21875 3.675781 -1.460938 3.769531 -1.726562 C 3.863281 -1.988281 3.9375 -2.253906 3.996094 -2.519531 C 4.050781 -2.785156 4.078125 -3.035156 4.078125 -3.261719 C 4.078125 -3.414062 4.046875 -3.53125 3.984375 -3.613281 C 3.921875 -3.699219 3.828125 -3.738281 3.699219 -3.738281 C 3.554688 -3.738281 3.386719 -3.667969 3.203125 -3.523438 C 3.019531 -3.382812 2.832031 -3.191406 2.636719 -2.960938 C 2.4375 -2.726562 2.246094 -2.476562 2.058594 -2.210938 C 1.871094 -1.945312 1.703125 -1.683594 1.550781 -1.429688 C 1.398438 -1.175781 1.273438 -0.960938 1.179688 -0.78125 C 1.011719 -0.460938 0.886719 -0.21875 0.804688 -0.0585938 C 0.722656 0.101562 0.640625 0.179688 0.558594 0.179688 Z "/>
</g>
<g id="glyph-0-4">
<path d="M 1.078125 0.140625 C 0.917969 0.140625 0.769531 0.0859375 0.628906 -0.0195312 C 0.488281 -0.125 0.378906 -0.265625 0.296875 -0.441406 C 0.210938 -0.613281 0.171875 -0.796875 0.171875 -0.988281 C 0.171875 -1.304688 0.230469 -1.640625 0.355469 -2.003906 C 0.476562 -2.367188 0.648438 -2.710938 0.871094 -3.035156 C 1.089844 -3.359375 1.34375 -3.625 1.636719 -3.828125 C 1.925781 -4.035156 2.238281 -4.140625 2.570312 -4.140625 C 2.902344 -4.140625 3.160156 -4.027344 3.34375 -3.800781 C 3.527344 -3.574219 3.621094 -3.292969 3.621094 -2.960938 C 3.621094 -2.660156 3.558594 -2.332031 3.441406 -1.976562 C 3.320312 -1.617188 3.148438 -1.28125 2.925781 -0.960938 C 2.703125 -0.640625 2.433594 -0.375 2.125 -0.171875 C 1.816406 0.0351562 1.464844 0.140625 1.078125 0.140625 Z M 1.238281 -0.160156 C 1.398438 -0.160156 1.5625 -0.230469 1.726562 -0.371094 C 1.890625 -0.511719 2.046875 -0.691406 2.195312 -0.921875 C 2.34375 -1.148438 2.476562 -1.398438 2.59375 -1.671875 C 2.710938 -1.945312 2.804688 -2.214844 2.875 -2.488281 C 2.945312 -2.761719 2.980469 -3.011719 2.980469 -3.238281 C 2.980469 -3.414062 2.953125 -3.558594 2.894531 -3.671875 C 2.839844 -3.785156 2.722656 -3.839844 2.550781 -3.839844 C 2.398438 -3.839844 2.238281 -3.777344 2.074219 -3.648438 C 1.910156 -3.523438 1.753906 -3.351562 1.605469 -3.140625 C 1.457031 -2.925781 1.320312 -2.6875 1.199219 -2.425781 C 1.078125 -2.160156 0.984375 -1.886719 0.914062 -1.605469 C 0.84375 -1.320312 0.808594 -1.046875 0.808594 -0.78125 C 0.808594 -0.558594 0.847656 -0.402344 0.925781 -0.304688 C 1 -0.207031 1.105469 -0.160156 1.238281 -0.160156 Z "/>
</g>
<g id="glyph-0-5">
<path d="M 0.601562 0.171875 C 0.566406 0.171875 0.53125 0.160156 0.488281 0.136719 C 0.449219 0.113281 0.417969 0.0820312 0.390625 0.046875 C 0.363281 0.0078125 0.351562 -0.03125 0.351562 -0.0703125 C 0.351562 -0.148438 0.371094 -0.25 0.414062 -0.375 C 0.457031 -0.5 0.511719 -0.652344 0.578125 -0.839844 L 1.5 -3.238281 C 1.535156 -3.324219 1.546875 -3.40625 1.546875 -3.480469 C 1.542969 -3.554688 1.507812 -3.589844 1.441406 -3.589844 C 1.347656 -3.589844 1.253906 -3.578125 1.164062 -3.554688 C 1.074219 -3.53125 1.007812 -3.507812 0.960938 -3.480469 C 0.921875 -3.453125 0.882812 -3.449219 0.84375 -3.464844 C 0.808594 -3.480469 0.789062 -3.511719 0.789062 -3.558594 C 0.789062 -3.613281 0.816406 -3.671875 0.863281 -3.738281 C 0.914062 -3.804688 0.984375 -3.871094 1.070312 -3.929688 C 1.148438 -3.988281 1.246094 -4.039062 1.355469 -4.078125 C 1.464844 -4.121094 1.578125 -4.140625 1.699219 -4.140625 C 1.886719 -4.140625 2.003906 -4.09375 2.054688 -4 C 2.105469 -3.90625 2.113281 -3.78125 2.074219 -3.625 C 2.039062 -3.46875 1.980469 -3.289062 1.898438 -3.089844 L 1.449219 -1.960938 C 1.421875 -1.914062 1.433594 -1.882812 1.476562 -1.871094 C 1.519531 -1.855469 1.550781 -1.867188 1.570312 -1.898438 C 1.835938 -2.359375 2.105469 -2.761719 2.375 -3.105469 C 2.644531 -3.449219 2.898438 -3.714844 3.128906 -3.90625 C 3.363281 -4.09375 3.558594 -4.191406 3.710938 -4.191406 C 3.882812 -4.191406 4.003906 -4.140625 4.074219 -4.039062 C 4.144531 -3.941406 4.179688 -3.824219 4.179688 -3.691406 C 4.179688 -3.570312 4.160156 -3.445312 4.113281 -3.320312 C 4.070312 -3.195312 4.011719 -3.089844 3.933594 -3.003906 C 3.859375 -2.921875 3.773438 -2.878906 3.679688 -2.878906 C 3.625 -2.878906 3.585938 -2.910156 3.558594 -2.976562 C 3.53125 -3.039062 3.519531 -3.125 3.519531 -3.230469 C 3.519531 -3.332031 3.507812 -3.410156 3.480469 -3.464844 C 3.453125 -3.523438 3.402344 -3.550781 3.328125 -3.550781 C 3.261719 -3.550781 3.175781 -3.507812 3.066406 -3.421875 C 2.957031 -3.332031 2.816406 -3.183594 2.648438 -2.96875 C 2.574219 -2.871094 2.480469 -2.734375 2.359375 -2.558594 C 2.238281 -2.386719 2.113281 -2.195312 1.976562 -1.984375 C 1.839844 -1.773438 1.703125 -1.5625 1.570312 -1.34375 C 1.4375 -1.128906 1.320312 -0.929688 1.21875 -0.75 C 1.039062 -0.429688 0.910156 -0.195312 0.835938 -0.0507812 C 0.757812 0.0976562 0.679688 0.171875 0.601562 0.171875 Z "/>
</g>
</g>
</defs>
<g fill="rgb(16.470588%, 10.196078%, 5.490196%)" fill-opacity="1">
<use xlink:href="#glyph-0-0" x="30" y="30.070312"/>
<use xlink:href="#glyph-0-1" x="35" y="30.070312"/>
<use xlink:href="#glyph-0-2" x="40" y="30.070312"/>
<use xlink:href="#glyph-0-3" x="43" y="30.070312"/>
<use xlink:href="#glyph-0-4" x="48" y="30.070312"/>
<use xlink:href="#glyph-0-5" x="52" y="30.070312"/>
</g>
</svg>
