<?xml version="1.0" encoding="UTF-8"?>
<svg xmlns="http://www.w3.org/2000/svg" xmlns:xlink="http://www.w3.org/1999/xlink" width="1920" height="1080" viewBox="0 0 1920 1080">
<defs>
<g>
<g id="glyph-0-0">
<path d="M 0.183594 0 L 0.183594 -0.582031 L 1.683594 -2 C 1.800781 -2.109375 1.890625 -2.203125 1.945312 -2.289062 C 2 -2.375 2.039062 -2.453125 2.058594 -2.523438 C 2.078125 -2.59375 2.089844 -2.65625 2.089844 -2.714844 C 2.089844 -2.871094 2.035156 -2.992188 1.929688 -3.074219 C 1.824219 -3.15625 1.671875 -3.199219 1.464844 -3.199219 C 1.304688 -3.199219 1.152344 -3.167969 1.015625 -3.105469 C 0.875 -3.042969 0.757812 -2.945312 0.660156 -2.8125 L 0.00390625 -3.234375 C 0.152344 -3.457031 0.359375 -3.632812 0.628906 -3.761719 C 0.894531 -3.890625 1.203125 -3.957031 1.550781 -3.957031 C 1.839844 -3.957031 2.089844 -3.910156 2.308594 -3.8125 C 2.523438 -3.71875 2.695312 -3.585938 2.8125 -3.417969 C 2.933594 -3.246094 2.996094 -3.042969 2.996094 -2.804688 C 2.996094 -2.679688 2.980469 -2.554688 2.949219 -2.429688 C 2.917969 -2.304688 2.851562 -2.175781 2.757812 -2.039062 C 2.664062 -1.902344 2.527344 -1.75 2.34375 -1.578125 L 1.101562 -0.40625 L 0.929688 -0.734375 L 3.121094 -0.734375 L 3.121094 0 Z "/>
</g>
</g>
</defs>
<g fill="rgb(16.470588%, 10.196078%, 5.490196%)" fill-opacity="1">
<use xlink:href="#glyph-0-0" x="30" y="25.37793"/>
</g>
</svg>
