<?xml version="1.0" encoding="UTF-8"?>
<svg xmlns="http://www.w3.org/2000/svg" xmlns:xlink="http://www.w3.org/1999/xlink" width="1080" height="1920" viewBox="0 0 1080 1920">
<defs>
<g>
<g id="glyph-0-0">
<path d="M 0.0195312 0.0273438 C -0.0625 0.0273438 -0.105469 0.0078125 -0.105469 -0.03125 C -0.105469 -0.0585938 -0.0898438 -0.078125 -0.0546875 -0.09375 C -0.0234375 -0.105469 0.0234375 -0.117188 0.0859375 -0.125 C 0.214844 -0.152344 0.320312 -0.191406 0.40625 -0.246094 C 0.492188 -0.304688 0.550781 -0.394531 0.589844 -0.523438 L 1.3125 -2.898438 C 1.351562 -3.027344 1.355469 -3.117188 1.328125 -3.167969 C 1.296875 -3.21875 1.222656 -3.257812 1.101562 -3.277344 C 1.050781 -3.289062 1.011719 -3.300781 0.992188 -3.3125 C 0.972656 -3.324219 0.960938 -3.34375 0.960938 -3.367188 C 0.960938 -3.390625 0.980469 -3.410156 1.015625 -3.417969 C 1.054688 -3.425781 1.09375 -3.429688 1.132812 -3.429688 C 1.195312 -3.429688 1.246094 -3.429688 1.285156 -3.425781 C 1.324219 -3.421875 1.363281 -3.417969 1.402344 -3.410156 C 1.4375 -3.40625 1.480469 -3.402344 1.53125 -3.402344 C 1.582031 -3.402344 1.644531 -3.410156 1.710938 -3.417969 C 1.777344 -3.425781 1.84375 -3.433594 1.90625 -3.445312 C 1.972656 -3.453125 2.027344 -3.457031 2.070312 -3.457031 C 2.308594 -3.457031 2.5 -3.425781 2.640625 -3.363281 C 2.785156 -3.300781 2.886719 -3.214844 2.949219 -3.109375 C 3.011719 -3.007812 3.046875 -2.894531 3.046875 -2.769531 C 3.046875 -2.644531 3.015625 -2.53125 2.957031 -2.433594 C 2.894531 -2.339844 2.816406 -2.253906 2.722656 -2.183594 C 2.628906 -2.113281 2.527344 -2.058594 2.417969 -2.015625 C 2.308594 -1.972656 2.203125 -1.945312 2.101562 -1.929688 C 2.074219 -1.925781 2.058594 -1.921875 2.0625 -1.90625 C 2.0625 -1.894531 2.070312 -1.886719 2.085938 -1.878906 C 2.289062 -1.800781 2.449219 -1.699219 2.566406 -1.574219 C 2.683594 -1.445312 2.746094 -1.257812 2.746094 -1.011719 C 2.746094 -0.863281 2.710938 -0.722656 2.640625 -0.597656 C 2.570312 -0.46875 2.46875 -0.359375 2.339844 -0.265625 C 2.210938 -0.171875 2.0625 -0.101562 1.890625 -0.0546875 C 1.71875 -0.00390625 1.53125 0.0195312 1.328125 0.0195312 C 1.179688 0.0195312 1.058594 0.015625 0.960938 0.00390625 C 0.863281 -0.0078125 0.761719 -0.015625 0.664062 -0.015625 C 0.582031 -0.015625 0.507812 -0.0117188 0.449219 -0.00390625 C 0.390625 0.00390625 0.328125 0.0078125 0.261719 0.015625 C 0.195312 0.0234375 0.117188 0.0273438 0.0195312 0.0273438 Z M 1.3125 -0.109375 C 1.433594 -0.109375 1.550781 -0.132812 1.671875 -0.183594 C 1.789062 -0.230469 1.894531 -0.296875 1.996094 -0.386719 C 2.09375 -0.472656 2.171875 -0.574219 2.230469 -0.695312 C 2.289062 -0.8125 2.316406 -0.941406 2.316406 -1.082031 C 2.316406 -1.324219 2.242188 -1.507812 2.097656 -1.636719 C 1.953125 -1.761719 1.734375 -1.824219 1.445312 -1.824219 C 1.421875 -1.824219 1.398438 -1.816406 1.378906 -1.800781 C 1.355469 -1.78125 1.34375 -1.757812 1.335938 -1.726562 L 0.996094 -0.570312 C 0.980469 -0.507812 0.972656 -0.445312 0.980469 -0.386719 C 0.984375 -0.324219 1.007812 -0.277344 1.050781 -0.238281 C 1.089844 -0.203125 1.128906 -0.171875 1.167969 -0.148438 C 1.207031 -0.125 1.253906 -0.109375 1.3125 -0.109375 Z M 1.503906 -1.957031 C 1.585938 -1.957031 1.664062 -1.964844 1.746094 -1.976562 C 1.824219 -1.988281 1.90625 -2.003906 1.988281 -2.019531 C 2.164062 -2.09375 2.3125 -2.195312 2.433594 -2.316406 C 2.554688 -2.441406 2.617188 -2.589844 2.617188 -2.769531 C 2.617188 -2.914062 2.5625 -3.039062 2.449219 -3.144531 C 2.335938 -3.246094 2.175781 -3.296875 1.96875 -3.296875 C 1.902344 -3.296875 1.851562 -3.292969 1.824219 -3.28125 C 1.792969 -3.269531 1.773438 -3.246094 1.769531 -3.214844 L 1.441406 -2.035156 C 1.425781 -1.984375 1.449219 -1.957031 1.503906 -1.957031 Z "/>
</g>
<g id="glyph-0-1">
<path d="M 0.316406 0.0898438 C 0.300781 0.0898438 0.28125 0.0820312 0.257812 0.0703125 C 0.238281 0.0585938 0.21875 0.0429688 0.207031 0.0234375 C 0.191406 0.00390625 0.183594 -0.015625 0.183594 -0.0351562 C 0.183594 -0.078125 0.195312 -0.132812 0.21875 -0.199219 C 0.242188 -0.261719 0.269531 -0.34375 0.304688 -0.441406 L 0.792969 -1.710938 C 0.808594 -1.757812 0.816406 -1.796875 0.816406 -1.835938 C 0.8125 -1.875 0.796875 -1.894531 0.761719 -1.894531 C 0.710938 -1.894531 0.664062 -1.886719 0.613281 -1.875 C 0.566406 -1.863281 0.53125 -1.851562 0.507812 -1.835938 C 0.484375 -1.820312 0.464844 -1.820312 0.445312 -1.828125 C 0.425781 -1.835938 0.417969 -1.855469 0.417969 -1.878906 C 0.417969 -1.90625 0.429688 -1.9375 0.457031 -1.972656 C 0.484375 -2.007812 0.519531 -2.042969 0.566406 -2.074219 C 0.609375 -2.105469 0.65625 -2.132812 0.714844 -2.152344 C 0.773438 -2.175781 0.832031 -2.183594 0.898438 -2.183594 C 0.996094 -2.183594 1.058594 -2.160156 1.085938 -2.109375 C 1.113281 -2.0625 1.113281 -1.996094 1.09375 -1.914062 C 1.074219 -1.832031 1.042969 -1.734375 1.003906 -1.628906 L 0.765625 -1.035156 C 0.75 -1.011719 0.753906 -0.992188 0.777344 -0.988281 C 0.800781 -0.980469 0.816406 -0.984375 0.828125 -1.003906 C 0.96875 -1.246094 1.109375 -1.457031 1.253906 -1.636719 C 1.394531 -1.820312 1.527344 -1.960938 1.652344 -2.0625 C 1.773438 -2.160156 1.878906 -2.210938 1.957031 -2.210938 C 2.050781 -2.210938 2.113281 -2.183594 2.152344 -2.132812 C 2.1875 -2.078125 2.207031 -2.019531 2.207031 -1.949219 C 2.207031 -1.882812 2.195312 -1.820312 2.171875 -1.753906 C 2.148438 -1.6875 2.117188 -1.628906 2.078125 -1.585938 C 2.035156 -1.542969 1.992188 -1.519531 1.941406 -1.519531 C 1.914062 -1.519531 1.894531 -1.535156 1.878906 -1.570312 C 1.863281 -1.605469 1.859375 -1.648438 1.859375 -1.703125 C 1.859375 -1.757812 1.851562 -1.796875 1.835938 -1.828125 C 1.820312 -1.859375 1.796875 -1.875 1.757812 -1.875 C 1.722656 -1.875 1.675781 -1.851562 1.617188 -1.804688 C 1.558594 -1.757812 1.488281 -1.679688 1.398438 -1.566406 C 1.359375 -1.515625 1.308594 -1.441406 1.246094 -1.351562 C 1.183594 -1.257812 1.113281 -1.160156 1.042969 -1.046875 C 0.96875 -0.9375 0.898438 -0.824219 0.828125 -0.710938 C 0.757812 -0.597656 0.695312 -0.492188 0.644531 -0.394531 C 0.550781 -0.226562 0.480469 -0.105469 0.441406 -0.0273438 C 0.402344 0.0507812 0.359375 0.0898438 0.316406 0.0898438 Z "/>
</g>
<g id="glyph-0-2">
<path d="M 0.347656 0.0742188 C 0.289062 0.0742188 0.238281 0.0546875 0.199219 0.015625 C 0.160156 -0.0234375 0.140625 -0.0625 0.140625 -0.105469 C 0.140625 -0.121094 0.144531 -0.132812 0.144531 -0.148438 C 0.148438 -0.160156 0.152344 -0.175781 0.160156 -0.191406 C 0.304688 -0.484375 0.425781 -0.757812 0.523438 -1.015625 C 0.621094 -1.273438 0.707031 -1.5 0.785156 -1.695312 C 0.800781 -1.738281 0.792969 -1.757812 0.761719 -1.757812 C 0.742188 -1.757812 0.707031 -1.746094 0.65625 -1.726562 C 0.605469 -1.707031 0.550781 -1.683594 0.496094 -1.652344 C 0.441406 -1.621094 0.390625 -1.589844 0.347656 -1.558594 C 0.332031 -1.542969 0.3125 -1.539062 0.296875 -1.546875 C 0.277344 -1.554688 0.269531 -1.566406 0.269531 -1.582031 C 0.269531 -1.601562 0.28125 -1.625 0.308594 -1.660156 C 0.335938 -1.691406 0.371094 -1.730469 0.417969 -1.773438 C 0.464844 -1.816406 0.523438 -1.859375 0.589844 -1.90625 C 0.65625 -1.953125 0.730469 -2.003906 0.808594 -2.050781 C 0.890625 -2.097656 0.972656 -2.140625 1.0625 -2.179688 C 1.09375 -2.195312 1.125 -2.191406 1.15625 -2.167969 C 1.1875 -2.148438 1.214844 -2.121094 1.230469 -2.089844 C 1.25 -2.058594 1.257812 -2.035156 1.25 -2.015625 L 0.605469 -0.492188 C 0.59375 -0.464844 0.582031 -0.433594 0.578125 -0.410156 C 0.574219 -0.382812 0.570312 -0.359375 0.570312 -0.335938 C 0.570312 -0.3125 0.578125 -0.296875 0.597656 -0.289062 C 0.617188 -0.28125 0.636719 -0.273438 0.65625 -0.273438 C 0.703125 -0.273438 0.761719 -0.296875 0.824219 -0.34375 C 0.886719 -0.390625 0.953125 -0.453125 1.027344 -0.519531 C 1.097656 -0.589844 1.167969 -0.65625 1.234375 -0.722656 C 1.242188 -0.730469 1.25 -0.734375 1.257812 -0.734375 C 1.261719 -0.734375 1.269531 -0.730469 1.277344 -0.726562 C 1.285156 -0.71875 1.289062 -0.714844 1.289062 -0.707031 C 1.289062 -0.652344 1.253906 -0.578125 1.1875 -0.492188 C 1.121094 -0.40625 1.035156 -0.320312 0.9375 -0.234375 C 0.835938 -0.148438 0.734375 -0.0742188 0.628906 -0.015625 C 0.523438 0.0429688 0.429688 0.0742188 0.347656 0.0742188 Z M 1.414062 -2.707031 C 1.363281 -2.707031 1.316406 -2.726562 1.28125 -2.769531 C 1.246094 -2.8125 1.230469 -2.859375 1.230469 -2.914062 C 1.230469 -2.996094 1.257812 -3.074219 1.3125 -3.136719 C 1.371094 -3.203125 1.441406 -3.234375 1.523438 -3.234375 C 1.582031 -3.234375 1.625 -3.210938 1.65625 -3.164062 C 1.6875 -3.117188 1.703125 -3.0625 1.703125 -3.007812 C 1.703125 -2.929688 1.675781 -2.859375 1.621094 -2.800781 C 1.5625 -2.738281 1.496094 -2.707031 1.414062 -2.707031 Z "/>
</g>
<g id="glyph-0-3">
<path d="M 0.335938 0.0742188 C 0.308594 0.0742188 0.277344 0.0625 0.242188 0.0390625 C 0.207031 0.015625 0.179688 -0.0078125 0.15625 -0.0390625 C 0.132812 -0.0703125 0.121094 -0.0976562 0.121094 -0.121094 C 0.121094 -0.179688 0.128906 -0.230469 0.144531 -0.273438 C 0.160156 -0.316406 0.175781 -0.363281 0.195312 -0.417969 L 0.695312 -1.824219 C 0.703125 -1.851562 0.699219 -1.867188 0.6875 -1.875 C 0.675781 -1.882812 0.660156 -1.890625 0.644531 -1.890625 L 0.433594 -1.898438 C 0.386719 -1.902344 0.359375 -1.914062 0.351562 -1.929688 C 0.34375 -1.945312 0.335938 -1.960938 0.335938 -1.972656 C 0.335938 -1.980469 0.347656 -1.992188 0.363281 -2.011719 C 0.382812 -2.03125 0.402344 -2.050781 0.429688 -2.070312 C 0.457031 -2.089844 0.484375 -2.101562 0.515625 -2.101562 L 0.707031 -2.101562 C 0.746094 -2.101562 0.773438 -2.105469 0.785156 -2.117188 C 0.800781 -2.128906 0.816406 -2.15625 0.832031 -2.195312 L 0.960938 -2.453125 C 0.976562 -2.480469 1 -2.515625 1.039062 -2.550781 C 1.078125 -2.589844 1.117188 -2.621094 1.160156 -2.648438 C 1.199219 -2.675781 1.226562 -2.691406 1.246094 -2.691406 C 1.273438 -2.691406 1.292969 -2.671875 1.296875 -2.632812 C 1.304688 -2.59375 1.300781 -2.558594 1.289062 -2.523438 L 1.152344 -2.167969 C 1.144531 -2.144531 1.144531 -2.128906 1.160156 -2.121094 C 1.171875 -2.113281 1.191406 -2.109375 1.21875 -2.109375 C 1.289062 -2.109375 1.363281 -2.105469 1.433594 -2.09375 C 1.507812 -2.085938 1.570312 -2.074219 1.613281 -2.070312 C 1.671875 -2.058594 1.707031 -2.046875 1.71875 -2.035156 C 1.730469 -2.023438 1.734375 -2.007812 1.734375 -1.988281 C 1.734375 -1.980469 1.730469 -1.972656 1.714844 -1.957031 C 1.699219 -1.941406 1.675781 -1.929688 1.636719 -1.925781 C 1.558594 -1.921875 1.484375 -1.917969 1.414062 -1.914062 C 1.34375 -1.90625 1.269531 -1.902344 1.191406 -1.898438 C 1.136719 -1.894531 1.097656 -1.886719 1.074219 -1.875 C 1.050781 -1.859375 1.035156 -1.839844 1.027344 -1.820312 L 0.558594 -0.523438 C 0.546875 -0.480469 0.539062 -0.441406 0.539062 -0.410156 C 0.539062 -0.378906 0.546875 -0.355469 0.566406 -0.335938 C 0.585938 -0.320312 0.617188 -0.3125 0.65625 -0.3125 C 0.703125 -0.3125 0.757812 -0.328125 0.8125 -0.363281 C 0.867188 -0.398438 0.921875 -0.441406 0.976562 -0.484375 C 1.027344 -0.53125 1.074219 -0.570312 1.109375 -0.605469 C 1.148438 -0.644531 1.179688 -0.664062 1.207031 -0.660156 C 1.234375 -0.65625 1.25 -0.644531 1.25 -0.621094 C 1.25 -0.597656 1.242188 -0.570312 1.222656 -0.539062 C 1.207031 -0.511719 1.183594 -0.480469 1.15625 -0.449219 C 1.101562 -0.390625 1.039062 -0.332031 0.980469 -0.28125 C 0.917969 -0.226562 0.855469 -0.179688 0.789062 -0.132812 C 0.722656 -0.0898438 0.664062 -0.0546875 0.605469 -0.0234375 C 0.546875 0.0078125 0.496094 0.03125 0.449219 0.046875 C 0.402344 0.0664062 0.367188 0.0742188 0.335938 0.0742188 Z "/>
</g>
<g id="glyph-0-4">
<path d="M 0.136719 0.0742188 C 0.0585938 0.0742188 -0.0078125 0.0507812 -0.0625 0.0078125 C -0.121094 -0.0351562 -0.148438 -0.0898438 -0.148438 -0.160156 C -0.148438 -0.238281 -0.128906 -0.300781 -0.09375 -0.339844 C -0.0546875 -0.378906 -0.0234375 -0.402344 0 -0.402344 C 0.0234375 -0.402344 0.0507812 -0.390625 0.078125 -0.371094 C 0.101562 -0.351562 0.132812 -0.328125 0.164062 -0.300781 C 0.203125 -0.273438 0.246094 -0.246094 0.292969 -0.21875 C 0.339844 -0.191406 0.402344 -0.179688 0.480469 -0.179688 C 0.574219 -0.179688 0.652344 -0.214844 0.707031 -0.28125 C 0.761719 -0.351562 0.792969 -0.425781 0.796875 -0.5 C 0.796875 -0.578125 0.785156 -0.664062 0.757812 -0.753906 C 0.730469 -0.84375 0.691406 -0.929688 0.644531 -1.019531 C 0.597656 -1.101562 0.558594 -1.183594 0.53125 -1.257812 C 0.5 -1.335938 0.484375 -1.398438 0.484375 -1.453125 C 0.484375 -1.554688 0.511719 -1.648438 0.566406 -1.738281 C 0.621094 -1.828125 0.6875 -1.90625 0.769531 -1.972656 C 0.847656 -2.039062 0.925781 -2.09375 1.003906 -2.128906 C 1.082031 -2.167969 1.140625 -2.183594 1.1875 -2.183594 C 1.234375 -2.183594 1.277344 -2.171875 1.324219 -2.144531 C 1.371094 -2.117188 1.40625 -2.089844 1.4375 -2.054688 C 1.46875 -2.023438 1.484375 -1.992188 1.484375 -1.96875 C 1.484375 -1.949219 1.472656 -1.921875 1.453125 -1.890625 C 1.429688 -1.863281 1.40625 -1.835938 1.378906 -1.808594 C 1.351562 -1.785156 1.324219 -1.773438 1.304688 -1.773438 C 1.285156 -1.773438 1.269531 -1.78125 1.25 -1.800781 C 1.234375 -1.816406 1.214844 -1.835938 1.191406 -1.859375 C 1.171875 -1.878906 1.144531 -1.898438 1.117188 -1.914062 C 1.085938 -1.933594 1.046875 -1.941406 0.996094 -1.941406 C 0.941406 -1.941406 0.890625 -1.917969 0.851562 -1.871094 C 0.808594 -1.824219 0.785156 -1.761719 0.785156 -1.683594 C 0.785156 -1.65625 0.796875 -1.613281 0.816406 -1.550781 C 0.835938 -1.492188 0.859375 -1.429688 0.882812 -1.367188 C 0.910156 -1.304688 0.9375 -1.246094 0.960938 -1.199219 C 1 -1.128906 1.035156 -1.039062 1.070312 -0.929688 C 1.101562 -0.824219 1.117188 -0.730469 1.117188 -0.648438 C 1.117188 -0.542969 1.089844 -0.445312 1.027344 -0.359375 C 0.964844 -0.269531 0.886719 -0.195312 0.785156 -0.128906 C 0.6875 -0.0625 0.582031 -0.015625 0.46875 0.0195312 C 0.351562 0.0546875 0.242188 0.0742188 0.136719 0.0742188 Z "/>
</g>
<g id="glyph-0-5">
<path d="M 0.296875 0.09375 C 0.277344 0.09375 0.261719 0.0898438 0.246094 0.0742188 C 0.234375 0.0585938 0.222656 0.0429688 0.214844 0.0195312 C 0.207031 0 0.207031 -0.0195312 0.207031 -0.0429688 C 0.207031 -0.09375 0.210938 -0.148438 0.222656 -0.199219 C 0.234375 -0.253906 0.253906 -0.320312 0.273438 -0.394531 L 1.019531 -2.945312 C 1.035156 -3.003906 1.054688 -3.070312 1.070312 -3.144531 C 1.089844 -3.214844 1.097656 -3.269531 1.097656 -3.304688 C 1.097656 -3.339844 1.074219 -3.363281 1.03125 -3.382812 C 0.988281 -3.398438 0.945312 -3.417969 0.902344 -3.429688 C 0.878906 -3.4375 0.855469 -3.445312 0.835938 -3.453125 C 0.816406 -3.460938 0.808594 -3.472656 0.808594 -3.488281 C 0.808594 -3.503906 0.8125 -3.515625 0.824219 -3.527344 C 0.835938 -3.539062 0.859375 -3.554688 0.898438 -3.566406 C 0.925781 -3.578125 0.964844 -3.59375 1.015625 -3.609375 C 1.066406 -3.628906 1.121094 -3.644531 1.179688 -3.664062 C 1.238281 -3.683594 1.289062 -3.699219 1.335938 -3.710938 C 1.382812 -3.722656 1.417969 -3.730469 1.433594 -3.730469 C 1.453125 -3.730469 1.472656 -3.730469 1.492188 -3.726562 C 1.515625 -3.722656 1.523438 -3.707031 1.523438 -3.679688 C 1.523438 -3.652344 1.523438 -3.625 1.515625 -3.605469 C 1.511719 -3.582031 1.503906 -3.558594 1.5 -3.535156 L 0.78125 -1.054688 C 0.773438 -1.03125 0.773438 -1.019531 0.785156 -1.019531 C 0.792969 -1.019531 0.800781 -1.027344 0.8125 -1.039062 C 0.96875 -1.269531 1.128906 -1.472656 1.292969 -1.648438 C 1.457031 -1.828125 1.613281 -1.964844 1.761719 -2.070312 C 1.910156 -2.171875 2.035156 -2.222656 2.144531 -2.222656 C 2.257812 -2.222656 2.347656 -2.183594 2.410156 -2.105469 C 2.472656 -2.027344 2.5 -1.9375 2.5 -1.835938 C 2.5 -1.65625 2.46875 -1.46875 2.402344 -1.265625 C 2.339844 -1.066406 2.253906 -0.875 2.148438 -0.691406 C 2.042969 -0.507812 1.929688 -0.351562 1.804688 -0.222656 C 1.785156 -0.199219 1.753906 -0.171875 1.710938 -0.140625 C 1.667969 -0.105469 1.617188 -0.0742188 1.5625 -0.0429688 C 1.507812 -0.0117188 1.449219 0.015625 1.390625 0.0390625 C 1.332031 0.0625 1.277344 0.0742188 1.230469 0.0742188 C 1.207031 0.0742188 1.175781 0.0625 1.140625 0.0429688 C 1.109375 0.0195312 1.082031 -0.00390625 1.058594 -0.0351562 C 1.035156 -0.0664062 1.023438 -0.0976562 1.023438 -0.121094 C 1.023438 -0.140625 1.03125 -0.160156 1.042969 -0.183594 C 1.058594 -0.207031 1.078125 -0.230469 1.097656 -0.246094 C 1.117188 -0.265625 1.140625 -0.273438 1.160156 -0.273438 C 1.191406 -0.273438 1.21875 -0.269531 1.242188 -0.257812 C 1.265625 -0.246094 1.285156 -0.230469 1.304688 -0.210938 C 1.324219 -0.195312 1.347656 -0.175781 1.367188 -0.164062 C 1.386719 -0.148438 1.414062 -0.140625 1.441406 -0.140625 C 1.5 -0.140625 1.5625 -0.175781 1.628906 -0.246094 C 1.695312 -0.316406 1.761719 -0.410156 1.824219 -0.527344 C 1.886719 -0.644531 1.941406 -0.769531 1.988281 -0.910156 C 2.039062 -1.050781 2.078125 -1.1875 2.109375 -1.328125 C 2.136719 -1.46875 2.152344 -1.601562 2.152344 -1.71875 C 2.152344 -1.800781 2.136719 -1.863281 2.101562 -1.90625 C 2.070312 -1.953125 2.019531 -1.972656 1.953125 -1.972656 C 1.875 -1.972656 1.789062 -1.9375 1.691406 -1.859375 C 1.59375 -1.785156 1.496094 -1.683594 1.390625 -1.5625 C 1.285156 -1.4375 1.1875 -1.308594 1.085938 -1.167969 C 0.988281 -1.027344 0.898438 -0.886719 0.816406 -0.753906 C 0.738281 -0.621094 0.671875 -0.507812 0.621094 -0.410156 C 0.535156 -0.242188 0.46875 -0.117188 0.425781 -0.03125 C 0.382812 0.0546875 0.335938 0.09375 0.296875 0.09375 Z "/>
</g>
<g id="glyph-0-6">
<rect x="0" y="0" width="0" height="0" mask="url(#mask-0)"/>
</g>
<g id="glyph-0-7">
<path d="M -0.0429688 0.0273438 C -0.0859375 0.0273438 -0.117188 0.0234375 -0.136719 0.0117188 C -0.15625 0.00390625 -0.167969 -0.0117188 -0.167969 -0.03125 C -0.167969 -0.0742188 -0.105469 -0.105469 0.0195312 -0.125 C 0.195312 -0.152344 0.324219 -0.199219 0.398438 -0.257812 C 0.472656 -0.316406 0.53125 -0.402344 0.566406 -0.523438 L 1.289062 -2.898438 C 1.335938 -3.050781 1.339844 -3.148438 1.292969 -3.195312 C 1.246094 -3.242188 1.148438 -3.277344 0.992188 -3.296875 C 0.9375 -3.304688 0.902344 -3.316406 0.882812 -3.328125 C 0.863281 -3.34375 0.855469 -3.363281 0.855469 -3.386719 C 0.855469 -3.410156 0.871094 -3.425781 0.90625 -3.433594 C 0.9375 -3.441406 0.976562 -3.445312 1.019531 -3.445312 C 1.046875 -3.445312 1.097656 -3.445312 1.167969 -3.441406 C 1.242188 -3.4375 1.320312 -3.433594 1.410156 -3.433594 C 1.5 -3.429688 1.582031 -3.429688 1.65625 -3.429688 L 2.507812 -3.429688 C 2.699219 -3.429688 2.847656 -3.433594 2.949219 -3.445312 C 3.046875 -3.453125 3.117188 -3.460938 3.160156 -3.46875 C 3.199219 -3.476562 3.222656 -3.484375 3.230469 -3.484375 C 3.242188 -3.484375 3.257812 -3.476562 3.269531 -3.460938 C 3.28125 -3.445312 3.289062 -3.429688 3.289062 -3.414062 C 3.289062 -3.394531 3.277344 -3.355469 3.257812 -3.300781 C 3.234375 -3.246094 3.210938 -3.179688 3.1875 -3.097656 C 3.164062 -3.015625 3.144531 -2.925781 3.128906 -2.824219 C 3.125 -2.789062 3.113281 -2.761719 3.09375 -2.746094 C 3.074219 -2.730469 3.058594 -2.722656 3.039062 -2.722656 C 3.023438 -2.722656 3.007812 -2.734375 2.996094 -2.761719 C 2.984375 -2.785156 2.976562 -2.816406 2.980469 -2.855469 C 2.992188 -3.015625 2.976562 -3.128906 2.941406 -3.191406 C 2.902344 -3.253906 2.8125 -3.28125 2.671875 -3.28125 L 2.027344 -3.28125 C 1.941406 -3.28125 1.882812 -3.269531 1.847656 -3.25 C 1.8125 -3.226562 1.785156 -3.183594 1.769531 -3.125 L 1.414062 -2.003906 C 1.394531 -1.941406 1.386719 -1.898438 1.398438 -1.875 C 1.410156 -1.847656 1.441406 -1.839844 1.5 -1.839844 L 2.152344 -1.859375 C 2.246094 -1.863281 2.316406 -1.882812 2.371094 -1.917969 C 2.425781 -1.957031 2.476562 -2 2.515625 -2.054688 C 2.542969 -2.082031 2.570312 -2.117188 2.597656 -2.15625 C 2.628906 -2.195312 2.660156 -2.214844 2.691406 -2.214844 C 2.71875 -2.214844 2.734375 -2.203125 2.734375 -2.171875 C 2.738281 -2.140625 2.730469 -2.105469 2.710938 -2.070312 C 2.679688 -2.007812 2.652344 -1.953125 2.628906 -1.898438 C 2.605469 -1.847656 2.585938 -1.796875 2.570312 -1.746094 C 2.550781 -1.691406 2.53125 -1.632812 2.515625 -1.570312 C 2.5 -1.507812 2.480469 -1.4375 2.464844 -1.363281 C 2.460938 -1.335938 2.453125 -1.3125 2.441406 -1.289062 C 2.429688 -1.261719 2.414062 -1.25 2.394531 -1.25 C 2.367188 -1.25 2.347656 -1.269531 2.339844 -1.308594 C 2.332031 -1.347656 2.328125 -1.375 2.328125 -1.394531 C 2.328125 -1.503906 2.308594 -1.578125 2.273438 -1.621094 C 2.234375 -1.667969 2.1875 -1.6875 2.125 -1.6875 L 1.519531 -1.699219 C 1.460938 -1.699219 1.40625 -1.691406 1.363281 -1.675781 C 1.320312 -1.660156 1.289062 -1.613281 1.265625 -1.535156 L 0.996094 -0.574219 C 0.949219 -0.394531 0.9375 -0.277344 0.96875 -0.222656 C 1 -0.164062 1.066406 -0.136719 1.175781 -0.136719 L 1.996094 -0.136719 C 2.082031 -0.136719 2.160156 -0.152344 2.230469 -0.179688 C 2.296875 -0.207031 2.359375 -0.242188 2.417969 -0.28125 C 2.46875 -0.320312 2.519531 -0.363281 2.566406 -0.417969 C 2.609375 -0.472656 2.65625 -0.539062 2.703125 -0.613281 C 2.714844 -0.632812 2.730469 -0.65625 2.746094 -0.675781 C 2.757812 -0.695312 2.777344 -0.707031 2.796875 -0.707031 C 2.816406 -0.707031 2.824219 -0.695312 2.828125 -0.671875 C 2.832031 -0.644531 2.832031 -0.621094 2.832031 -0.601562 C 2.832031 -0.570312 2.820312 -0.519531 2.796875 -0.453125 C 2.773438 -0.386719 2.746094 -0.320312 2.710938 -0.25 C 2.679688 -0.183594 2.652344 -0.125 2.628906 -0.0859375 C 2.605469 -0.0507812 2.582031 -0.0234375 2.558594 -0.00390625 C 2.53125 0.015625 2.496094 0.0273438 2.453125 0.0273438 C 2.308594 0.0273438 2.167969 0.0273438 2.027344 0.0234375 C 1.890625 0.0234375 1.753906 0.0195312 1.625 0.015625 C 1.496094 0.0117188 1.371094 0.0078125 1.25 0.00390625 C 1.132812 0 1.015625 0 0.90625 -0.00390625 C 0.792969 -0.00390625 0.691406 -0.00390625 0.589844 -0.00390625 C 0.507812 -0.00390625 0.433594 -0.00390625 0.371094 0.00390625 C 0.308594 0.0078125 0.242188 0.0117188 0.183594 0.0195312 C 0.121094 0.0234375 0.046875 0.0273438 -0.0429688 0.0273438 Z "/>
</g>
<g id="glyph-0-8">
<path d="M 0.332031 0.0859375 C 0.3125 0.0859375 0.292969 0.078125 0.273438 0.0625 C 0.253906 0.046875 0.234375 0.0273438 0.222656 0.00390625 C 0.207031 -0.0195312 0.199219 -0.046875 0.191406 -0.0742188 C 0.1875 -0.101562 0.191406 -0.125 0.199219 -0.148438 L 0.8125 -1.648438 C 0.875 -1.800781 0.878906 -1.878906 0.824219 -1.878906 C 0.789062 -1.878906 0.75 -1.875 0.710938 -1.867188 C 0.671875 -1.855469 0.632812 -1.835938 0.585938 -1.800781 C 0.539062 -1.765625 0.488281 -1.710938 0.433594 -1.636719 C 0.417969 -1.621094 0.402344 -1.617188 0.386719 -1.617188 C 0.371094 -1.621094 0.359375 -1.632812 0.355469 -1.65625 C 0.355469 -1.679688 0.359375 -1.707031 0.371094 -1.738281 C 0.382812 -1.773438 0.398438 -1.804688 0.417969 -1.839844 C 0.433594 -1.871094 0.449219 -1.898438 0.464844 -1.921875 C 0.515625 -2.003906 0.589844 -2.066406 0.679688 -2.109375 C 0.769531 -2.15625 0.871094 -2.179688 0.992188 -2.183594 C 1.03125 -2.183594 1.066406 -2.175781 1.097656 -2.15625 C 1.128906 -2.136719 1.152344 -2.109375 1.167969 -2.074219 C 1.183594 -2.039062 1.183594 -2 1.167969 -1.957031 L 0.816406 -1.0625 C 0.808594 -1.035156 0.808594 -1.023438 0.824219 -1.019531 C 0.839844 -1.015625 0.855469 -1.023438 0.867188 -1.039062 C 1.011719 -1.285156 1.15625 -1.496094 1.304688 -1.664062 C 1.457031 -1.835938 1.597656 -1.964844 1.734375 -2.054688 C 1.871094 -2.140625 1.996094 -2.183594 2.101562 -2.183594 C 2.175781 -2.183594 2.238281 -2.160156 2.292969 -2.109375 C 2.347656 -2.058594 2.382812 -1.988281 2.398438 -1.902344 C 2.414062 -1.816406 2.398438 -1.71875 2.347656 -1.605469 L 1.863281 -0.453125 C 1.808594 -0.328125 1.820312 -0.265625 1.890625 -0.265625 C 1.933594 -0.265625 1.984375 -0.28125 2.046875 -0.3125 C 2.105469 -0.34375 2.167969 -0.378906 2.230469 -0.425781 C 2.296875 -0.46875 2.351562 -0.507812 2.398438 -0.546875 C 2.445312 -0.582031 2.476562 -0.609375 2.492188 -0.621094 C 2.496094 -0.625 2.496094 -0.628906 2.5 -0.628906 C 2.5 -0.628906 2.503906 -0.628906 2.507812 -0.628906 C 2.519531 -0.628906 2.527344 -0.625 2.535156 -0.613281 C 2.542969 -0.605469 2.550781 -0.59375 2.550781 -0.582031 C 2.550781 -0.554688 2.542969 -0.527344 2.527344 -0.507812 C 2.4375 -0.398438 2.339844 -0.300781 2.234375 -0.210938 C 2.132812 -0.125 2.023438 -0.0546875 1.914062 -0.00390625 C 1.800781 0.046875 1.691406 0.0742188 1.578125 0.0742188 C 1.546875 0.0742188 1.515625 0.0625 1.484375 0.0390625 C 1.453125 0.015625 1.425781 -0.0117188 1.410156 -0.046875 C 1.394531 -0.0820312 1.398438 -0.121094 1.414062 -0.160156 C 1.515625 -0.394531 1.621094 -0.628906 1.722656 -0.863281 C 1.828125 -1.097656 1.925781 -1.332031 2.015625 -1.566406 C 2.070312 -1.710938 2.089844 -1.8125 2.074219 -1.871094 C 2.054688 -1.929688 2.023438 -1.960938 1.972656 -1.964844 C 1.933594 -1.96875 1.890625 -1.953125 1.835938 -1.921875 C 1.785156 -1.894531 1.722656 -1.847656 1.65625 -1.785156 C 1.589844 -1.722656 1.519531 -1.648438 1.441406 -1.550781 C 1.398438 -1.503906 1.34375 -1.425781 1.273438 -1.320312 C 1.203125 -1.21875 1.121094 -1.097656 1.035156 -0.964844 C 0.945312 -0.828125 0.855469 -0.683594 0.761719 -0.53125 C 0.667969 -0.378906 0.582031 -0.226562 0.496094 -0.078125 C 0.464844 -0.0234375 0.4375 0.0195312 0.410156 0.0429688 C 0.386719 0.0703125 0.359375 0.0859375 0.332031 0.0859375 Z "/>
</g>
<g id="glyph-0-9">
<path d="M 0.597656 1.53125 C 0.394531 1.53125 0.207031 1.507812 0.0390625 1.460938 C -0.128906 1.414062 -0.261719 1.34375 -0.359375 1.257812 C -0.457031 1.171875 -0.507812 1.070312 -0.507812 0.949219 C -0.507812 0.867188 -0.453125 0.792969 -0.34375 0.71875 C -0.234375 0.648438 -0.0976562 0.582031 0.0625 0.515625 C 0.226562 0.453125 0.386719 0.394531 0.542969 0.34375 C 0.570312 0.332031 0.574219 0.316406 0.554688 0.296875 C 0.476562 0.230469 0.414062 0.171875 0.371094 0.125 C 0.324219 0.078125 0.300781 0.0234375 0.300781 -0.03125 C 0.300781 -0.0820312 0.328125 -0.132812 0.378906 -0.1875 C 0.429688 -0.242188 0.492188 -0.296875 0.566406 -0.355469 C 0.582031 -0.371094 0.59375 -0.386719 0.597656 -0.394531 C 0.605469 -0.40625 0.605469 -0.414062 0.605469 -0.417969 C 0.605469 -0.429688 0.59375 -0.4375 0.566406 -0.449219 C 0.496094 -0.484375 0.4375 -0.523438 0.398438 -0.570312 C 0.359375 -0.617188 0.328125 -0.667969 0.3125 -0.730469 C 0.296875 -0.792969 0.289062 -0.863281 0.289062 -0.9375 C 0.289062 -1.058594 0.316406 -1.191406 0.371094 -1.332031 C 0.421875 -1.476562 0.496094 -1.613281 0.585938 -1.742188 C 0.675781 -1.871094 0.785156 -1.976562 0.90625 -2.0625 C 1.03125 -2.144531 1.164062 -2.183594 1.304688 -2.183594 C 1.378906 -2.183594 1.429688 -2.175781 1.464844 -2.160156 C 1.496094 -2.144531 1.523438 -2.132812 1.546875 -2.121094 C 1.570312 -2.105469 1.59375 -2.09375 1.621094 -2.082031 C 1.644531 -2.070312 1.667969 -2.0625 1.695312 -2.0625 C 1.734375 -2.0625 1.785156 -2.070312 1.847656 -2.082031 C 1.910156 -2.09375 1.976562 -2.105469 2.042969 -2.117188 C 2.109375 -2.128906 2.164062 -2.132812 2.210938 -2.132812 C 2.230469 -2.132812 2.257812 -2.121094 2.285156 -2.101562 C 2.3125 -2.082031 2.328125 -2.054688 2.328125 -2.011719 C 2.328125 -1.945312 2.316406 -1.894531 2.296875 -1.867188 C 2.273438 -1.839844 2.253906 -1.824219 2.230469 -1.824219 C 2.199219 -1.824219 2.15625 -1.832031 2.101562 -1.839844 C 2.042969 -1.851562 1.992188 -1.863281 1.9375 -1.875 C 1.886719 -1.882812 1.847656 -1.890625 1.820312 -1.890625 C 1.804688 -1.890625 1.785156 -1.882812 1.769531 -1.875 C 1.753906 -1.863281 1.75 -1.84375 1.757812 -1.816406 C 1.765625 -1.789062 1.769531 -1.757812 1.773438 -1.726562 C 1.777344 -1.695312 1.777344 -1.660156 1.777344 -1.625 C 1.777344 -1.488281 1.75 -1.347656 1.695312 -1.207031 C 1.640625 -1.0625 1.570312 -0.929688 1.476562 -0.808594 C 1.386719 -0.6875 1.285156 -0.589844 1.167969 -0.515625 C 1.054688 -0.441406 0.9375 -0.40625 0.824219 -0.40625 C 0.800781 -0.40625 0.777344 -0.398438 0.757812 -0.386719 C 0.738281 -0.375 0.722656 -0.359375 0.707031 -0.34375 C 0.667969 -0.292969 0.648438 -0.242188 0.648438 -0.191406 C 0.648438 -0.128906 0.664062 -0.0742188 0.699219 -0.03125 C 0.734375 0.0117188 0.792969 0.0625 0.882812 0.121094 C 0.941406 0.160156 1.011719 0.207031 1.09375 0.261719 C 1.175781 0.316406 1.257812 0.367188 1.339844 0.417969 C 1.421875 0.46875 1.488281 0.515625 1.535156 0.554688 C 1.613281 0.609375 1.667969 0.664062 1.695312 0.710938 C 1.726562 0.757812 1.742188 0.808594 1.742188 0.859375 C 1.742188 0.953125 1.707031 1.039062 1.632812 1.117188 C 1.5625 1.199219 1.46875 1.269531 1.351562 1.332031 C 1.234375 1.394531 1.109375 1.441406 0.980469 1.476562 C 0.847656 1.511719 0.71875 1.53125 0.597656 1.53125 Z M 0.753906 1.371094 C 0.894531 1.371094 1.007812 1.355469 1.097656 1.320312 C 1.1875 1.285156 1.25 1.238281 1.292969 1.183594 C 1.335938 1.128906 1.355469 1.070312 1.355469 1.007812 C 1.355469 0.957031 1.339844 0.898438 1.308594 0.839844 C 1.277344 0.78125 1.222656 0.730469 1.140625 0.6875 C 1.113281 0.664062 1.0625 0.632812 0.996094 0.585938 C 0.925781 0.539062 0.871094 0.507812 0.832031 0.492188 C 0.769531 0.457031 0.722656 0.4375 0.6875 0.4375 C 0.664062 0.4375 0.644531 0.441406 0.621094 0.441406 C 0.597656 0.445312 0.574219 0.453125 0.554688 0.460938 C 0.34375 0.527344 0.175781 0.597656 0.046875 0.679688 C -0.078125 0.757812 -0.140625 0.851562 -0.140625 0.960938 C -0.140625 1.039062 -0.0976562 1.105469 -0.0078125 1.167969 C 0.0820312 1.230469 0.195312 1.28125 0.332031 1.316406 C 0.46875 1.355469 0.609375 1.371094 0.753906 1.371094 Z M 0.808594 -0.53125 C 0.871094 -0.53125 0.933594 -0.566406 1 -0.628906 C 1.066406 -0.691406 1.128906 -0.773438 1.1875 -0.875 C 1.246094 -0.976562 1.300781 -1.085938 1.347656 -1.199219 C 1.394531 -1.316406 1.433594 -1.425781 1.460938 -1.53125 C 1.488281 -1.636719 1.503906 -1.722656 1.503906 -1.789062 C 1.503906 -1.84375 1.488281 -1.894531 1.453125 -1.953125 C 1.417969 -2.007812 1.371094 -2.035156 1.320312 -2.035156 C 1.253906 -2.035156 1.1875 -2.007812 1.117188 -1.953125 C 1.050781 -1.898438 0.988281 -1.820312 0.925781 -1.726562 C 0.863281 -1.632812 0.808594 -1.53125 0.761719 -1.421875 C 0.710938 -1.3125 0.671875 -1.199219 0.640625 -1.089844 C 0.609375 -0.980469 0.59375 -0.878906 0.589844 -0.785156 C 0.589844 -0.71875 0.613281 -0.660156 0.65625 -0.609375 C 0.699219 -0.558594 0.75 -0.53125 0.808594 -0.53125 Z "/>
</g>
<g id="glyph-0-10">
<path d="M 0.296875 0.0742188 C 0.25 0.0742188 0.199219 0.0507812 0.140625 0 C 0.0859375 -0.0507812 0.0585938 -0.101562 0.0585938 -0.160156 C 0.0585938 -0.179688 0.0625 -0.199219 0.0703125 -0.222656 L 1.070312 -3.078125 C 1.089844 -3.125 1.101562 -3.171875 1.109375 -3.21875 C 1.121094 -3.265625 1.125 -3.3125 1.125 -3.355469 C 1.125 -3.386719 1.105469 -3.417969 1.074219 -3.445312 C 1.039062 -3.472656 1 -3.492188 0.949219 -3.503906 C 0.914062 -3.511719 0.886719 -3.519531 0.867188 -3.53125 C 0.84375 -3.542969 0.832031 -3.558594 0.832031 -3.574219 C 0.832031 -3.582031 0.835938 -3.59375 0.835938 -3.597656 C 0.839844 -3.605469 0.839844 -3.613281 0.847656 -3.621094 C 0.851562 -3.628906 0.859375 -3.628906 0.867188 -3.628906 C 0.933594 -3.648438 1.011719 -3.664062 1.109375 -3.679688 C 1.203125 -3.695312 1.292969 -3.710938 1.375 -3.722656 C 1.457031 -3.734375 1.511719 -3.742188 1.539062 -3.742188 C 1.558594 -3.742188 1.574219 -3.734375 1.585938 -3.722656 C 1.597656 -3.710938 1.605469 -3.691406 1.605469 -3.664062 C 1.605469 -3.640625 1.601562 -3.617188 1.59375 -3.589844 C 1.585938 -3.5625 1.578125 -3.539062 1.574219 -3.515625 L 0.507812 -0.476562 C 0.496094 -0.449219 0.488281 -0.417969 0.484375 -0.394531 C 0.480469 -0.367188 0.480469 -0.34375 0.480469 -0.320312 C 0.480469 -0.265625 0.496094 -0.238281 0.53125 -0.238281 C 0.582031 -0.238281 0.644531 -0.265625 0.714844 -0.320312 C 0.789062 -0.375 0.859375 -0.441406 0.929688 -0.515625 C 1 -0.59375 1.054688 -0.664062 1.097656 -0.722656 C 1.117188 -0.75 1.144531 -0.777344 1.171875 -0.804688 C 1.199219 -0.832031 1.222656 -0.84375 1.234375 -0.84375 C 1.25 -0.84375 1.257812 -0.839844 1.257812 -0.824219 C 1.261719 -0.8125 1.261719 -0.796875 1.261719 -0.777344 C 1.261719 -0.707031 1.238281 -0.632812 1.191406 -0.554688 C 1.144531 -0.476562 1.082031 -0.398438 1.003906 -0.324219 C 0.925781 -0.25 0.84375 -0.179688 0.753906 -0.121094 C 0.667969 -0.0625 0.582031 -0.015625 0.5 0.0195312 C 0.421875 0.0546875 0.351562 0.0742188 0.296875 0.0742188 Z "/>
</g>
</g>
<image id="source-26" x="0" y="0" width="0" height="0"/>
<mask id="mask-0">
<use xlink:href="#source-26"/>
</mask>
</defs>
<g fill="rgb(32.941176%, 32.941176%, 32.941176%)" fill-opacity="1">
<use xlink:href="#glyph-0-0" x="30" y="25.314453"/>
<use xlink:href="#glyph-0-1" x="33" y="25.314453"/>
<use xlink:href="#glyph-0-2" x="35" y="25.314453"/>
<use xlink:href="#glyph-0-3" x="37" y="25.314453"/>
<use xlink:href="#glyph-0-2" x="39" y="25.314453"/>
<use xlink:href="#glyph-0-4" x="41" y="25.314453"/>
<use xlink:href="#glyph-0-5" x="42" y="25.314453"/>
<use xlink:href="#glyph-0-6" x="45" y="25.314453"/>
<use xlink:href="#glyph-0-7" x="46" y="25.314453"/>
<use xlink:href="#glyph-0-8" x="49" y="25.314453"/>
<use xlink:href="#glyph-0-9" x="52" y="25.314453"/>
<use xlink:href="#glyph-0-10" x="54" y="25.314453"/>
<use xlink:href="#glyph-0-2" x="56" y="25.314453"/>
<use xlink:href="#glyph-0-4" x="58" y="25.314453"/>
<use xlink:href="#glyph-0-5" x="59" y="25.314453"/>
</g>
</svg>
