<?xml version="1.0" encoding="UTF-8"?>
<svg xmlns="http://www.w3.org/2000/svg" xmlns:xlink="http://www.w3.org/1999/xlink" width="1920" height="1080" viewBox="0 0 1920 1080">
<defs>
<g>
<g id="glyph-0-0">
<path d="M 0.0820312 -0.125 C 0.222656 -0.132812 0.324219 -0.152344 0.386719 -0.1875 C 0.480469 -0.238281 0.523438 -0.335938 0.523438 -0.476562 L 0.523438 -2.898438 C 0.523438 -3.042969 0.480469 -3.140625 0.386719 -3.191406 C 0.332031 -3.222656 0.230469 -3.242188 0.0820312 -3.25 L 0.0820312 -3.378906 L 2.914062 -3.378906 L 2.914062 -2.371094 L 2.792969 -2.371094 C 2.730469 -2.679688 2.625 -2.898438 2.480469 -3.023438 C 2.335938 -3.148438 2.0625 -3.210938 1.671875 -3.210938 C 1.523438 -3.210938 1.429688 -3.195312 1.390625 -3.160156 C 1.351562 -3.125 1.332031 -3.066406 1.332031 -2.972656 L 1.332031 -1.816406 C 1.601562 -1.8125 1.785156 -1.867188 1.878906 -1.988281 C 1.972656 -2.105469 2.046875 -2.296875 2.09375 -2.554688 L 2.222656 -2.554688 L 2.222656 -0.867188 L 2.09375 -0.867188 C 2.058594 -1.136719 1.992188 -1.332031 1.886719 -1.457031 C 1.785156 -1.582031 1.597656 -1.644531 1.332031 -1.644531 L 1.332031 -0.476562 C 1.332031 -0.324219 1.375 -0.226562 1.464844 -0.183594 C 1.554688 -0.140625 1.695312 -0.125 1.878906 -0.125 L 1.878906 0 L 0.0820312 0 Z "/>
</g>
<g id="glyph-0-1">
<path d="M 0.0898438 -0.125 C 0.226562 -0.132812 0.324219 -0.148438 0.382812 -0.179688 C 0.484375 -0.234375 0.53125 -0.332031 0.53125 -0.476562 L 0.53125 -2.898438 C 0.53125 -3.042969 0.484375 -3.144531 0.390625 -3.195312 C 0.335938 -3.226562 0.234375 -3.242188 0.0898438 -3.25 L 0.0898438 -3.378906 L 1.839844 -3.378906 L 1.839844 -3.25 C 1.636719 -3.246094 1.5 -3.21875 1.433594 -3.167969 C 1.363281 -3.117188 1.332031 -2.992188 1.332031 -2.792969 L 1.332031 -0.433594 C 1.332031 -0.320312 1.359375 -0.25 1.417969 -0.210938 C 1.476562 -0.175781 1.585938 -0.160156 1.753906 -0.160156 C 2.054688 -0.160156 2.308594 -0.226562 2.511719 -0.359375 C 2.71875 -0.492188 2.894531 -0.75 3.042969 -1.132812 L 3.1875 -1.132812 L 2.984375 0 L 0.0898438 0 Z "/>
</g>
<g id="glyph-0-2">
<path d="M 1.964844 -1.179688 L 1.488281 -2.335938 L 1.445312 -2.335938 L 0.992188 -1.179688 Z M 0.0898438 -0.125 C 0.210938 -0.132812 0.308594 -0.191406 0.382812 -0.289062 C 0.429688 -0.351562 0.496094 -0.492188 0.582031 -0.710938 L 1.695312 -3.445312 L 1.832031 -3.445312 L 2.949219 -0.820312 C 3.074219 -0.527344 3.167969 -0.335938 3.230469 -0.25 C 3.292969 -0.164062 3.378906 -0.125 3.492188 -0.125 L 3.492188 0 L 1.875 0 L 1.875 -0.125 C 2.039062 -0.132812 2.144531 -0.148438 2.195312 -0.167969 C 2.246094 -0.1875 2.273438 -0.242188 2.273438 -0.328125 C 2.273438 -0.367188 2.261719 -0.429688 2.234375 -0.507812 C 2.21875 -0.554688 2.195312 -0.613281 2.167969 -0.679688 L 2.039062 -0.980469 L 0.917969 -0.980469 C 0.84375 -0.78125 0.796875 -0.652344 0.777344 -0.59375 C 0.734375 -0.464844 0.710938 -0.371094 0.710938 -0.3125 C 0.710938 -0.242188 0.757812 -0.1875 0.855469 -0.15625 C 0.910156 -0.136719 0.996094 -0.128906 1.109375 -0.125 L 1.109375 0 L 0.0898438 0 Z "/>
</g>
<g id="glyph-0-3">
<path d="M 0.171875 -1.167969 L 0.316406 -1.167969 C 0.398438 -0.792969 0.53125 -0.523438 0.710938 -0.355469 C 0.894531 -0.183594 1.101562 -0.101562 1.335938 -0.101562 C 1.5625 -0.101562 1.726562 -0.160156 1.820312 -0.273438 C 1.917969 -0.390625 1.964844 -0.511719 1.964844 -0.640625 C 1.964844 -0.792969 1.914062 -0.914062 1.8125 -1.007812 C 1.746094 -1.070312 1.613281 -1.152344 1.410156 -1.25 L 1.085938 -1.410156 C 0.765625 -1.570312 0.539062 -1.726562 0.40625 -1.882812 C 0.273438 -2.039062 0.207031 -2.234375 0.207031 -2.464844 C 0.207031 -2.707031 0.296875 -2.933594 0.46875 -3.148438 C 0.644531 -3.359375 0.914062 -3.464844 1.273438 -3.464844 C 1.457031 -3.464844 1.636719 -3.4375 1.808594 -3.382812 C 1.980469 -3.328125 2.078125 -3.296875 2.101562 -3.296875 C 2.15625 -3.296875 2.195312 -3.3125 2.21875 -3.347656 C 2.238281 -3.378906 2.253906 -3.417969 2.269531 -3.472656 L 2.417969 -3.472656 L 2.417969 -2.382812 L 2.277344 -2.382812 C 2.210938 -2.636719 2.09375 -2.851562 1.925781 -3.035156 C 1.757812 -3.21875 1.550781 -3.308594 1.3125 -3.308594 C 1.140625 -3.308594 1.007812 -3.261719 0.910156 -3.171875 C 0.8125 -3.078125 0.761719 -2.964844 0.761719 -2.835938 C 0.761719 -2.675781 0.808594 -2.558594 0.902344 -2.480469 C 0.992188 -2.402344 1.195312 -2.285156 1.507812 -2.128906 L 1.882812 -1.945312 C 2.050781 -1.859375 2.1875 -1.769531 2.285156 -1.667969 C 2.46875 -1.480469 2.5625 -1.25 2.5625 -0.980469 C 2.5625 -0.726562 2.464844 -0.488281 2.265625 -0.265625 C 2.066406 -0.0429688 1.746094 0.0703125 1.304688 0.0703125 C 1.203125 0.0703125 1.101562 0.0625 1 0.0429688 C 0.898438 0.0234375 0.792969 -0.00390625 0.695312 -0.0429688 L 0.59375 -0.0820312 C 0.570312 -0.0859375 0.550781 -0.09375 0.53125 -0.0976562 C 0.507812 -0.101562 0.492188 -0.101562 0.476562 -0.101562 C 0.425781 -0.101562 0.386719 -0.0859375 0.367188 -0.0585938 C 0.347656 -0.0273438 0.332031 0.015625 0.316406 0.0703125 L 0.171875 0.0703125 Z "/>
</g>
<g id="glyph-0-4">
<path d="M 0.0898438 -0.125 C 0.222656 -0.132812 0.316406 -0.152344 0.375 -0.183594 C 0.46875 -0.234375 0.511719 -0.332031 0.511719 -0.476562 L 0.511719 -2.898438 C 0.511719 -3.039062 0.472656 -3.136719 0.386719 -3.1875 C 0.335938 -3.214844 0.238281 -3.238281 0.0898438 -3.25 L 0.0898438 -3.378906 L 1.78125 -3.378906 L 1.78125 -3.25 C 1.636719 -3.242188 1.535156 -3.222656 1.476562 -3.195312 C 1.382812 -3.140625 1.335938 -3.042969 1.335938 -2.898438 L 1.335938 -1.863281 L 2.527344 -1.863281 L 2.527344 -2.898438 C 2.527344 -3.042969 2.480469 -3.140625 2.390625 -3.191406 C 2.335938 -3.222656 2.234375 -3.242188 2.082031 -3.25 L 2.082031 -3.378906 L 3.785156 -3.378906 L 3.785156 -3.25 C 3.636719 -3.238281 3.539062 -3.21875 3.484375 -3.1875 C 3.394531 -3.136719 3.351562 -3.042969 3.351562 -2.898438 L 3.351562 -0.476562 C 3.351562 -0.332031 3.398438 -0.234375 3.5 -0.179688 C 3.554688 -0.148438 3.652344 -0.132812 3.785156 -0.125 L 3.785156 0 L 2.082031 0 L 2.082031 -0.125 C 2.226562 -0.132812 2.328125 -0.152344 2.386719 -0.1875 C 2.480469 -0.238281 2.527344 -0.335938 2.527344 -0.476562 L 2.527344 -1.632812 L 1.335938 -1.632812 L 1.335938 -0.476562 C 1.335938 -0.328125 1.386719 -0.230469 1.488281 -0.179688 C 1.546875 -0.148438 1.644531 -0.132812 1.78125 -0.125 L 1.78125 0 L 0.0898438 0 Z "/>
</g>
</g>
</defs>
<g fill="rgb(23.921569%, 22.352941%, 16.078431%)" fill-opacity="1">
<use xlink:href="#glyph-0-0" x="30" y="23.75"/>
<use xlink:href="#glyph-0-1" x="33" y="23.75"/>
<use xlink:href="#glyph-0-2" x="36" y="23.75"/>
<use xlink:href="#glyph-0-3" x="40" y="23.75"/>
<use xlink:href="#glyph-0-4" x="43" y="23.75"/>
</g>
</svg>
