<?xml version="1.0" encoding="UTF-8"?>
<svg xmlns="http://www.w3.org/2000/svg" xmlns:xlink="http://www.w3.org/1999/xlink" width="1920" height="1080" viewBox="0 0 1920 1080">
<defs>
<g>
<g id="glyph-0-0">
<path d="M 2.089844 0 L 0.183594 -5.832031 L 1.582031 -5.832031 L 3.242188 -0.667969 L 2.542969 -0.667969 L 4.273438 -5.832031 L 5.523438 -5.832031 L 7.191406 -0.667969 L 6.515625 -0.667969 L 8.214844 -5.832031 L 9.507812 -5.832031 L 7.601562 0 L 6.148438 0 L 4.675781 -4.53125 L 5.058594 -4.53125 L 3.542969 0 Z "/>
</g>
<g id="glyph-0-1">
<path d="M 0.601562 0 L 0.601562 -6.183594 L 1.898438 -6.183594 L 1.898438 -3.242188 L 1.609375 -3.617188 C 1.769531 -3.917969 2 -4.148438 2.300781 -4.308594 C 2.601562 -4.46875 2.941406 -4.550781 3.324219 -4.550781 C 3.679688 -4.550781 4 -4.480469 4.277344 -4.335938 C 4.558594 -4.195312 4.78125 -3.980469 4.941406 -3.6875 C 5.101562 -3.394531 5.183594 -3.023438 5.183594 -2.566406 L 5.183594 0 L 3.882812 0 L 3.882812 -2.367188 C 3.882812 -2.726562 3.804688 -2.996094 3.644531 -3.167969 C 3.488281 -3.339844 3.265625 -3.425781 2.976562 -3.425781 C 2.769531 -3.425781 2.585938 -3.382812 2.421875 -3.296875 C 2.257812 -3.210938 2.128906 -3.078125 2.039062 -2.898438 C 1.945312 -2.722656 1.898438 -2.496094 1.898438 -2.214844 L 1.898438 0 Z "/>
</g>
<g id="glyph-0-2">
<path d="M 1.167969 1.683594 C 0.933594 1.683594 0.703125 1.648438 0.476562 1.574219 C 0.246094 1.503906 0.0625 1.402344 -0.0820312 1.273438 L 0.390625 0.351562 C 0.492188 0.4375 0.605469 0.507812 0.738281 0.558594 C 0.867188 0.609375 0.996094 0.632812 1.125 0.632812 C 1.308594 0.632812 1.453125 0.589844 1.5625 0.503906 C 1.671875 0.417969 1.769531 0.273438 1.859375 0.0742188 L 2.089844 -0.476562 L 2.191406 -0.617188 L 3.800781 -4.484375 L 5.050781 -4.484375 L 3.023438 0.273438 C 2.878906 0.636719 2.714844 0.917969 2.527344 1.125 C 2.34375 1.332031 2.136719 1.476562 1.914062 1.558594 C 1.6875 1.640625 1.4375 1.683594 1.167969 1.683594 Z M 1.933594 0.175781 L -0.0664062 -4.484375 L 1.273438 -4.484375 L 2.824219 -0.734375 Z "/>
</g>
<g id="glyph-0-3">
<rect x="0" y="0" width="0" height="0" mask="url(#mask-0)"/>
</g>
<g id="glyph-0-4">
<path d="M 0.492188 -3.464844 L 0.410156 -5.832031 L 1.515625 -5.832031 L 1.425781 -3.464844 Z M 2.207031 -3.464844 L 2.125 -5.832031 L 3.234375 -5.832031 L 3.140625 -3.464844 Z "/>
</g>
<g id="glyph-0-5">
<path d="M -0.0742188 0 L 2.523438 -5.832031 L 3.859375 -5.832031 L 6.464844 0 L 5.050781 0 L 2.917969 -5.148438 L 3.449219 -5.148438 L 1.308594 0 Z M 1.226562 -1.25 L 1.582031 -2.273438 L 4.582031 -2.273438 L 4.949219 -1.25 Z "/>
</g>
<g id="glyph-0-6">
<path d="M 0.601562 0 L 0.601562 -6.183594 L 1.898438 -6.183594 L 1.898438 0 Z "/>
</g>
<g id="glyph-0-7">
<path d="M 3.25 0.0664062 C 2.871094 0.0664062 2.542969 -0.015625 2.257812 -0.183594 C 1.976562 -0.351562 1.753906 -0.605469 1.597656 -0.945312 C 1.4375 -1.289062 1.359375 -1.71875 1.359375 -2.242188 C 1.359375 -2.769531 1.433594 -3.203125 1.582031 -3.542969 C 1.734375 -3.882812 1.949219 -4.132812 2.234375 -4.300781 C 2.515625 -4.46875 2.855469 -4.550781 3.25 -4.550781 C 3.671875 -4.550781 4.050781 -4.453125 4.386719 -4.261719 C 4.722656 -4.070312 4.988281 -3.800781 5.1875 -3.457031 C 5.382812 -3.113281 5.484375 -2.707031 5.484375 -2.242188 C 5.484375 -1.769531 5.382812 -1.359375 5.1875 -1.015625 C 4.988281 -0.671875 4.722656 -0.40625 4.386719 -0.214844 C 4.050781 -0.0273438 3.671875 0.0664062 3.25 0.0664062 Z M 0.601562 1.617188 L 0.601562 -4.484375 L 1.839844 -4.484375 L 1.839844 -3.566406 L 1.816406 -2.234375 L 1.898438 -0.910156 L 1.898438 1.617188 Z M 3.023438 -1 C 3.242188 -1 3.433594 -1.050781 3.605469 -1.148438 C 3.773438 -1.25 3.910156 -1.394531 4.011719 -1.578125 C 4.113281 -1.765625 4.167969 -1.984375 4.167969 -2.242188 C 4.167969 -2.503906 4.113281 -2.726562 4.011719 -2.910156 C 3.910156 -3.09375 3.773438 -3.234375 3.605469 -3.332031 C 3.433594 -3.433594 3.242188 -3.484375 3.023438 -3.484375 C 2.808594 -3.484375 2.613281 -3.433594 2.441406 -3.332031 C 2.269531 -3.234375 2.132812 -3.089844 2.035156 -2.910156 C 1.933594 -2.726562 1.882812 -2.503906 1.882812 -2.242188 C 1.882812 -1.984375 1.933594 -1.765625 2.035156 -1.578125 C 2.132812 -1.394531 2.269531 -1.25 2.441406 -1.148438 C 2.613281 -1.050781 2.808594 -1 3.023438 -1 Z "/>
</g>
<g id="glyph-0-8">
<path d="M 3.351562 0 L 3.351562 -0.875 L 3.265625 -1.066406 L 3.265625 -2.632812 C 3.265625 -2.910156 3.183594 -3.128906 3.011719 -3.285156 C 2.84375 -3.4375 2.582031 -3.515625 2.234375 -3.515625 C 1.996094 -3.515625 1.757812 -3.480469 1.527344 -3.402344 C 1.296875 -3.328125 1.101562 -3.226562 0.941406 -3.101562 L 0.476562 -4.007812 C 0.71875 -4.179688 1.015625 -4.3125 1.359375 -4.40625 C 1.703125 -4.503906 2.050781 -4.550781 2.410156 -4.550781 C 3.09375 -4.550781 3.621094 -4.390625 4 -4.066406 C 4.378906 -3.746094 4.566406 -3.242188 4.566406 -2.558594 L 4.566406 0 Z M 1.984375 0.0664062 C 1.632812 0.0664062 1.332031 0.0078125 1.082031 -0.113281 C 0.832031 -0.230469 0.640625 -0.394531 0.507812 -0.601562 C 0.375 -0.804688 0.308594 -1.035156 0.308594 -1.292969 C 0.308594 -1.558594 0.375 -1.792969 0.503906 -1.992188 C 0.632812 -2.191406 0.839844 -2.347656 1.125 -2.460938 C 1.410156 -2.574219 1.777344 -2.632812 2.234375 -2.632812 L 3.425781 -2.632812 L 3.425781 -1.875 L 2.375 -1.875 C 2.070312 -1.875 1.859375 -1.824219 1.746094 -1.726562 C 1.632812 -1.625 1.574219 -1.5 1.574219 -1.351562 C 1.574219 -1.183594 1.640625 -1.050781 1.769531 -0.953125 C 1.902344 -0.855469 2.082031 -0.808594 2.308594 -0.808594 C 2.523438 -0.808594 2.71875 -0.859375 2.890625 -0.960938 C 3.0625 -1.066406 3.1875 -1.214844 3.265625 -1.417969 L 3.464844 -0.816406 C 3.371094 -0.527344 3.199219 -0.308594 2.949219 -0.160156 C 2.699219 -0.0078125 2.378906 0.0664062 1.984375 0.0664062 Z "/>
</g>
<g id="glyph-0-9">
<path d="M 0.691406 0 L 0.691406 -5.832031 L 3.183594 -5.832031 C 3.996094 -5.832031 4.625 -5.644531 5.074219 -5.269531 C 5.523438 -4.894531 5.75 -4.378906 5.75 -3.714844 C 5.75 -3.28125 5.648438 -2.910156 5.441406 -2.597656 C 5.234375 -2.28125 4.945312 -2.042969 4.566406 -1.875 C 4.1875 -1.707031 3.738281 -1.625 3.214844 -1.625 L 1.441406 -1.625 L 2.042969 -2.214844 L 2.042969 0 Z M 4.398438 0 L 2.941406 -2.117188 L 4.382812 -2.117188 L 5.859375 0 Z M 2.042969 -2.066406 L 1.441406 -2.699219 L 3.140625 -2.699219 C 3.558594 -2.699219 3.871094 -2.789062 4.074219 -2.972656 C 4.28125 -3.152344 4.382812 -3.398438 4.382812 -3.714844 C 4.382812 -4.039062 4.28125 -4.289062 4.074219 -4.464844 C 3.867188 -4.644531 3.558594 -4.734375 3.140625 -4.734375 L 1.441406 -4.734375 L 2.042969 -5.375 Z "/>
</g>
<g id="glyph-0-10">
<path d="M 2.523438 0.0664062 C 2.101562 0.0664062 1.722656 -0.0273438 1.382812 -0.222656 C 1.042969 -0.414062 0.777344 -0.679688 0.578125 -1.023438 C 0.382812 -1.367188 0.285156 -1.773438 0.285156 -2.242188 C 0.285156 -2.714844 0.382812 -3.121094 0.578125 -3.464844 C 0.777344 -3.808594 1.042969 -4.078125 1.382812 -4.265625 C 1.722656 -4.457031 2.101562 -4.550781 2.523438 -4.550781 C 2.902344 -4.550781 3.234375 -4.464844 3.515625 -4.300781 C 3.800781 -4.132812 4.019531 -3.878906 4.175781 -3.542969 C 4.332031 -3.203125 4.40625 -2.769531 4.40625 -2.242188 C 4.40625 -1.71875 4.332031 -1.289062 4.183594 -0.945312 C 4.035156 -0.605469 3.816406 -0.351562 3.539062 -0.183594 C 3.257812 -0.015625 2.917969 0.0664062 2.523438 0.0664062 Z M 2.75 -1 C 2.960938 -1 3.152344 -1.050781 3.324219 -1.148438 C 3.496094 -1.25 3.632812 -1.394531 3.738281 -1.578125 C 3.839844 -1.765625 3.890625 -1.984375 3.890625 -2.242188 C 3.890625 -2.503906 3.839844 -2.726562 3.738281 -2.910156 C 3.636719 -3.09375 3.496094 -3.234375 3.324219 -3.332031 C 3.152344 -3.433594 2.960938 -3.484375 2.75 -3.484375 C 2.535156 -3.484375 2.339844 -3.433594 2.167969 -3.332031 C 1.996094 -3.234375 1.855469 -3.089844 1.753906 -2.910156 C 1.652344 -2.726562 1.601562 -2.503906 1.601562 -2.242188 C 1.601562 -1.984375 1.652344 -1.765625 1.753906 -1.578125 C 1.855469 -1.394531 1.996094 -1.25 2.167969 -1.148438 C 2.339844 -1.050781 2.535156 -1 2.75 -1 Z M 3.925781 0 L 3.925781 -0.917969 L 3.949219 -2.25 L 3.867188 -3.574219 L 3.867188 -6.183594 L 5.167969 -6.183594 L 5.167969 0 Z "/>
</g>
<g id="glyph-0-11">
<path d="M 0.601562 0 L 0.601562 -4.484375 L 1.898438 -4.484375 L 1.898438 0 Z M 1.25 -5.109375 C 1.011719 -5.109375 0.816406 -5.175781 0.667969 -5.316406 C 0.515625 -5.457031 0.441406 -5.628906 0.441406 -5.832031 C 0.441406 -6.039062 0.515625 -6.210938 0.667969 -6.351562 C 0.816406 -6.488281 1.011719 -6.558594 1.25 -6.558594 C 1.488281 -6.558594 1.683594 -6.492188 1.832031 -6.363281 C 1.984375 -6.230469 2.058594 -6.0625 2.058594 -5.859375 C 2.058594 -5.640625 1.984375 -5.460938 1.835938 -5.320312 C 1.691406 -5.179688 1.496094 -5.109375 1.25 -5.109375 Z "/>
</g>
<g id="glyph-0-12">
<path d="M 2.433594 0.0664062 C 1.90625 0.0664062 1.496094 -0.0664062 1.199219 -0.335938 C 0.90625 -0.605469 0.757812 -1.007812 0.757812 -1.542969 L 0.757812 -5.476562 L 2.058594 -5.476562 L 2.058594 -1.558594 C 2.058594 -1.371094 2.109375 -1.222656 2.207031 -1.121094 C 2.308594 -1.019531 2.445312 -0.964844 2.617188 -0.964844 C 2.824219 -0.964844 2.996094 -1.023438 3.140625 -1.132812 L 3.492188 -0.214844 C 3.359375 -0.121094 3.199219 -0.0507812 3.011719 -0.00390625 C 2.824219 0.0429688 2.632812 0.0664062 2.433594 0.0664062 Z M 0.0664062 -3.484375 L 0.0664062 -4.484375 L 3.175781 -4.484375 L 3.175781 -3.484375 Z "/>
</g>
<g id="glyph-0-13">
<path d="M 2.734375 0.0664062 C 2.253906 0.0664062 1.832031 -0.0351562 1.460938 -0.234375 C 1.09375 -0.433594 0.800781 -0.707031 0.585938 -1.054688 C 0.375 -1.402344 0.265625 -1.796875 0.265625 -2.242188 C 0.265625 -2.691406 0.375 -3.089844 0.585938 -3.4375 C 0.800781 -3.785156 1.09375 -4.058594 1.460938 -4.253906 C 1.832031 -4.453125 2.253906 -4.550781 2.734375 -4.550781 C 3.207031 -4.550781 3.628906 -4.453125 4 -4.253906 C 4.371094 -4.058594 4.664062 -3.785156 4.875 -3.441406 C 5.085938 -3.097656 5.191406 -2.695312 5.191406 -2.242188 C 5.191406 -1.796875 5.085938 -1.402344 4.875 -1.054688 C 4.664062 -0.707031 4.371094 -0.433594 4 -0.234375 C 3.628906 -0.0351562 3.207031 0.0664062 2.734375 0.0664062 Z M 2.734375 -1 C 2.949219 -1 3.144531 -1.050781 3.316406 -1.148438 C 3.488281 -1.25 3.625 -1.394531 3.726562 -1.578125 C 3.824219 -1.765625 3.875 -1.984375 3.875 -2.242188 C 3.875 -2.503906 3.824219 -2.726562 3.726562 -2.910156 C 3.625 -3.09375 3.488281 -3.234375 3.316406 -3.332031 C 3.144531 -3.433594 2.949219 -3.484375 2.734375 -3.484375 C 2.515625 -3.484375 2.320312 -3.433594 2.148438 -3.332031 C 1.976562 -3.234375 1.839844 -3.089844 1.738281 -2.910156 C 1.636719 -2.726562 1.582031 -2.503906 1.582031 -2.242188 C 1.582031 -1.984375 1.632812 -1.765625 1.738281 -1.578125 C 1.839844 -1.394531 1.976562 -1.25 2.148438 -1.148438 C 2.320312 -1.050781 2.515625 -1 2.734375 -1 Z "/>
</g>
<g id="glyph-0-14">
<path d="M 0.601562 0 L 0.601562 -4.484375 L 1.839844 -4.484375 L 1.839844 -3.242188 L 1.609375 -3.617188 C 1.769531 -3.917969 2 -4.148438 2.300781 -4.308594 C 2.601562 -4.46875 2.941406 -4.550781 3.324219 -4.550781 C 3.679688 -4.550781 4 -4.480469 4.277344 -4.335938 C 4.558594 -4.195312 4.78125 -3.980469 4.941406 -3.6875 C 5.101562 -3.394531 5.183594 -3.023438 5.183594 -2.566406 L 5.183594 0 L 3.882812 0 L 3.882812 -2.367188 C 3.882812 -2.726562 3.804688 -2.996094 3.644531 -3.167969 C 3.488281 -3.339844 3.265625 -3.425781 2.976562 -3.425781 C 2.769531 -3.425781 2.585938 -3.382812 2.421875 -3.296875 C 2.257812 -3.210938 2.128906 -3.078125 2.039062 -2.898438 C 1.945312 -2.722656 1.898438 -2.496094 1.898438 -2.214844 L 1.898438 0 Z "/>
</g>
<g id="glyph-0-15">
<path d="M 0.691406 0 L 0.691406 -5.832031 L 2.042969 -5.832031 L 2.042969 0 Z "/>
</g>
<g id="glyph-0-16">
<path d="M 2.109375 0.0664062 C 1.726562 0.0664062 1.355469 0.0195312 1.003906 -0.0703125 C 0.652344 -0.164062 0.371094 -0.277344 0.167969 -0.417969 L 0.601562 -1.351562 C 0.804688 -1.222656 1.046875 -1.117188 1.328125 -1.039062 C 1.609375 -0.957031 1.886719 -0.917969 2.160156 -0.917969 C 2.457031 -0.917969 2.671875 -0.953125 2.796875 -1.023438 C 2.921875 -1.097656 2.984375 -1.195312 2.984375 -1.324219 C 2.984375 -1.429688 2.933594 -1.507812 2.835938 -1.5625 C 2.738281 -1.617188 2.609375 -1.65625 2.449219 -1.683594 C 2.289062 -1.710938 2.113281 -1.738281 1.921875 -1.765625 C 1.730469 -1.792969 1.535156 -1.832031 1.339844 -1.878906 C 1.148438 -1.925781 0.96875 -1.996094 0.808594 -2.089844 C 0.648438 -2.183594 0.519531 -2.3125 0.421875 -2.476562 C 0.324219 -2.636719 0.273438 -2.84375 0.273438 -3.101562 C 0.273438 -3.382812 0.355469 -3.632812 0.519531 -3.851562 C 0.683594 -4.066406 0.921875 -4.238281 1.234375 -4.363281 C 1.542969 -4.488281 1.917969 -4.550781 2.351562 -4.550781 C 2.65625 -4.550781 2.964844 -4.515625 3.285156 -4.449219 C 3.601562 -4.382812 3.863281 -4.285156 4.074219 -4.15625 L 3.640625 -3.234375 C 3.425781 -3.363281 3.207031 -3.449219 2.988281 -3.496094 C 2.769531 -3.542969 2.554688 -3.566406 2.351562 -3.566406 C 2.0625 -3.566406 1.851562 -3.527344 1.714844 -3.449219 C 1.582031 -3.371094 1.515625 -3.273438 1.515625 -3.148438 C 1.515625 -3.039062 1.566406 -2.957031 1.664062 -2.898438 C 1.761719 -2.84375 1.890625 -2.800781 2.050781 -2.765625 C 2.210938 -2.734375 2.386719 -2.703125 2.578125 -2.679688 C 2.769531 -2.652344 2.964844 -2.617188 3.160156 -2.566406 C 3.351562 -2.515625 3.527344 -2.445312 3.6875 -2.355469 C 3.847656 -2.261719 3.976562 -2.136719 4.074219 -1.980469 C 4.175781 -1.820312 4.226562 -1.613281 4.226562 -1.359375 C 4.226562 -1.082031 4.140625 -0.835938 3.976562 -0.621094 C 3.808594 -0.40625 3.566406 -0.238281 3.253906 -0.117188 C 2.941406 0.00390625 2.558594 0.0664062 2.109375 0.0664062 Z "/>
</g>
<g id="glyph-0-17">
<path d="M 2.609375 0.101562 C 2.140625 0.101562 1.695312 0.0390625 1.265625 -0.0859375 C 0.839844 -0.210938 0.496094 -0.375 0.234375 -0.574219 L 0.691406 -1.589844 C 0.941406 -1.414062 1.238281 -1.269531 1.578125 -1.152344 C 1.921875 -1.039062 2.265625 -0.984375 2.617188 -0.984375 C 2.882812 -0.984375 3.097656 -1.007812 3.261719 -1.0625 C 3.425781 -1.117188 3.546875 -1.1875 3.625 -1.285156 C 3.703125 -1.378906 3.742188 -1.484375 3.742188 -1.609375 C 3.742188 -1.765625 3.679688 -1.886719 3.558594 -1.980469 C 3.4375 -2.070312 3.273438 -2.144531 3.074219 -2.203125 C 2.875 -2.261719 2.652344 -2.316406 2.414062 -2.371094 C 2.171875 -2.421875 1.929688 -2.488281 1.6875 -2.566406 C 1.445312 -2.644531 1.226562 -2.746094 1.023438 -2.867188 C 0.824219 -2.988281 0.664062 -3.148438 0.539062 -3.351562 C 0.414062 -3.550781 0.351562 -3.804688 0.351562 -4.117188 C 0.351562 -4.449219 0.441406 -4.753906 0.621094 -5.027344 C 0.800781 -5.304688 1.074219 -5.523438 1.4375 -5.6875 C 1.800781 -5.851562 2.257812 -5.933594 2.808594 -5.933594 C 3.175781 -5.933594 3.535156 -5.890625 3.890625 -5.804688 C 4.246094 -5.71875 4.5625 -5.589844 4.832031 -5.417969 L 4.417969 -4.390625 C 4.144531 -4.546875 3.871094 -4.664062 3.601562 -4.738281 C 3.328125 -4.8125 3.0625 -4.851562 2.800781 -4.851562 C 2.539062 -4.851562 2.324219 -4.820312 2.160156 -4.757812 C 1.992188 -4.695312 1.871094 -4.617188 1.800781 -4.519531 C 1.726562 -4.421875 1.691406 -4.3125 1.691406 -4.183594 C 1.691406 -4.035156 1.753906 -3.914062 1.875 -3.820312 C 1.996094 -3.730469 2.160156 -3.65625 2.359375 -3.601562 C 2.558594 -3.542969 2.777344 -3.488281 3.019531 -3.433594 C 3.261719 -3.378906 3.503906 -3.3125 3.746094 -3.242188 C 3.988281 -3.167969 4.207031 -3.070312 4.40625 -2.949219 C 4.609375 -2.828125 4.769531 -2.667969 4.894531 -2.464844 C 5.019531 -2.265625 5.082031 -2.015625 5.082031 -1.707031 C 5.082031 -1.378906 4.992188 -1.082031 4.808594 -0.808594 C 4.625 -0.535156 4.351562 -0.316406 3.988281 -0.148438 C 3.625 0.015625 3.164062 0.101562 2.609375 0.101562 Z "/>
</g>
<g id="glyph-0-18">
<path d="M 0.601562 0 L 0.601562 -4.484375 L 1.839844 -4.484375 L 1.839844 -3.214844 L 1.667969 -3.582031 C 1.800781 -3.898438 2.015625 -4.140625 2.308594 -4.304688 C 2.601562 -4.46875 2.960938 -4.550781 3.382812 -4.550781 L 3.382812 -3.351562 C 3.328125 -3.355469 3.277344 -3.359375 3.234375 -3.363281 C 3.1875 -3.367188 3.140625 -3.367188 3.089844 -3.367188 C 2.734375 -3.367188 2.449219 -3.265625 2.230469 -3.0625 C 2.011719 -2.859375 1.898438 -2.542969 1.898438 -2.117188 L 1.898438 0 Z "/>
</g>
<g id="glyph-0-19">
<path d="M 2.707031 1.683594 C 2.285156 1.683594 1.878906 1.632812 1.488281 1.527344 C 1.097656 1.425781 0.769531 1.273438 0.507812 1.066406 L 1.023438 0.132812 C 1.214844 0.289062 1.453125 0.414062 1.746094 0.503906 C 2.039062 0.597656 2.324219 0.640625 2.609375 0.640625 C 3.070312 0.640625 3.402344 0.539062 3.613281 0.332031 C 3.820312 0.128906 3.925781 -0.179688 3.925781 -0.582031 L 3.925781 -1.257812 L 4.007812 -2.382812 L 3.992188 -3.515625 L 3.992188 -4.484375 L 5.226562 -4.484375 L 5.226562 -0.75 C 5.226562 0.0820312 5.007812 0.695312 4.574219 1.089844 C 4.140625 1.484375 3.519531 1.683594 2.707031 1.683594 Z M 2.507812 -0.214844 C 2.089844 -0.214844 1.714844 -0.308594 1.378906 -0.488281 C 1.042969 -0.667969 0.773438 -0.921875 0.570312 -1.246094 C 0.367188 -1.570312 0.265625 -1.949219 0.265625 -2.382812 C 0.265625 -2.820312 0.367188 -3.203125 0.570312 -3.527344 C 0.773438 -3.851562 1.042969 -4.105469 1.378906 -4.28125 C 1.714844 -4.460938 2.089844 -4.550781 2.507812 -4.550781 C 2.886719 -4.550781 3.21875 -4.472656 3.507812 -4.320312 C 3.796875 -4.167969 4.023438 -3.933594 4.183594 -3.613281 C 4.34375 -3.292969 4.425781 -2.882812 4.425781 -2.382812 C 4.425781 -1.890625 4.34375 -1.480469 4.183594 -1.164062 C 4.023438 -0.84375 3.796875 -0.605469 3.507812 -0.449219 C 3.21875 -0.292969 2.886719 -0.214844 2.507812 -0.214844 Z M 2.765625 -1.285156 C 2.992188 -1.285156 3.195312 -1.328125 3.375 -1.421875 C 3.550781 -1.511719 3.691406 -1.640625 3.792969 -1.808594 C 3.890625 -1.976562 3.941406 -2.167969 3.941406 -2.382812 C 3.941406 -2.605469 3.890625 -2.796875 3.792969 -2.960938 C 3.691406 -3.125 3.550781 -3.253906 3.375 -3.34375 C 3.195312 -3.4375 2.996094 -3.484375 2.765625 -3.484375 C 2.539062 -3.484375 2.335938 -3.4375 2.160156 -3.34375 C 1.980469 -3.253906 1.839844 -3.125 1.738281 -2.960938 C 1.636719 -2.796875 1.582031 -2.605469 1.582031 -2.382812 C 1.582031 -2.167969 1.632812 -1.976562 1.738281 -1.808594 C 1.839844 -1.640625 1.980469 -1.511719 2.160156 -1.421875 C 2.335938 -1.328125 2.539062 -1.285156 2.765625 -1.285156 Z "/>
</g>
<g id="glyph-0-20">
<path d="M 2.824219 0.0664062 C 2.3125 0.0664062 1.863281 -0.0351562 1.480469 -0.234375 C 1.09375 -0.433594 0.792969 -0.707031 0.582031 -1.054688 C 0.371094 -1.402344 0.265625 -1.796875 0.265625 -2.242188 C 0.265625 -2.691406 0.371094 -3.089844 0.578125 -3.4375 C 0.789062 -3.785156 1.070312 -4.058594 1.433594 -4.253906 C 1.792969 -4.453125 2.203125 -4.550781 2.660156 -4.550781 C 3.097656 -4.550781 3.492188 -4.457031 3.84375 -4.269531 C 4.199219 -4.085938 4.476562 -3.816406 4.683594 -3.46875 C 4.890625 -3.121094 4.992188 -2.707031 4.992188 -2.226562 C 4.992188 -2.175781 4.988281 -2.117188 4.984375 -2.054688 C 4.976562 -1.992188 4.972656 -1.929688 4.964844 -1.875 L 1.324219 -1.875 L 1.324219 -2.632812 L 4.28125 -2.632812 L 3.78125 -2.410156 C 3.78125 -2.640625 3.734375 -2.84375 3.640625 -3.015625 C 3.546875 -3.1875 3.417969 -3.324219 3.25 -3.421875 C 3.082031 -3.519531 2.890625 -3.566406 2.667969 -3.566406 C 2.445312 -3.566406 2.25 -3.519531 2.078125 -3.421875 C 1.910156 -3.324219 1.777344 -3.1875 1.683594 -3.011719 C 1.589844 -2.835938 1.542969 -2.628906 1.542969 -2.390625 L 1.542969 -2.191406 C 1.542969 -1.945312 1.597656 -1.730469 1.703125 -1.546875 C 1.8125 -1.359375 1.964844 -1.21875 2.164062 -1.121094 C 2.359375 -1.023438 2.589844 -0.976562 2.859375 -0.976562 C 3.097656 -0.976562 3.308594 -1.011719 3.488281 -1.082031 C 3.667969 -1.15625 3.832031 -1.265625 3.984375 -1.410156 L 4.675781 -0.660156 C 4.46875 -0.425781 4.210938 -0.246094 3.898438 -0.121094 C 3.589844 0.00390625 3.230469 0.0664062 2.824219 0.0664062 Z "/>
</g>
</g>
<image id="source-28" x="0" y="0" width="0" height="0"/>
<mask id="mask-0">
<use xlink:href="#source-28"/>
</mask>
</defs>
<g fill="rgb(18.431373%, 16.470588%, 14.901961%)" fill-opacity="1">
<use xlink:href="#glyph-0-0" x="30" y="28.066406"/>
<use xlink:href="#glyph-0-1" x="40" y="28.066406"/>
<use xlink:href="#glyph-0-2" x="46" y="28.066406"/>
<use xlink:href="#glyph-0-3" x="51" y="28.066406"/>
<use xlink:href="#glyph-0-4" x="53" y="28.066406"/>
<use xlink:href="#glyph-0-5" x="56" y="28.066406"/>
<use xlink:href="#glyph-0-6" x="62" y="28.066406"/>
<use xlink:href="#glyph-0-7" x="65" y="28.066406"/>
<use xlink:href="#glyph-0-1" x="71" y="28.066406"/>
<use xlink:href="#glyph-0-8" x="77" y="28.066406"/>
<use xlink:href="#glyph-0-3" x="82" y="28.066406"/>
<use xlink:href="#glyph-0-9" x="84" y="28.066406"/>
<use xlink:href="#glyph-0-8" x="90" y="28.066406"/>
<use xlink:href="#glyph-0-10" x="95" y="28.066406"/>
<use xlink:href="#glyph-0-11" x="101" y="28.066406"/>
<use xlink:href="#glyph-0-8" x="104" y="28.066406"/>
<use xlink:href="#glyph-0-12" x="109" y="28.066406"/>
<use xlink:href="#glyph-0-11" x="113" y="28.066406"/>
<use xlink:href="#glyph-0-13" x="116" y="28.066406"/>
<use xlink:href="#glyph-0-14" x="121" y="28.066406"/>
<use xlink:href="#glyph-0-3" x="127" y="28.066406"/>
<use xlink:href="#glyph-0-15" x="129" y="28.066406"/>
<use xlink:href="#glyph-0-16" x="132" y="28.066406"/>
<use xlink:href="#glyph-0-3" x="136" y="28.066406"/>
<use xlink:href="#glyph-0-17" x="138" y="28.066406"/>
<use xlink:href="#glyph-0-12" x="143" y="28.066406"/>
<use xlink:href="#glyph-0-18" x="147" y="28.066406"/>
<use xlink:href="#glyph-0-13" x="151" y="28.066406"/>
<use xlink:href="#glyph-0-14" x="156" y="28.066406"/>
<use xlink:href="#glyph-0-19" x="162" y="28.066406"/>
<use xlink:href="#glyph-0-20" x="168" y="28.066406"/>
<use xlink:href="#glyph-0-18" x="173" y="28.066406"/>
<use xlink:href="#glyph-0-4" x="177" y="28.066406"/>
</g>
</svg>
