<?xml version="1.0" encoding="UTF-8"?>
<svg xmlns="http://www.w3.org/2000/svg" xmlns:xlink="http://www.w3.org/1999/xlink" width="1920" height="1080" viewBox="0 0 1920 1080">
<defs>
<g>
<g id="glyph-0-0">
<path d="M 3.203125 0 L 3.203125 -3.695312 L 3.730469 -3.695312 L 3.730469 0 Z M 0.554688 0 L 0.554688 -3.695312 L 1.082031 -3.695312 L 1.082031 0 Z M 1.027344 -1.648438 L 1.027344 -2.105469 L 3.25 -2.105469 L 3.25 -1.648438 Z "/>
</g>
<g id="glyph-0-1">
<path d="M 0.554688 0 L 0.554688 -3.695312 L 1.082031 -3.695312 L 1.082031 0 Z "/>
</g>
<g id="glyph-0-2">
<path d="M 1.289062 0 L 1.289062 -3.234375 L 0.0195312 -3.234375 L 0.0195312 -3.695312 L 3.078125 -3.695312 L 3.078125 -3.234375 L 1.808594 -3.234375 L 1.808594 0 Z "/>
</g>
<g id="glyph-0-3">
<rect x="0" y="0" width="0" height="0" mask="url(#mask-0)"/>
</g>
<g id="glyph-0-4">
<path d="M 0.875 0 L 0.875 -3.484375 L 1.101562 -3.234375 L 0.0429688 -3.234375 L 0.0429688 -3.695312 L 1.398438 -3.695312 L 1.398438 0 Z "/>
</g>
</g>
<image id="source-50" x="0" y="0" width="0" height="0"/>
<mask id="mask-0">
<use xlink:href="#source-50"/>
</mask>
</defs>
<g fill="rgb(100%, 100%, 100%)" fill-opacity="1">
<use xlink:href="#glyph-0-0" x="30" y="25.108398"/>
<use xlink:href="#glyph-0-1" x="34" y="25.108398"/>
<use xlink:href="#glyph-0-2" x="36" y="25.108398"/>
<use xlink:href="#glyph-0-3" x="39" y="25.108398"/>
<use xlink:href="#glyph-0-4" x="40" y="25.108398"/>
</g>
</svg>
