<?xml version="1.0" encoding="UTF-8"?>
<svg xmlns="http://www.w3.org/2000/svg" xmlns:xlink="http://www.w3.org/1999/xlink" width="1080" height="1920" viewBox="0 0 1080 1920">
<defs>
<g>
<g id="glyph-0-0">
<path d="M 1.476562 0.0664062 C 1.207031 0.0664062 0.9375 0.03125 0.671875 -0.0429688 C 0.40625 -0.113281 0.179688 -0.214844 -0.00390625 -0.351562 L 0.34375 -1.039062 C 0.492188 -0.929688 0.664062 -0.847656 0.859375 -0.785156 C 1.058594 -0.722656 1.253906 -0.6875 1.457031 -0.6875 C 1.683594 -0.6875 1.859375 -0.734375 1.988281 -0.820312 C 2.117188 -0.910156 2.183594 -1.035156 2.183594 -1.1875 C 2.183594 -1.335938 2.125 -1.453125 2.011719 -1.539062 C 1.898438 -1.625 1.710938 -1.667969 1.457031 -1.667969 L 1.042969 -1.667969 L 1.042969 -2.261719 L 2.128906 -3.488281 L 2.226562 -3.167969 L 0.1875 -3.167969 L 0.1875 -3.890625 L 2.910156 -3.890625 L 2.910156 -3.304688 L 1.832031 -2.078125 L 1.378906 -2.339844 L 1.640625 -2.339844 C 2.117188 -2.339844 2.476562 -2.230469 2.722656 -2.015625 C 2.96875 -1.800781 3.089844 -1.527344 3.089844 -1.1875 C 3.089844 -0.96875 3.03125 -0.765625 2.917969 -0.574219 C 2.800781 -0.382812 2.625 -0.230469 2.390625 -0.109375 C 2.152344 0.0078125 1.847656 0.0664062 1.476562 0.0664062 Z "/>
</g>
<g id="glyph-0-1">
<path d="M 1.882812 0.0664062 C 1.566406 0.0664062 1.28125 -0.0117188 1.027344 -0.167969 C 0.777344 -0.328125 0.578125 -0.554688 0.433594 -0.855469 C 0.289062 -1.15625 0.214844 -1.519531 0.214844 -1.945312 C 0.214844 -2.371094 0.289062 -2.734375 0.433594 -3.035156 C 0.578125 -3.335938 0.777344 -3.5625 1.027344 -3.71875 C 1.28125 -3.875 1.566406 -3.957031 1.882812 -3.957031 C 2.207031 -3.957031 2.492188 -3.875 2.742188 -3.71875 C 2.992188 -3.5625 3.1875 -3.332031 3.332031 -3.035156 C 3.476562 -2.734375 3.550781 -2.371094 3.550781 -1.945312 C 3.550781 -1.519531 3.476562 -1.15625 3.332031 -0.855469 C 3.1875 -0.554688 2.992188 -0.328125 2.742188 -0.167969 C 2.492188 -0.0117188 2.207031 0.0664062 1.882812 0.0664062 Z M 1.882812 -0.695312 C 2.035156 -0.695312 2.167969 -0.738281 2.28125 -0.820312 C 2.394531 -0.90625 2.484375 -1.042969 2.546875 -1.226562 C 2.613281 -1.414062 2.644531 -1.652344 2.644531 -1.945312 C 2.644531 -2.238281 2.613281 -2.476562 2.546875 -2.660156 C 2.480469 -2.847656 2.394531 -2.980469 2.28125 -3.066406 C 2.167969 -3.152344 2.035156 -3.195312 1.882812 -3.195312 C 1.734375 -3.195312 1.605469 -3.152344 1.492188 -3.066406 C 1.378906 -2.980469 1.289062 -2.847656 1.226562 -2.660156 C 1.160156 -2.476562 1.128906 -2.238281 1.128906 -1.945312 C 1.128906 -1.652344 1.160156 -1.414062 1.226562 -1.226562 C 1.289062 -1.042969 1.378906 -0.90625 1.492188 -0.820312 C 1.605469 -0.738281 1.734375 -0.695312 1.882812 -0.695312 Z "/>
</g>
<g id="glyph-0-2">
<rect x="0" y="0" width="0" height="0" mask="url(#mask-0)"/>
</g>
<g id="glyph-0-3">
<path d="M 0.398438 0 L 0.398438 -2.988281 L 1.226562 -2.988281 L 1.226562 -2.171875 L 1.070312 -2.410156 C 1.175781 -2.613281 1.324219 -2.769531 1.515625 -2.875 C 1.707031 -2.980469 1.921875 -3.035156 2.167969 -3.035156 C 2.441406 -3.035156 2.679688 -2.964844 2.886719 -2.824219 C 3.09375 -2.6875 3.226562 -2.472656 3.292969 -2.1875 L 2.988281 -2.273438 C 3.089844 -2.507812 3.25 -2.691406 3.46875 -2.828125 C 3.691406 -2.964844 3.941406 -3.035156 4.226562 -3.035156 C 4.464844 -3.035156 4.675781 -2.984375 4.859375 -2.890625 C 5.042969 -2.796875 5.1875 -2.652344 5.292969 -2.457031 C 5.398438 -2.261719 5.449219 -2.015625 5.449219 -1.710938 L 5.449219 0 L 4.582031 0 L 4.582031 -1.578125 C 4.582031 -1.820312 4.535156 -1.996094 4.433594 -2.109375 C 4.332031 -2.226562 4.191406 -2.285156 4.011719 -2.285156 C 3.886719 -2.285156 3.773438 -2.253906 3.671875 -2.195312 C 3.570312 -2.140625 3.496094 -2.054688 3.4375 -1.9375 C 3.382812 -1.824219 3.355469 -1.679688 3.355469 -1.5 L 3.355469 0 L 2.488281 0 L 2.488281 -1.578125 C 2.488281 -1.820312 2.441406 -1.996094 2.339844 -2.109375 C 2.242188 -2.226562 2.105469 -2.285156 1.921875 -2.285156 C 1.796875 -2.285156 1.683594 -2.253906 1.582031 -2.195312 C 1.484375 -2.140625 1.40625 -2.054688 1.351562 -1.9375 C 1.296875 -1.824219 1.265625 -1.679688 1.265625 -1.5 L 1.265625 0 Z "/>
</g>
<g id="glyph-0-4">
<path d="M 0.398438 0 L 0.398438 -2.988281 L 1.265625 -2.988281 L 1.265625 0 Z M 0.832031 -3.40625 C 0.671875 -3.40625 0.542969 -3.453125 0.445312 -3.542969 C 0.34375 -3.636719 0.292969 -3.75 0.292969 -3.890625 C 0.292969 -4.027344 0.34375 -4.140625 0.445312 -4.234375 C 0.542969 -4.328125 0.675781 -4.371094 0.832031 -4.371094 C 0.992188 -4.371094 1.121094 -4.328125 1.222656 -4.242188 C 1.324219 -4.15625 1.371094 -4.042969 1.371094 -3.90625 C 1.371094 -3.761719 1.324219 -3.640625 1.226562 -3.546875 C 1.128906 -3.453125 0.996094 -3.40625 0.832031 -3.40625 Z "/>
</g>
<g id="glyph-0-5">
<path d="M 0.398438 0 L 0.398438 -2.988281 L 1.226562 -2.988281 L 1.226562 -2.160156 L 1.070312 -2.410156 C 1.179688 -2.609375 1.332031 -2.765625 1.535156 -2.871094 C 1.734375 -2.980469 1.960938 -3.035156 2.214844 -3.035156 C 2.453125 -3.035156 2.664062 -2.984375 2.851562 -2.890625 C 3.039062 -2.796875 3.1875 -2.652344 3.292969 -2.457031 C 3.402344 -2.261719 3.457031 -2.015625 3.457031 -1.710938 L 3.457031 0 L 2.589844 0 L 2.589844 -1.578125 C 2.589844 -1.820312 2.535156 -1.996094 2.429688 -2.109375 C 2.324219 -2.226562 2.175781 -2.285156 1.984375 -2.285156 C 1.847656 -2.285156 1.722656 -2.253906 1.613281 -2.195312 C 1.503906 -2.140625 1.417969 -2.050781 1.359375 -1.933594 C 1.296875 -1.816406 1.265625 -1.664062 1.265625 -1.476562 L 1.265625 0 Z "/>
</g>
<g id="glyph-0-6">
<path d="M 2.351562 0.0664062 C 2.042969 0.0664062 1.757812 0.015625 1.496094 -0.0820312 C 1.234375 -0.183594 1.011719 -0.324219 0.820312 -0.503906 C 0.628906 -0.6875 0.480469 -0.898438 0.375 -1.144531 C 0.269531 -1.390625 0.214844 -1.65625 0.214844 -1.945312 C 0.214844 -2.234375 0.269531 -2.5 0.375 -2.746094 C 0.480469 -2.988281 0.628906 -3.203125 0.820312 -3.382812 C 1.015625 -3.566406 1.242188 -3.707031 1.5 -3.804688 C 1.757812 -3.90625 2.039062 -3.957031 2.34375 -3.957031 C 2.652344 -3.957031 2.933594 -3.90625 3.191406 -3.804688 C 3.449219 -3.707031 3.671875 -3.566406 3.863281 -3.382812 C 4.054688 -3.203125 4.203125 -2.988281 4.3125 -2.746094 C 4.417969 -2.503906 4.472656 -2.238281 4.472656 -1.945312 C 4.472656 -1.65625 4.417969 -1.386719 4.3125 -1.140625 C 4.203125 -0.894531 4.054688 -0.683594 3.863281 -0.503906 C 3.671875 -0.324219 3.449219 -0.183594 3.191406 -0.0820312 C 2.933594 0.015625 2.652344 0.0664062 2.351562 0.0664062 Z M 2.34375 -0.699219 C 2.519531 -0.699219 2.679688 -0.730469 2.824219 -0.789062 C 2.972656 -0.847656 3.101562 -0.933594 3.210938 -1.042969 C 3.320312 -1.15625 3.410156 -1.285156 3.46875 -1.4375 C 3.53125 -1.589844 3.5625 -1.757812 3.5625 -1.945312 C 3.5625 -2.128906 3.53125 -2.296875 3.46875 -2.449219 C 3.40625 -2.601562 3.324219 -2.734375 3.214844 -2.84375 C 3.105469 -2.957031 2.976562 -3.039062 2.828125 -3.101562 C 2.679688 -3.160156 2.519531 -3.1875 2.34375 -3.1875 C 2.171875 -3.1875 2.011719 -3.160156 1.863281 -3.101562 C 1.71875 -3.042969 1.589844 -2.957031 1.476562 -2.84375 C 1.367188 -2.734375 1.28125 -2.601562 1.21875 -2.449219 C 1.15625 -2.296875 1.128906 -2.128906 1.128906 -1.945312 C 1.128906 -1.761719 1.160156 -1.59375 1.21875 -1.441406 C 1.28125 -1.289062 1.367188 -1.15625 1.476562 -1.042969 C 1.585938 -0.933594 1.714844 -0.847656 1.859375 -0.789062 C 2.007812 -0.730469 2.171875 -0.699219 2.34375 -0.699219 Z "/>
</g>
<g id="glyph-0-7">
<path d="M 0.460938 0 L 0.460938 -3.890625 L 1.207031 -3.890625 L 3.5 -1.089844 L 3.140625 -1.089844 L 3.140625 -3.890625 L 4.027344 -3.890625 L 4.027344 0 L 3.289062 0 L 0.988281 -2.800781 L 1.351562 -2.800781 L 1.351562 0 Z "/>
</g>
<g id="glyph-0-8">
<path d="M 2.324219 0.0664062 C 2.023438 0.0664062 1.742188 0.0195312 1.484375 -0.0820312 C 1.226562 -0.179688 1.003906 -0.320312 0.816406 -0.5 C 0.628906 -0.679688 0.480469 -0.894531 0.375 -1.140625 C 0.269531 -1.382812 0.214844 -1.652344 0.214844 -1.945312 C 0.214844 -2.238281 0.269531 -2.503906 0.375 -2.75 C 0.480469 -2.996094 0.628906 -3.207031 0.820312 -3.390625 C 1.011719 -3.570312 1.234375 -3.710938 1.488281 -3.808594 C 1.746094 -3.90625 2.023438 -3.957031 2.328125 -3.957031 C 2.664062 -3.957031 2.96875 -3.898438 3.242188 -3.78125 C 3.515625 -3.664062 3.742188 -3.492188 3.929688 -3.265625 L 3.351562 -2.734375 C 3.21875 -2.886719 3.070312 -3 2.90625 -3.074219 C 2.742188 -3.152344 2.566406 -3.1875 2.371094 -3.1875 C 2.191406 -3.1875 2.023438 -3.160156 1.871094 -3.101562 C 1.71875 -3.042969 1.589844 -2.957031 1.476562 -2.84375 C 1.367188 -2.734375 1.28125 -2.601562 1.21875 -2.449219 C 1.15625 -2.296875 1.128906 -2.128906 1.128906 -1.945312 C 1.128906 -1.757812 1.160156 -1.589844 1.21875 -1.4375 C 1.28125 -1.285156 1.367188 -1.15625 1.476562 -1.042969 C 1.589844 -0.933594 1.71875 -0.847656 1.871094 -0.789062 C 2.023438 -0.730469 2.191406 -0.699219 2.371094 -0.699219 C 2.566406 -0.699219 2.742188 -0.738281 2.90625 -0.8125 C 3.070312 -0.890625 3.214844 -1.003906 3.351562 -1.160156 L 3.929688 -0.628906 C 3.742188 -0.402344 3.515625 -0.230469 3.242188 -0.109375 C 2.96875 0.0078125 2.664062 0.0664062 2.324219 0.0664062 Z "/>
</g>
<g id="glyph-0-9">
<path d="M 0.460938 0 L 0.460938 -3.890625 L 3.398438 -3.890625 L 3.398438 -3.167969 L 1.355469 -3.167969 L 1.355469 -0.722656 L 3.472656 -0.722656 L 3.472656 0 Z M 1.289062 -1.621094 L 1.289062 -2.324219 L 3.160156 -2.324219 L 3.160156 -1.621094 Z "/>
</g>
</g>
<image id="source-28" x="0" y="0" width="0" height="0"/>
<mask id="mask-0">
<use xlink:href="#source-28"/>
</mask>
</defs>
<g fill="rgb(12.156863%, 43.529412%, 36.078431%)" fill-opacity="1">
<use xlink:href="#glyph-0-0" x="30" y="25.37793"/>
<use xlink:href="#glyph-0-1" x="33" y="25.37793"/>
<use xlink:href="#glyph-0-2" x="37" y="25.37793"/>
<use xlink:href="#glyph-0-3" x="39" y="25.37793"/>
<use xlink:href="#glyph-0-4" x="45" y="25.37793"/>
<use xlink:href="#glyph-0-5" x="47" y="25.37793"/>
<use xlink:href="#glyph-0-2" x="51" y="25.37793"/>
<use xlink:href="#glyph-0-2" x="53" y="25.37793"/>
<use xlink:href="#glyph-0-6" x="55" y="25.37793"/>
<use xlink:href="#glyph-0-7" x="60" y="25.37793"/>
<use xlink:href="#glyph-0-8" x="64" y="25.37793"/>
<use xlink:href="#glyph-0-9" x="68" y="25.37793"/>
</g>
</svg>
