<?xml version="1.0" encoding="UTF-8"?>
<svg xmlns="http://www.w3.org/2000/svg" xmlns:xlink="http://www.w3.org/1999/xlink" width="1920" height="1080" viewBox="0 0 1920 1080">
<defs>
<g>
<g id="glyph-0-0">
<path d="M 1.203125 -7.195312 L 5.324219 -7.195312 L 5.324219 -6.433594 L 2.054688 -6.433594 L 2.054688 -3.976562 L 5.117188 -3.976562 L 5.117188 -3.21875 L 2.054688 -3.21875 L 2.054688 0 L 1.203125 0 Z "/>
</g>
<g id="glyph-0-1">
<rect x="0" y="0" width="0" height="0" mask="url(#mask-0)"/>
</g>
<g id="glyph-0-2">
<path d="M 0.699219 -4.695312 L 5.46875 -4.695312 L 5.46875 -3.957031 L 0.699219 -3.957031 Z M 0.699219 -3.011719 L 5.46875 -3.011719 L 5.46875 -2.269531 L 0.699219 -2.269531 Z "/>
</g>
<g id="glyph-0-3">
<path d="M 1.304688 -0.738281 L 2.917969 -0.738281 L 2.917969 -6.144531 L 1.273438 -4.996094 L 0.875 -5.582031 L 3.132812 -7.195312 L 3.710938 -7.195312 L 3.710938 -0.738281 L 5.292969 -0.738281 L 5.292969 0 L 1.304688 0 Z "/>
</g>
<g id="glyph-0-4">
<path d="M 1.324219 -3.339844 L 4.839844 -3.339844 L 4.839844 -2.578125 L 1.324219 -2.578125 Z "/>
</g>
<g id="glyph-0-5">
<path d="M 0.851562 -0.339844 L 0.460938 -0.957031 L 4.554688 -3.328125 L 0.472656 -5.746094 L 0.863281 -6.382812 L 5.703125 -3.433594 L 5.703125 -3.132812 Z "/>
</g>
<g id="glyph-0-6">
<path d="M 5.140625 -5.375 C 5.140625 -4.746094 4.839844 -4.042969 4.246094 -3.269531 C 3.648438 -2.496094 2.816406 -1.652344 1.746094 -0.738281 L 5.363281 -0.738281 L 5.363281 0 L 0.800781 0 L 0.800781 -0.738281 C 0.929688 -0.863281 1.109375 -1.023438 1.335938 -1.222656 C 1.5625 -1.421875 1.804688 -1.644531 2.066406 -1.886719 C 2.328125 -2.128906 2.589844 -2.390625 2.863281 -2.671875 C 3.132812 -2.953125 3.378906 -3.242188 3.597656 -3.535156 C 3.816406 -3.828125 3.996094 -4.125 4.132812 -4.417969 C 4.269531 -4.714844 4.335938 -5 4.335938 -5.273438 C 4.335938 -5.683594 4.230469 -6.007812 4.011719 -6.242188 C 3.796875 -6.480469 3.472656 -6.597656 3.042969 -6.597656 C 2.671875 -6.597656 2.359375 -6.558594 2.105469 -6.476562 C 1.851562 -6.394531 1.625 -6.273438 1.417969 -6.113281 L 1.070312 -6.679688 C 1.378906 -6.898438 1.703125 -7.058594 2.050781 -7.164062 C 2.398438 -7.265625 2.773438 -7.316406 3.1875 -7.316406 C 3.832031 -7.316406 4.316406 -7.144531 4.644531 -6.792969 C 4.972656 -6.445312 5.140625 -5.972656 5.140625 -5.375 Z "/>
</g>
<g id="glyph-0-7">
<path d="M 0.0429688 -7.195312 L 1.644531 -7.195312 L 1.644531 -4.5 L 1.695312 -4.5 C 1.90625 -4.742188 2.15625 -4.929688 2.4375 -5.0625 C 2.71875 -5.195312 3.066406 -5.261719 3.484375 -5.261719 C 3.8125 -5.261719 4.097656 -5.226562 4.34375 -5.160156 C 4.585938 -5.089844 4.785156 -4.972656 4.9375 -4.800781 C 5.09375 -4.628906 5.207031 -4.394531 5.28125 -4.09375 C 5.359375 -3.796875 5.394531 -3.417969 5.394531 -2.960938 L 5.394531 0 L 4.59375 0 L 4.59375 -2.804688 C 4.59375 -3.101562 4.578125 -3.355469 4.542969 -3.578125 C 4.507812 -3.796875 4.441406 -3.980469 4.34375 -4.125 C 4.242188 -4.273438 4.109375 -4.386719 3.9375 -4.460938 C 3.765625 -4.535156 3.546875 -4.574219 3.277344 -4.574219 C 3.09375 -4.574219 2.910156 -4.539062 2.734375 -4.476562 C 2.554688 -4.410156 2.394531 -4.320312 2.246094 -4.207031 C 2.097656 -4.09375 1.972656 -3.957031 1.867188 -3.796875 C 1.757812 -3.636719 1.683594 -3.460938 1.644531 -3.269531 L 1.644531 0 L 0.851562 0 L 0.851562 -6.503906 L 0.0429688 -6.503906 Z "/>
</g>
<g id="glyph-0-8">
<path d="M 0.0195312 -7.195312 L 1.664062 -7.195312 L 1.664062 -4.554688 L 1.714844 -4.554688 C 1.894531 -4.78125 2.125 -4.953125 2.40625 -5.078125 C 2.6875 -5.199219 2.992188 -5.261719 3.320312 -5.261719 C 4.828125 -5.261719 5.582031 -4.390625 5.582031 -2.652344 C 5.582031 -1.769531 5.335938 -1.089844 4.851562 -0.621094 C 4.363281 -0.152344 3.671875 0.0820312 2.773438 0.0820312 C 2.347656 0.0820312 1.964844 0.0429688 1.625 -0.0429688 C 1.28125 -0.125 1.03125 -0.21875 0.875 -0.328125 L 0.875 -6.503906 L 0.0195312 -6.503906 Z M 3.21875 -4.574219 C 2.804688 -4.574219 2.472656 -4.457031 2.21875 -4.222656 C 1.964844 -3.992188 1.78125 -3.664062 1.664062 -3.238281 L 1.664062 -0.875 C 1.820312 -0.792969 2.011719 -0.726562 2.230469 -0.679688 C 2.449219 -0.628906 2.679688 -0.605469 2.917969 -0.605469 C 3.191406 -0.605469 3.441406 -0.644531 3.664062 -0.722656 C 3.886719 -0.800781 4.078125 -0.925781 4.234375 -1.09375 C 4.390625 -1.261719 4.511719 -1.476562 4.597656 -1.738281 C 4.683594 -1.996094 4.726562 -2.304688 4.726562 -2.660156 C 4.726562 -2.921875 4.699219 -3.167969 4.644531 -3.402344 C 4.589844 -3.636719 4.503906 -3.839844 4.382812 -4.011719 C 4.261719 -4.1875 4.109375 -4.324219 3.914062 -4.425781 C 3.722656 -4.523438 3.492188 -4.574219 3.21875 -4.574219 Z "/>
</g>
<g id="glyph-0-9">
<path d="M 1.109375 -4.738281 C 1.40625 -4.910156 1.738281 -5.03125 2.105469 -5.109375 C 2.476562 -5.183594 2.839844 -5.222656 3.195312 -5.222656 C 3.546875 -5.222656 3.832031 -5.167969 4.054688 -5.054688 C 4.277344 -4.945312 4.453125 -4.804688 4.578125 -4.628906 C 4.707031 -4.453125 4.789062 -4.257812 4.835938 -4.035156 C 4.878906 -3.8125 4.902344 -3.585938 4.902344 -3.359375 C 4.902344 -3.101562 4.894531 -2.824219 4.882812 -2.527344 C 4.867188 -2.234375 4.859375 -1.9375 4.851562 -1.644531 C 4.851562 -1.300781 4.871094 -0.976562 4.914062 -0.667969 L 5.601562 -0.667969 L 5.601562 0 L 4.234375 0 L 4.140625 -0.769531 L 4.089844 -0.769531 C 4.050781 -0.707031 3.988281 -0.628906 3.90625 -0.535156 C 3.824219 -0.4375 3.714844 -0.34375 3.582031 -0.25 C 3.449219 -0.160156 3.285156 -0.078125 3.09375 -0.0117188 C 2.902344 0.0585938 2.675781 0.09375 2.414062 0.09375 C 1.90625 0.09375 1.507812 -0.0390625 1.210938 -0.296875 C 0.917969 -0.558594 0.769531 -0.914062 0.769531 -1.367188 C 0.769531 -1.714844 0.847656 -2.007812 1.003906 -2.242188 C 1.15625 -2.472656 1.378906 -2.652344 1.664062 -2.773438 C 1.953125 -2.898438 2.300781 -2.96875 2.707031 -2.992188 C 3.117188 -3.011719 3.574219 -2.984375 4.082031 -2.910156 C 4.113281 -3.222656 4.121094 -3.484375 4.09375 -3.695312 C 4.070312 -3.902344 4.015625 -4.070312 3.929688 -4.191406 C 3.84375 -4.316406 3.726562 -4.402344 3.570312 -4.457031 C 3.417969 -4.507812 3.226562 -4.53125 3 -4.53125 C 2.691406 -4.53125 2.398438 -4.488281 2.117188 -4.402344 C 1.835938 -4.316406 1.585938 -4.230469 1.367188 -4.140625 Z M 2.621094 -0.597656 C 2.8125 -0.597656 2.992188 -0.625 3.15625 -0.6875 C 3.320312 -0.75 3.464844 -0.828125 3.585938 -0.925781 C 3.710938 -1.019531 3.8125 -1.125 3.894531 -1.238281 C 3.976562 -1.351562 4.039062 -1.460938 4.082031 -1.5625 L 4.082031 -2.28125 C 3.722656 -2.34375 3.394531 -2.375 3.09375 -2.375 C 2.792969 -2.375 2.53125 -2.339844 2.3125 -2.277344 C 2.09375 -2.210938 1.921875 -2.109375 1.796875 -1.972656 C 1.675781 -1.835938 1.613281 -1.65625 1.613281 -1.4375 C 1.613281 -1.210938 1.691406 -1.015625 1.84375 -0.847656 C 2 -0.679688 2.257812 -0.597656 2.621094 -0.597656 Z "/>
</g>
<g id="glyph-0-10">
<path d="M 0.679688 0 L 0.679688 -0.6875 L 2.066406 -0.6875 L 2.066406 -4.449219 L 0.679688 -4.449219 L 0.679688 -5.140625 L 2.601562 -5.140625 L 2.765625 -4.46875 L 2.816406 -4.46875 C 3.050781 -4.683594 3.308594 -4.863281 3.597656 -5.015625 C 3.886719 -5.167969 4.226562 -5.242188 4.625 -5.242188 C 4.859375 -5.242188 5.042969 -5.195312 5.183594 -5.109375 C 5.324219 -5.019531 5.433594 -4.886719 5.515625 -4.71875 C 5.59375 -4.546875 5.644531 -4.339844 5.671875 -4.09375 C 5.699219 -3.851562 5.714844 -3.578125 5.714844 -3.269531 L 4.996094 -3.257812 C 4.996094 -3.695312 4.953125 -4.019531 4.867188 -4.222656 C 4.78125 -4.429688 4.625 -4.53125 4.398438 -4.53125 C 4.1875 -4.53125 3.996094 -4.5 3.824219 -4.441406 C 3.652344 -4.378906 3.503906 -4.304688 3.375 -4.214844 C 3.25 -4.125 3.140625 -4.035156 3.050781 -3.945312 C 2.960938 -3.855469 2.898438 -3.78125 2.855469 -3.71875 L 2.855469 -0.6875 L 4.832031 -0.6875 L 4.832031 0 Z "/>
</g>
<g id="glyph-0-11">
<path d="M 3.023438 -7.308594 L 3.320312 -7.308594 L 5.828125 -3.09375 L 4.984375 -3.09375 L 3.132812 -6.257812 L 1.210938 -3.09375 L 0.359375 -3.09375 Z "/>
</g>
</g>
<image id="source-57" x="0" y="0" width="0" height="0"/>
<mask id="mask-0">
<use xlink:href="#source-57"/>
</mask>
</defs>
<g fill="rgb(16.470588%, 10.196078%, 5.490196%)" fill-opacity="1">
<use xlink:href="#glyph-0-0" x="30" y="29.095703"/>
<use xlink:href="#glyph-0-1" x="36" y="29.095703"/>
<use xlink:href="#glyph-0-2" x="42" y="29.095703"/>
<use xlink:href="#glyph-0-1" x="48" y="29.095703"/>
<use xlink:href="#glyph-0-3" x="54" y="29.095703"/>
<use xlink:href="#glyph-0-1" x="60" y="29.095703"/>
<use xlink:href="#glyph-0-1" x="66" y="29.095703"/>
<use xlink:href="#glyph-0-4" x="72" y="29.095703"/>
<use xlink:href="#glyph-0-5" x="78" y="29.095703"/>
<use xlink:href="#glyph-0-1" x="84" y="29.095703"/>
<use xlink:href="#glyph-0-1" x="90" y="29.095703"/>
<use xlink:href="#glyph-0-6" x="96" y="29.095703"/>
<use xlink:href="#glyph-0-1" x="102" y="29.095703"/>
<use xlink:href="#glyph-0-7" x="108" y="29.095703"/>
<use xlink:href="#glyph-0-8" x="114" y="29.095703"/>
<use xlink:href="#glyph-0-9" x="120" y="29.095703"/>
<use xlink:href="#glyph-0-10" x="126" y="29.095703"/>
<use xlink:href="#glyph-0-11" x="132" y="29.095703"/>
<use xlink:href="#glyph-0-6" x="138" y="29.095703"/>
</g>
</svg>
