<?xml version="1.0" encoding="UTF-8"?>
<svg xmlns="http://www.w3.org/2000/svg" xmlns:xlink="http://www.w3.org/1999/xlink" width="1920" height="1080" viewBox="0 0 1920 1080">
<defs>
<g>
<g id="glyph-0-0">
<path d="M -0.0507812 0.03125 C -0.0976562 0.03125 -0.132812 0.0273438 -0.160156 0.015625 C -0.183594 0.00390625 -0.195312 -0.0117188 -0.195312 -0.0351562 C -0.195312 -0.0859375 -0.121094 -0.121094 0.0234375 -0.148438 C 0.226562 -0.179688 0.375 -0.230469 0.460938 -0.296875 C 0.546875 -0.363281 0.613281 -0.464844 0.652344 -0.605469 L 1.492188 -3.355469 C 1.546875 -3.53125 1.550781 -3.644531 1.496094 -3.699219 C 1.445312 -3.753906 1.328125 -3.792969 1.148438 -3.820312 C 1.085938 -3.828125 1.046875 -3.839844 1.023438 -3.855469 C 1 -3.871094 0.988281 -3.894531 0.988281 -3.921875 C 0.988281 -3.945312 1.007812 -3.964844 1.046875 -3.976562 C 1.085938 -3.984375 1.128906 -3.988281 1.179688 -3.988281 C 1.210938 -3.988281 1.269531 -3.988281 1.351562 -3.984375 C 1.4375 -3.980469 1.53125 -3.976562 1.632812 -3.976562 C 1.738281 -3.972656 1.832031 -3.972656 1.917969 -3.972656 L 2.902344 -3.972656 C 3.125 -3.972656 3.296875 -3.976562 3.414062 -3.988281 C 3.527344 -3.996094 3.609375 -4.007812 3.65625 -4.015625 C 3.703125 -4.027344 3.730469 -4.03125 3.738281 -4.03125 C 3.753906 -4.03125 3.769531 -4.023438 3.785156 -4.003906 C 3.800781 -3.988281 3.808594 -3.96875 3.808594 -3.953125 C 3.808594 -3.929688 3.792969 -3.886719 3.769531 -3.820312 C 3.746094 -3.757812 3.71875 -3.679688 3.691406 -3.585938 C 3.664062 -3.492188 3.640625 -3.386719 3.625 -3.269531 C 3.621094 -3.226562 3.605469 -3.199219 3.582031 -3.179688 C 3.5625 -3.160156 3.539062 -3.152344 3.519531 -3.152344 C 3.5 -3.152344 3.480469 -3.167969 3.46875 -3.195312 C 3.453125 -3.222656 3.449219 -3.261719 3.453125 -3.304688 C 3.464844 -3.492188 3.449219 -3.621094 3.402344 -3.695312 C 3.359375 -3.765625 3.253906 -3.800781 3.09375 -3.800781 L 2.347656 -3.800781 C 2.25 -3.800781 2.179688 -3.789062 2.136719 -3.761719 C 2.097656 -3.734375 2.066406 -3.6875 2.046875 -3.617188 L 1.636719 -2.320312 C 1.613281 -2.25 1.605469 -2.199219 1.621094 -2.167969 C 1.632812 -2.140625 1.671875 -2.128906 1.734375 -2.132812 L 2.492188 -2.152344 C 2.597656 -2.15625 2.683594 -2.179688 2.746094 -2.222656 C 2.808594 -2.265625 2.867188 -2.316406 2.914062 -2.375 C 2.941406 -2.410156 2.976562 -2.449219 3.007812 -2.496094 C 3.042969 -2.542969 3.078125 -2.566406 3.117188 -2.566406 C 3.148438 -2.566406 3.167969 -2.550781 3.167969 -2.515625 C 3.171875 -2.480469 3.160156 -2.441406 3.140625 -2.394531 C 3.105469 -2.324219 3.074219 -2.261719 3.046875 -2.199219 C 3.019531 -2.136719 2.996094 -2.078125 2.976562 -2.023438 C 2.953125 -1.957031 2.929688 -1.890625 2.910156 -1.816406 C 2.894531 -1.746094 2.875 -1.667969 2.855469 -1.578125 C 2.851562 -1.546875 2.839844 -1.519531 2.824219 -1.492188 C 2.8125 -1.460938 2.792969 -1.449219 2.773438 -1.449219 C 2.742188 -1.449219 2.71875 -1.46875 2.710938 -1.515625 C 2.699219 -1.558594 2.695312 -1.59375 2.695312 -1.613281 C 2.695312 -1.738281 2.671875 -1.828125 2.628906 -1.878906 C 2.585938 -1.929688 2.53125 -1.957031 2.460938 -1.957031 L 1.761719 -1.96875 C 1.691406 -1.96875 1.628906 -1.957031 1.578125 -1.941406 C 1.527344 -1.921875 1.492188 -1.867188 1.464844 -1.777344 L 1.15625 -0.667969 C 1.097656 -0.457031 1.085938 -0.320312 1.121094 -0.257812 C 1.15625 -0.191406 1.234375 -0.160156 1.363281 -0.160156 L 2.308594 -0.160156 C 2.410156 -0.160156 2.503906 -0.175781 2.582031 -0.207031 C 2.660156 -0.238281 2.734375 -0.277344 2.796875 -0.324219 C 2.859375 -0.367188 2.917969 -0.421875 2.96875 -0.484375 C 3.023438 -0.546875 3.074219 -0.625 3.128906 -0.707031 C 3.144531 -0.734375 3.160156 -0.757812 3.175781 -0.78125 C 3.191406 -0.804688 3.214844 -0.820312 3.238281 -0.820312 C 3.257812 -0.820312 3.269531 -0.804688 3.273438 -0.777344 C 3.277344 -0.746094 3.28125 -0.722656 3.28125 -0.695312 C 3.28125 -0.660156 3.265625 -0.601562 3.238281 -0.527344 C 3.210938 -0.449219 3.175781 -0.371094 3.140625 -0.289062 C 3.105469 -0.210938 3.070312 -0.148438 3.042969 -0.0976562 C 3.019531 -0.0585938 2.992188 -0.0273438 2.960938 -0.00390625 C 2.929688 0.0195312 2.890625 0.03125 2.839844 0.03125 C 2.671875 0.03125 2.511719 0.03125 2.347656 0.0273438 C 2.1875 0.0273438 2.03125 0.0234375 1.882812 0.0195312 C 1.730469 0.015625 1.585938 0.0117188 1.449219 0.0078125 C 1.308594 0.00390625 1.175781 0 1.046875 -0.00390625 C 0.917969 -0.00390625 0.796875 -0.0078125 0.683594 -0.0078125 C 0.585938 -0.0078125 0.5 -0.00390625 0.425781 0.00390625 C 0.355469 0.0078125 0.28125 0.015625 0.210938 0.0195312 C 0.140625 0.0273438 0.0546875 0.03125 -0.0507812 0.03125 Z "/>
</g>
<g id="glyph-0-1">
<path d="M 1.722656 0.0507812 C 1.707031 0.0507812 1.691406 0.0390625 1.675781 0.0195312 C 1.660156 0.00390625 1.648438 -0.015625 1.648438 -0.0351562 L 1.648438 -1.324219 C 1.648438 -1.347656 1.640625 -1.355469 1.625 -1.355469 L 0.390625 -1.355469 C 0.371094 -1.355469 0.351562 -1.363281 0.332031 -1.382812 C 0.3125 -1.398438 0.304688 -1.414062 0.304688 -1.429688 C 0.304688 -1.449219 0.3125 -1.480469 0.320312 -1.515625 C 0.332031 -1.550781 0.347656 -1.585938 0.367188 -1.617188 C 0.386719 -1.648438 0.414062 -1.660156 0.453125 -1.660156 L 1.605469 -1.660156 C 1.625 -1.660156 1.640625 -1.667969 1.644531 -1.675781 C 1.648438 -1.683594 1.648438 -1.695312 1.648438 -1.710938 L 1.648438 -2.753906 C 1.648438 -2.800781 1.671875 -2.835938 1.710938 -2.867188 C 1.75 -2.894531 1.796875 -2.914062 1.84375 -2.925781 C 1.890625 -2.9375 1.917969 -2.945312 1.929688 -2.945312 C 1.949219 -2.945312 1.96875 -2.9375 1.988281 -2.921875 C 2.007812 -2.90625 2.015625 -2.886719 2.015625 -2.867188 L 2.015625 -1.699219 C 2.015625 -1.679688 2.019531 -1.667969 2.023438 -1.664062 C 2.027344 -1.664062 2.03125 -1.660156 2.039062 -1.660156 L 3.28125 -1.660156 C 3.300781 -1.660156 3.320312 -1.652344 3.34375 -1.632812 C 3.363281 -1.617188 3.367188 -1.597656 3.359375 -1.578125 C 3.34375 -1.523438 3.324219 -1.472656 3.296875 -1.425781 C 3.269531 -1.378906 3.226562 -1.355469 3.171875 -1.355469 L 2.039062 -1.355469 C 2.023438 -1.355469 2.015625 -1.347656 2.015625 -1.332031 L 2.015625 -0.0976562 C 2.015625 -0.0585938 1.996094 -0.0273438 1.957031 -0.00390625 C 1.914062 0.0195312 1.871094 0.0351562 1.824219 0.0390625 C 1.777344 0.046875 1.742188 0.0507812 1.722656 0.0507812 Z "/>
</g>
<g id="glyph-0-2">
<rect x="0" y="0" width="0" height="0" mask="url(#mask-0)"/>
</g>
<g id="glyph-0-3">
<path d="M 0.496094 -1.917969 C 0.476562 -1.917969 0.457031 -1.925781 0.4375 -1.941406 C 0.417969 -1.957031 0.410156 -1.976562 0.410156 -1.992188 C 0.410156 -2.011719 0.414062 -2.039062 0.421875 -2.078125 C 0.429688 -2.113281 0.445312 -2.148438 0.46875 -2.179688 C 0.492188 -2.210938 0.519531 -2.222656 0.554688 -2.222656 L 3.324219 -2.222656 C 3.34375 -2.222656 3.363281 -2.21875 3.382812 -2.207031 C 3.402344 -2.195312 3.410156 -2.175781 3.410156 -2.15625 C 3.410156 -2.117188 3.390625 -2.066406 3.347656 -2.007812 C 3.308594 -1.949219 3.261719 -1.917969 3.214844 -1.917969 Z M 0.496094 -0.875 C 0.476562 -0.875 0.457031 -0.882812 0.4375 -0.898438 C 0.417969 -0.914062 0.410156 -0.929688 0.410156 -0.945312 C 0.410156 -0.96875 0.414062 -0.996094 0.421875 -1.03125 C 0.429688 -1.070312 0.445312 -1.101562 0.46875 -1.132812 C 0.492188 -1.164062 0.519531 -1.179688 0.554688 -1.179688 L 3.324219 -1.179688 C 3.34375 -1.179688 3.363281 -1.171875 3.382812 -1.160156 C 3.402344 -1.148438 3.410156 -1.132812 3.410156 -1.113281 C 3.410156 -1.058594 3.390625 -1.007812 3.347656 -0.953125 C 3.308594 -0.898438 3.261719 -0.875 3.214844 -0.875 Z "/>
</g>
<g id="glyph-0-4">
<path d="M 0.214844 0.984375 C 0.0546875 0.984375 -0.0664062 0.929688 -0.15625 0.820312 C -0.242188 0.714844 -0.292969 0.574219 -0.304688 0.398438 C -0.316406 0.222656 -0.296875 0.0390625 -0.238281 -0.152344 C -0.1875 -0.3125 -0.109375 -0.46875 -0.00390625 -0.625 C 0.105469 -0.78125 0.234375 -0.914062 0.382812 -1.015625 C 0.53125 -1.117188 0.6875 -1.167969 0.855469 -1.167969 C 1.011719 -1.167969 1.128906 -1.117188 1.207031 -1.015625 C 1.285156 -0.914062 1.332031 -0.78125 1.34375 -0.617188 C 1.355469 -0.453125 1.335938 -0.277344 1.277344 -0.0898438 C 1.226562 0.0742188 1.152344 0.242188 1.050781 0.40625 C 0.949219 0.570312 0.828125 0.707031 0.6875 0.820312 C 0.546875 0.929688 0.390625 0.984375 0.214844 0.984375 Z M 0.246094 0.847656 C 0.371094 0.847656 0.476562 0.800781 0.566406 0.703125 C 0.652344 0.605469 0.726562 0.484375 0.785156 0.339844 C 0.84375 0.195312 0.894531 0.0546875 0.933594 -0.078125 C 0.96875 -0.179688 0.996094 -0.289062 1.015625 -0.398438 C 1.039062 -0.507812 1.050781 -0.609375 1.050781 -0.703125 C 1.050781 -0.796875 1.03125 -0.871094 0.988281 -0.929688 C 0.949219 -0.984375 0.882812 -1.015625 0.789062 -1.015625 C 0.671875 -1.015625 0.566406 -0.96875 0.480469 -0.875 C 0.390625 -0.785156 0.316406 -0.671875 0.257812 -0.539062 C 0.195312 -0.40625 0.144531 -0.277344 0.105469 -0.152344 C 0.0703125 -0.0429688 0.0429688 0.0703125 0.015625 0.1875 C -0.0117188 0.304688 -0.0273438 0.410156 -0.0273438 0.511719 C -0.03125 0.609375 -0.0117188 0.691406 0.03125 0.753906 C 0.0703125 0.816406 0.140625 0.847656 0.246094 0.847656 Z "/>
</g>
<g id="glyph-0-5">
<path d="M 0.484375 -1.355469 C 0.464844 -1.355469 0.441406 -1.363281 0.425781 -1.382812 C 0.40625 -1.398438 0.398438 -1.414062 0.398438 -1.429688 C 0.398438 -1.449219 0.398438 -1.484375 0.40625 -1.53125 C 0.414062 -1.578125 0.425781 -1.621094 0.449219 -1.660156 C 0.472656 -1.703125 0.503906 -1.722656 0.542969 -1.722656 L 3.371094 -1.722656 C 3.394531 -1.722656 3.414062 -1.714844 3.433594 -1.695312 C 3.453125 -1.675781 3.460938 -1.65625 3.453125 -1.636719 C 3.4375 -1.570312 3.417969 -1.507812 3.398438 -1.449219 C 3.378906 -1.386719 3.332031 -1.355469 3.261719 -1.355469 Z "/>
</g>
<g id="glyph-0-6">
<path d="M 0.691406 1.765625 C 0.675781 1.765625 0.65625 1.757812 0.640625 1.738281 C 0.625 1.71875 0.617188 1.699219 0.617188 1.679688 L 0.617188 -4.128906 C 0.617188 -4.164062 0.628906 -4.191406 0.652344 -4.214844 C 0.679688 -4.238281 0.707031 -4.261719 0.742188 -4.273438 C 0.777344 -4.289062 0.808594 -4.300781 0.839844 -4.308594 C 0.871094 -4.316406 0.890625 -4.320312 0.898438 -4.320312 C 0.917969 -4.320312 0.9375 -4.3125 0.957031 -4.296875 C 0.976562 -4.28125 0.984375 -4.261719 0.984375 -4.242188 L 0.984375 1.621094 C 0.984375 1.652344 0.972656 1.675781 0.945312 1.695312 C 0.921875 1.714844 0.894531 1.726562 0.859375 1.738281 C 0.824219 1.75 0.789062 1.753906 0.757812 1.761719 C 0.726562 1.765625 0.703125 1.765625 0.691406 1.765625 Z "/>
</g>
<g id="glyph-0-7">
<path d="M 1.171875 0.0859375 C 1.121094 0.0859375 1.074219 0.0546875 1.039062 -0.0078125 C 1.003906 -0.0703125 1 -0.199219 1.03125 -0.386719 C 1.148438 -1.070312 1.25 -1.652344 1.324219 -2.132812 C 1.402344 -2.613281 1.457031 -3.023438 1.484375 -3.359375 C 1.492188 -3.492188 1.484375 -3.59375 1.457031 -3.664062 C 1.429688 -3.734375 1.335938 -3.78125 1.171875 -3.808594 C 1.113281 -3.816406 1.074219 -3.832031 1.054688 -3.851562 C 1.035156 -3.875 1.027344 -3.902344 1.027344 -3.929688 C 1.027344 -3.957031 1.042969 -3.976562 1.082031 -3.988281 C 1.117188 -4 1.160156 -4.007812 1.210938 -4.007812 C 1.292969 -4.007812 1.386719 -4.003906 1.5 -3.988281 C 1.613281 -3.976562 1.730469 -3.972656 1.859375 -3.972656 C 1.929688 -3.972656 2.003906 -3.972656 2.078125 -3.976562 C 2.152344 -3.976562 2.21875 -3.976562 2.285156 -3.976562 C 2.351562 -3.976562 2.40625 -3.976562 2.449219 -3.976562 C 2.5 -3.976562 2.535156 -3.972656 2.558594 -3.960938 C 2.585938 -3.953125 2.597656 -3.933594 2.597656 -3.910156 C 2.597656 -3.882812 2.574219 -3.859375 2.53125 -3.835938 C 2.488281 -3.816406 2.441406 -3.800781 2.382812 -3.792969 C 2.265625 -3.777344 2.171875 -3.742188 2.105469 -3.691406 C 2.039062 -3.636719 1.992188 -3.535156 1.96875 -3.378906 L 1.558594 -0.875 C 1.546875 -0.804688 1.542969 -0.753906 1.550781 -0.726562 C 1.554688 -0.699219 1.566406 -0.683594 1.582031 -0.683594 C 1.597656 -0.683594 1.621094 -0.703125 1.644531 -0.738281 C 1.667969 -0.777344 1.707031 -0.828125 1.761719 -0.890625 L 3.46875 -3.007812 C 3.617188 -3.1875 3.710938 -3.332031 3.753906 -3.441406 C 3.796875 -3.554688 3.808594 -3.640625 3.78125 -3.695312 C 3.757812 -3.753906 3.71875 -3.785156 3.660156 -3.792969 C 3.59375 -3.800781 3.554688 -3.816406 3.539062 -3.839844 C 3.523438 -3.863281 3.511719 -3.886719 3.511719 -3.917969 C 3.511719 -3.941406 3.53125 -3.957031 3.570312 -3.96875 C 3.605469 -3.980469 3.648438 -3.984375 3.695312 -3.984375 C 3.75 -3.984375 3.832031 -3.980469 3.9375 -3.976562 C 4.046875 -3.972656 4.152344 -3.972656 4.253906 -3.972656 C 4.378906 -3.972656 4.480469 -3.976562 4.554688 -3.988281 C 4.628906 -4 4.714844 -4.007812 4.808594 -4.007812 C 4.859375 -4.007812 4.894531 -4 4.914062 -3.988281 C 4.9375 -3.972656 4.949219 -3.953125 4.949219 -3.929688 C 4.949219 -3.902344 4.929688 -3.875 4.886719 -3.851562 C 4.847656 -3.828125 4.792969 -3.808594 4.722656 -3.789062 C 4.617188 -3.761719 4.5 -3.710938 4.375 -3.640625 C 4.25 -3.570312 4.125 -3.464844 4.007812 -3.316406 L 1.742188 -0.582031 C 1.675781 -0.503906 1.613281 -0.425781 1.558594 -0.347656 C 1.5 -0.269531 1.445312 -0.199219 1.394531 -0.132812 C 1.34375 -0.0703125 1.300781 -0.015625 1.265625 0.0234375 C 1.226562 0.0664062 1.199219 0.0859375 1.171875 0.0859375 Z "/>
</g>
<g id="glyph-0-8">
<path d="M 2.136719 0.804688 C 2.160156 0.804688 2.175781 0.816406 2.183594 0.835938 C 2.195312 0.851562 2.195312 0.871094 2.179688 0.890625 C 2.148438 0.945312 2.113281 0.996094 2.078125 1.042969 C 2.042969 1.089844 1.996094 1.113281 1.941406 1.113281 L -0.648438 1.113281 C -0.667969 1.113281 -0.683594 1.105469 -0.695312 1.085938 C -0.703125 1.070312 -0.707031 1.054688 -0.703125 1.039062 C -0.695312 1.019531 -0.679688 0.988281 -0.660156 0.953125 C -0.640625 0.917969 -0.613281 0.882812 -0.585938 0.851562 C -0.558594 0.820312 -0.527344 0.804688 -0.496094 0.804688 Z "/>
</g>
<g id="glyph-0-9">
<path d="M 2.375 0.0859375 C 2.117188 0.0859375 1.871094 0.0507812 1.644531 -0.015625 C 1.414062 -0.0820312 1.214844 -0.183594 1.042969 -0.316406 C 0.867188 -0.453125 0.734375 -0.621094 0.636719 -0.828125 C 0.542969 -1.035156 0.496094 -1.273438 0.496094 -1.550781 C 0.496094 -1.90625 0.5625 -2.234375 0.695312 -2.539062 C 0.828125 -2.84375 1.011719 -3.105469 1.253906 -3.332031 C 1.492188 -3.558594 1.773438 -3.734375 2.097656 -3.863281 C 2.417969 -3.988281 2.765625 -4.050781 3.140625 -4.050781 C 3.269531 -4.050781 3.382812 -4.039062 3.480469 -4.015625 C 3.574219 -3.992188 3.660156 -3.964844 3.734375 -3.933594 C 3.792969 -3.910156 3.851562 -3.890625 3.902344 -3.871094 C 3.953125 -3.851562 4.003906 -3.84375 4.050781 -3.84375 C 4.070312 -3.84375 4.09375 -3.847656 4.117188 -3.863281 C 4.140625 -3.875 4.167969 -3.886719 4.191406 -3.898438 C 4.210938 -3.910156 4.234375 -3.921875 4.253906 -3.929688 C 4.273438 -3.9375 4.292969 -3.941406 4.3125 -3.941406 C 4.351562 -3.941406 4.371094 -3.929688 4.371094 -3.90625 C 4.375 -3.878906 4.367188 -3.859375 4.355469 -3.84375 C 4.3125 -3.78125 4.261719 -3.699219 4.203125 -3.597656 C 4.148438 -3.496094 4.09375 -3.390625 4.046875 -3.28125 C 4 -3.171875 3.96875 -3.070312 3.949219 -2.976562 C 3.941406 -2.933594 3.925781 -2.902344 3.902344 -2.875 C 3.878906 -2.847656 3.859375 -2.835938 3.835938 -2.835938 C 3.753906 -2.835938 3.726562 -2.894531 3.746094 -3.011719 C 3.761719 -3.105469 3.765625 -3.203125 3.753906 -3.300781 C 3.746094 -3.398438 3.707031 -3.488281 3.640625 -3.574219 C 3.589844 -3.644531 3.511719 -3.710938 3.414062 -3.777344 C 3.3125 -3.839844 3.183594 -3.875 3.023438 -3.875 C 2.742188 -3.875 2.480469 -3.804688 2.238281 -3.664062 C 1.996094 -3.523438 1.785156 -3.335938 1.605469 -3.097656 C 1.421875 -2.863281 1.28125 -2.597656 1.183594 -2.300781 C 1.082031 -2.003906 1.03125 -1.703125 1.03125 -1.394531 C 1.03125 -1.191406 1.074219 -1.007812 1.15625 -0.847656 C 1.238281 -0.6875 1.34375 -0.546875 1.476562 -0.433594 C 1.609375 -0.320312 1.753906 -0.234375 1.910156 -0.175781 C 2.066406 -0.117188 2.222656 -0.0859375 2.375 -0.0859375 C 2.5625 -0.0859375 2.714844 -0.136719 2.824219 -0.242188 C 2.933594 -0.34375 3.007812 -0.46875 3.042969 -0.609375 L 3.214844 -1.277344 C 3.234375 -1.355469 3.234375 -1.410156 3.21875 -1.449219 C 3.199219 -1.484375 3.160156 -1.511719 3.105469 -1.527344 C 3.050781 -1.542969 3 -1.558594 2.953125 -1.566406 C 2.902344 -1.578125 2.863281 -1.585938 2.828125 -1.589844 C 2.789062 -1.597656 2.746094 -1.605469 2.703125 -1.621094 C 2.660156 -1.632812 2.640625 -1.652344 2.640625 -1.679688 C 2.640625 -1.707031 2.660156 -1.730469 2.699219 -1.746094 C 2.738281 -1.761719 2.78125 -1.773438 2.835938 -1.773438 C 2.929688 -1.773438 3.011719 -1.769531 3.085938 -1.761719 C 3.160156 -1.757812 3.230469 -1.75 3.300781 -1.746094 C 3.375 -1.738281 3.457031 -1.734375 3.550781 -1.734375 C 3.652344 -1.734375 3.738281 -1.742188 3.808594 -1.753906 C 3.878906 -1.765625 3.96875 -1.773438 4.070312 -1.773438 C 4.15625 -1.773438 4.199219 -1.742188 4.199219 -1.6875 C 4.199219 -1.667969 4.179688 -1.644531 4.148438 -1.621094 C 4.117188 -1.59375 4.066406 -1.578125 4.003906 -1.5625 C 3.914062 -1.546875 3.839844 -1.519531 3.789062 -1.480469 C 3.734375 -1.441406 3.691406 -1.382812 3.652344 -1.300781 C 3.617188 -1.222656 3.582031 -1.132812 3.546875 -1.03125 C 3.511719 -0.925781 3.484375 -0.828125 3.464844 -0.742188 C 3.445312 -0.65625 3.433594 -0.59375 3.433594 -0.5625 C 3.433594 -0.527344 3.4375 -0.492188 3.449219 -0.464844 C 3.460938 -0.4375 3.476562 -0.402344 3.5 -0.367188 C 3.476562 -0.308594 3.421875 -0.253906 3.339844 -0.199219 C 3.257812 -0.144531 3.15625 -0.09375 3.039062 -0.0507812 C 2.921875 -0.0078125 2.808594 0.0234375 2.6875 0.0507812 C 2.570312 0.0742188 2.464844 0.0859375 2.375 0.0859375 Z "/>
</g>
</g>
<image id="source-58" x="0" y="0" width="0" height="0"/>
<mask id="mask-0">
<use xlink:href="#source-58"/>
</mask>
</defs>
<g fill="rgb(16.470588%, 10.196078%, 5.490196%)" fill-opacity="1">
<use xlink:href="#glyph-0-0" x="30" y="26.15332"/>
<use xlink:href="#glyph-0-1" x="34" y="26.15332"/>
<use xlink:href="#glyph-0-2" x="38" y="26.15332"/>
<use xlink:href="#glyph-0-3" x="39" y="26.15332"/>
<use xlink:href="#glyph-0-2" x="43" y="26.15332"/>
<use xlink:href="#glyph-0-0" x="44" y="26.15332"/>
<use xlink:href="#glyph-0-4" x="48" y="26.15332"/>
<use xlink:href="#glyph-0-2" x="50" y="26.15332"/>
<use xlink:href="#glyph-0-5" x="51" y="26.15332"/>
<use xlink:href="#glyph-0-2" x="55" y="26.15332"/>
<use xlink:href="#glyph-0-6" x="56" y="26.15332"/>
<use xlink:href="#glyph-0-7" x="58" y="26.15332"/>
<use xlink:href="#glyph-0-8" x="62" y="26.15332"/>
<use xlink:href="#glyph-0-9" x="65" y="26.15332"/>
<use xlink:href="#glyph-0-6" x="69" y="26.15332"/>
</g>
</svg>
