<?xml version="1.0" encoding="UTF-8"?>
<svg xmlns="http://www.w3.org/2000/svg" xmlns:xlink="http://www.w3.org/1999/xlink" width="1920" height="1080" viewBox="0 0 1920 1080">
<defs>
<g>
<g id="glyph-0-0">
<path d="M 0.0976562 -0.15625 C 0.261719 -0.160156 0.382812 -0.183594 0.453125 -0.222656 C 0.574219 -0.285156 0.636719 -0.40625 0.636719 -0.585938 L 0.636719 -3.542969 C 0.636719 -3.722656 0.578125 -3.839844 0.464844 -3.902344 C 0.398438 -3.941406 0.277344 -3.964844 0.0976562 -3.972656 L 0.0976562 -4.128906 L 1.988281 -4.128906 C 2.351562 -4.128906 2.652344 -4.085938 2.894531 -4.003906 C 3.347656 -3.847656 3.574219 -3.558594 3.574219 -3.144531 C 3.574219 -2.890625 3.480469 -2.691406 3.296875 -2.542969 C 3.113281 -2.394531 2.914062 -2.300781 2.699219 -2.261719 L 2.699219 -2.203125 C 2.925781 -2.160156 3.125 -2.085938 3.289062 -1.984375 C 3.617188 -1.78125 3.78125 -1.5 3.78125 -1.136719 C 3.78125 -0.796875 3.625 -0.523438 3.3125 -0.316406 C 3 -0.105469 2.582031 0 2.066406 0 L 0.0976562 0 Z M 1.609375 -2.277344 C 1.988281 -2.277344 2.242188 -2.339844 2.371094 -2.460938 C 2.5 -2.585938 2.566406 -2.804688 2.566406 -3.117188 C 2.566406 -3.351562 2.523438 -3.546875 2.4375 -3.707031 C 2.355469 -3.863281 2.191406 -3.945312 1.953125 -3.945312 C 1.824219 -3.945312 1.734375 -3.921875 1.6875 -3.878906 C 1.636719 -3.835938 1.609375 -3.761719 1.609375 -3.648438 Z M 1.609375 -0.5625 C 1.613281 -0.457031 1.628906 -0.378906 1.660156 -0.328125 C 1.710938 -0.242188 1.804688 -0.195312 1.945312 -0.195312 C 2.234375 -0.195312 2.4375 -0.277344 2.550781 -0.433594 C 2.667969 -0.589844 2.726562 -0.8125 2.726562 -1.105469 C 2.726562 -1.539062 2.597656 -1.824219 2.34375 -1.96875 C 2.1875 -2.054688 1.941406 -2.097656 1.609375 -2.089844 Z "/>
</g>
<g id="glyph-0-1">
<path d="M 0.0976562 0 L 0.0976562 -0.15625 C 0.273438 -0.160156 0.398438 -0.183594 0.472656 -0.226562 C 0.585938 -0.289062 0.640625 -0.410156 0.640625 -0.585938 L 0.640625 -3.542969 C 0.640625 -3.722656 0.582031 -3.839844 0.464844 -3.902344 C 0.398438 -3.941406 0.277344 -3.964844 0.0976562 -3.972656 L 0.0976562 -4.128906 L 3.617188 -4.128906 L 3.617188 -2.898438 L 3.46875 -2.898438 C 3.390625 -3.292969 3.261719 -3.558594 3.074219 -3.707031 C 2.886719 -3.851562 2.550781 -3.921875 2.058594 -3.921875 C 1.871094 -3.921875 1.753906 -3.902344 1.703125 -3.863281 C 1.652344 -3.824219 1.625 -3.75 1.625 -3.632812 L 1.625 -2.21875 C 1.972656 -2.214844 2.210938 -2.277344 2.332031 -2.410156 C 2.457031 -2.539062 2.550781 -2.777344 2.617188 -3.125 L 2.773438 -3.125 L 2.773438 -1.058594 L 2.617188 -1.058594 C 2.574219 -1.40625 2.484375 -1.652344 2.347656 -1.792969 C 2.214844 -1.9375 1.972656 -2.007812 1.625 -2.007812 L 1.625 -0.527344 C 1.625 -0.398438 1.660156 -0.3125 1.726562 -0.265625 C 1.792969 -0.21875 1.929688 -0.195312 2.136719 -0.195312 C 2.527344 -0.195312 2.84375 -0.269531 3.089844 -0.421875 C 3.335938 -0.570312 3.554688 -0.855469 3.746094 -1.269531 L 3.917969 -1.269531 L 3.667969 0 Z "/>
</g>
<g id="glyph-0-2">
<path d="M 0.0820312 -0.15625 C 0.234375 -0.164062 0.347656 -0.1875 0.414062 -0.222656 C 0.535156 -0.28125 0.59375 -0.394531 0.59375 -0.558594 L 0.59375 -3.570312 C 0.59375 -3.726562 0.535156 -3.835938 0.421875 -3.898438 C 0.359375 -3.933594 0.246094 -3.960938 0.0820312 -3.972656 L 0.0820312 -4.128906 L 1.953125 -4.128906 C 2.707031 -4.128906 3.28125 -3.929688 3.675781 -3.527344 C 4.035156 -3.160156 4.214844 -2.667969 4.214844 -2.050781 C 4.214844 -1.5 4.035156 -1.03125 3.671875 -0.648438 C 3.265625 -0.214844 2.710938 0 2.015625 0 L 0.0820312 0 Z M 1.582031 -0.5625 C 1.585938 -0.4375 1.609375 -0.347656 1.652344 -0.292969 C 1.691406 -0.238281 1.777344 -0.207031 1.914062 -0.207031 C 2.273438 -0.207031 2.570312 -0.335938 2.804688 -0.59375 C 3.039062 -0.847656 3.152344 -1.339844 3.152344 -2.066406 C 3.152344 -2.496094 3.089844 -2.867188 2.964844 -3.175781 C 2.761719 -3.675781 2.421875 -3.925781 1.9375 -3.925781 C 1.78125 -3.925781 1.675781 -3.890625 1.628906 -3.824219 C 1.597656 -3.78125 1.582031 -3.695312 1.582031 -3.570312 Z "/>
</g>
<g id="glyph-0-3">
<path d="M 0.210938 -1.425781 L 0.386719 -1.425781 C 0.488281 -0.96875 0.648438 -0.640625 0.871094 -0.433594 C 1.09375 -0.226562 1.34375 -0.121094 1.632812 -0.121094 C 1.910156 -0.121094 2.109375 -0.195312 2.226562 -0.335938 C 2.34375 -0.476562 2.402344 -0.628906 2.402344 -0.785156 C 2.402344 -0.96875 2.339844 -1.117188 2.214844 -1.230469 C 2.132812 -1.308594 1.972656 -1.40625 1.722656 -1.527344 L 1.328125 -1.722656 C 0.933594 -1.917969 0.65625 -2.113281 0.496094 -2.304688 C 0.335938 -2.496094 0.253906 -2.730469 0.253906 -3.011719 C 0.253906 -3.308594 0.359375 -3.585938 0.574219 -3.847656 C 0.789062 -4.105469 1.117188 -4.234375 1.558594 -4.234375 C 1.78125 -4.234375 2 -4.199219 2.210938 -4.132812 C 2.417969 -4.066406 2.539062 -4.03125 2.570312 -4.03125 C 2.636719 -4.03125 2.683594 -4.050781 2.710938 -4.089844 C 2.734375 -4.128906 2.753906 -4.179688 2.773438 -4.242188 L 2.953125 -4.242188 L 2.953125 -2.910156 L 2.785156 -2.910156 C 2.703125 -3.21875 2.558594 -3.484375 2.351562 -3.707031 C 2.144531 -3.929688 1.898438 -4.042969 1.601562 -4.042969 C 1.394531 -4.042969 1.230469 -3.988281 1.113281 -3.875 C 0.992188 -3.761719 0.929688 -3.625 0.929688 -3.464844 C 0.929688 -3.269531 0.988281 -3.125 1.101562 -3.03125 C 1.210938 -2.933594 1.460938 -2.789062 1.84375 -2.601562 L 2.304688 -2.375 C 2.507812 -2.273438 2.671875 -2.160156 2.792969 -2.039062 C 3.019531 -1.808594 3.132812 -1.527344 3.132812 -1.195312 C 3.132812 -0.886719 3.011719 -0.597656 2.765625 -0.324219 C 2.523438 -0.0507812 2.132812 0.0859375 1.597656 0.0859375 C 1.472656 0.0859375 1.347656 0.0742188 1.222656 0.0507812 C 1.097656 0.0273438 0.96875 -0.0078125 0.847656 -0.0546875 L 0.726562 -0.0976562 C 0.699219 -0.105469 0.671875 -0.113281 0.648438 -0.117188 C 0.621094 -0.121094 0.601562 -0.125 0.582031 -0.125 C 0.519531 -0.125 0.472656 -0.105469 0.449219 -0.0703125 C 0.425781 -0.0351562 0.40625 0.0195312 0.386719 0.0859375 L 0.210938 0.0859375 Z "/>
</g>
<g id="glyph-0-4">
<path d="M 0.0976562 -0.15625 C 0.269531 -0.160156 0.394531 -0.179688 0.472656 -0.21875 C 0.59375 -0.28125 0.65625 -0.402344 0.65625 -0.585938 L 0.65625 -3.542969 C 0.65625 -3.722656 0.597656 -3.84375 0.480469 -3.90625 C 0.410156 -3.945312 0.28125 -3.964844 0.0976562 -3.972656 L 0.0976562 -4.128906 L 2.234375 -4.128906 L 2.234375 -3.972656 C 2.042969 -3.964844 1.914062 -3.945312 1.839844 -3.910156 C 1.722656 -3.847656 1.660156 -3.722656 1.660156 -3.542969 L 1.660156 -0.585938 C 1.660156 -0.414062 1.710938 -0.300781 1.804688 -0.242188 C 1.902344 -0.183594 2.042969 -0.15625 2.234375 -0.15625 L 2.234375 0 L 0.0976562 0 Z "/>
</g>
</g>
</defs>
<g fill="rgb(16.470588%, 10.196078%, 5.490196%)" fill-opacity="1">
<use xlink:href="#glyph-0-0" x="30" y="24.583008"/>
<use xlink:href="#glyph-0-1" x="34" y="24.583008"/>
<use xlink:href="#glyph-0-2" x="38" y="24.583008"/>
<use xlink:href="#glyph-0-3" x="42" y="24.583008"/>
<use xlink:href="#glyph-0-4" x="45" y="24.583008"/>
<use xlink:href="#glyph-0-2" x="47" y="24.583008"/>
<use xlink:href="#glyph-0-1" x="51" y="24.583008"/>
</g>
</svg>
