<?xml version="1.0" encoding="UTF-8"?>
<svg xmlns="http://www.w3.org/2000/svg" xmlns:xlink="http://www.w3.org/1999/xlink" width="1920" height="1080" viewBox="0 0 1920 1080">
<defs>
<g>
<g id="glyph-0-0">
<path d="M 3.914062 -4.050781 C 3.914062 -3.925781 3.894531 -3.796875 3.855469 -3.667969 C 3.816406 -3.539062 3.753906 -3.417969 3.675781 -3.304688 C 3.59375 -3.191406 3.492188 -3.09375 3.367188 -3.007812 C 3.242188 -2.921875 3.09375 -2.859375 2.925781 -2.8125 L 2.925781 -2.78125 C 3.074219 -2.757812 3.21875 -2.714844 3.355469 -2.65625 C 3.492188 -2.59375 3.613281 -2.511719 3.71875 -2.40625 C 3.824219 -2.300781 3.910156 -2.175781 3.976562 -2.023438 C 4.039062 -1.875 4.074219 -1.699219 4.074219 -1.492188 C 4.074219 -1.222656 4.015625 -0.988281 3.902344 -0.792969 C 3.789062 -0.59375 3.644531 -0.433594 3.460938 -0.308594 C 3.277344 -0.183594 3.070312 -0.0898438 2.835938 -0.03125 C 2.601562 0.03125 2.359375 0.0585938 2.113281 0.0585938 C 2.03125 0.0585938 1.929688 0.0585938 1.816406 0.0585938 C 1.699219 0.0585938 1.578125 0.0546875 1.453125 0.046875 C 1.328125 0.0390625 1.203125 0.03125 1.078125 0.0195312 C 0.953125 0.0078125 0.84375 -0.0117188 0.75 -0.0390625 L 0.75 -5.203125 C 0.933594 -5.234375 1.148438 -5.261719 1.394531 -5.28125 C 1.640625 -5.300781 1.90625 -5.308594 2.199219 -5.308594 C 2.394531 -5.308594 2.589844 -5.292969 2.792969 -5.261719 C 2.996094 -5.230469 3.179688 -5.167969 3.34375 -5.074219 C 3.507812 -4.980469 3.644531 -4.851562 3.753906 -4.6875 C 3.859375 -4.523438 3.914062 -4.308594 3.914062 -4.050781 Z M 2.175781 -0.480469 C 2.335938 -0.480469 2.488281 -0.5 2.640625 -0.539062 C 2.789062 -0.578125 2.921875 -0.640625 3.039062 -0.71875 C 3.152344 -0.800781 3.242188 -0.898438 3.3125 -1.019531 C 3.378906 -1.140625 3.414062 -1.28125 3.414062 -1.449219 C 3.414062 -1.652344 3.371094 -1.816406 3.289062 -1.941406 C 3.207031 -2.066406 3.097656 -2.164062 2.964844 -2.234375 C 2.832031 -2.304688 2.683594 -2.351562 2.519531 -2.378906 C 2.355469 -2.402344 2.191406 -2.414062 2.023438 -2.414062 L 1.371094 -2.414062 L 1.371094 -0.53125 C 1.40625 -0.523438 1.457031 -0.515625 1.523438 -0.511719 C 1.585938 -0.503906 1.65625 -0.5 1.734375 -0.496094 C 1.808594 -0.492188 1.886719 -0.484375 1.964844 -0.484375 C 2.046875 -0.480469 2.113281 -0.480469 2.175781 -0.480469 Z M 1.761719 -2.941406 C 1.847656 -2.941406 1.949219 -2.941406 2.070312 -2.949219 C 2.191406 -2.953125 2.289062 -2.960938 2.371094 -2.96875 C 2.492188 -3.007812 2.601562 -3.058594 2.707031 -3.117188 C 2.8125 -3.175781 2.90625 -3.242188 2.988281 -3.324219 C 3.070312 -3.402344 3.136719 -3.492188 3.183594 -3.59375 C 3.230469 -3.691406 3.253906 -3.800781 3.253906 -3.921875 C 3.253906 -4.085938 3.222656 -4.226562 3.160156 -4.335938 C 3.097656 -4.445312 3.015625 -4.53125 2.910156 -4.597656 C 2.804688 -4.664062 2.683594 -4.707031 2.550781 -4.734375 C 2.414062 -4.757812 2.277344 -4.769531 2.136719 -4.769531 C 1.972656 -4.769531 1.820312 -4.765625 1.683594 -4.757812 C 1.546875 -4.75 1.441406 -4.738281 1.371094 -4.726562 L 1.371094 -2.941406 Z "/>
</g>
<g id="glyph-0-1">
<path d="M 0.425781 -1.875 C 0.425781 -2.480469 0.585938 -2.957031 0.898438 -3.3125 C 1.214844 -3.664062 1.664062 -3.839844 2.25 -3.839844 C 2.566406 -3.839844 2.835938 -3.789062 3.0625 -3.6875 C 3.289062 -3.585938 3.480469 -3.445312 3.628906 -3.269531 C 3.78125 -3.09375 3.890625 -2.886719 3.964844 -2.648438 C 4.035156 -2.40625 4.074219 -2.148438 4.074219 -1.875 C 4.074219 -1.574219 4.03125 -1.304688 3.953125 -1.0625 C 3.871094 -0.820312 3.753906 -0.613281 3.601562 -0.441406 C 3.445312 -0.273438 3.253906 -0.140625 3.027344 -0.046875 C 2.800781 0.0429688 2.539062 0.0898438 2.25 0.0898438 C 1.941406 0.0898438 1.671875 0.0390625 1.441406 -0.0625 C 1.210938 -0.164062 1.019531 -0.304688 0.871094 -0.480469 C 0.71875 -0.65625 0.609375 -0.863281 0.535156 -1.101562 C 0.464844 -1.34375 0.425781 -1.601562 0.425781 -1.875 Z M 1.050781 -1.875 C 1.050781 -1.699219 1.070312 -1.523438 1.113281 -1.351562 C 1.15625 -1.175781 1.226562 -1.015625 1.320312 -0.878906 C 1.414062 -0.738281 1.539062 -0.625 1.691406 -0.539062 C 1.84375 -0.453125 2.03125 -0.414062 2.25 -0.414062 C 2.648438 -0.414062 2.953125 -0.535156 3.152344 -0.785156 C 3.355469 -1.03125 3.457031 -1.394531 3.457031 -1.875 C 3.457031 -2.054688 3.4375 -2.230469 3.394531 -2.402344 C 3.351562 -2.574219 3.28125 -2.734375 3.183594 -2.871094 C 3.085938 -3.011719 2.960938 -3.125 2.808594 -3.210938 C 2.65625 -3.296875 2.46875 -3.335938 2.25 -3.335938 C 1.851562 -3.335938 1.550781 -3.214844 1.351562 -2.96875 C 1.152344 -2.722656 1.050781 -2.359375 1.050781 -1.875 Z "/>
</g>
<g id="glyph-0-2">
<path d="M 0.03125 -5.25 L 1.199219 -5.25 L 1.199219 -3.285156 L 1.238281 -3.285156 C 1.394531 -3.460938 1.574219 -3.597656 1.777344 -3.695312 C 1.984375 -3.792969 2.238281 -3.839844 2.542969 -3.839844 C 2.78125 -3.839844 2.992188 -3.816406 3.167969 -3.765625 C 3.347656 -3.714844 3.492188 -3.628906 3.605469 -3.503906 C 3.71875 -3.378906 3.800781 -3.207031 3.855469 -2.988281 C 3.910156 -2.769531 3.9375 -2.496094 3.9375 -2.160156 L 3.9375 0 L 3.351562 0 L 3.351562 -2.046875 C 3.351562 -2.261719 3.339844 -2.449219 3.316406 -2.609375 C 3.289062 -2.769531 3.242188 -2.902344 3.167969 -3.011719 C 3.097656 -3.117188 2.996094 -3.199219 2.871094 -3.253906 C 2.746094 -3.308594 2.585938 -3.335938 2.390625 -3.335938 C 2.257812 -3.335938 2.125 -3.3125 1.996094 -3.265625 C 1.867188 -3.21875 1.746094 -3.152344 1.640625 -3.070312 C 1.53125 -2.988281 1.4375 -2.890625 1.359375 -2.769531 C 1.28125 -2.652344 1.230469 -2.523438 1.199219 -2.386719 L 1.199219 0 L 0.621094 0 L 0.621094 -4.746094 L 0.03125 -4.746094 Z "/>
</g>
<g id="glyph-0-3">
<path d="M 0.496094 0 L 0.496094 -0.503906 L 1.507812 -0.503906 L 1.507812 -3.246094 L 0.496094 -3.246094 L 0.496094 -3.75 L 1.898438 -3.75 L 2.015625 -3.261719 L 2.054688 -3.261719 C 2.226562 -3.417969 2.414062 -3.550781 2.625 -3.660156 C 2.835938 -3.769531 3.085938 -3.824219 3.375 -3.824219 C 3.546875 -3.824219 3.679688 -3.792969 3.785156 -3.726562 C 3.886719 -3.664062 3.964844 -3.566406 4.023438 -3.441406 C 4.082031 -3.316406 4.121094 -3.167969 4.140625 -2.988281 C 4.160156 -2.8125 4.171875 -2.609375 4.171875 -2.386719 L 3.644531 -2.378906 C 3.644531 -2.699219 3.613281 -2.933594 3.550781 -3.082031 C 3.488281 -3.230469 3.375 -3.308594 3.210938 -3.308594 C 3.054688 -3.308594 2.914062 -3.285156 2.789062 -3.238281 C 2.664062 -3.195312 2.554688 -3.140625 2.464844 -3.074219 C 2.371094 -3.007812 2.292969 -2.945312 2.226562 -2.878906 C 2.164062 -2.816406 2.113281 -2.761719 2.085938 -2.714844 L 2.085938 -0.503906 L 3.523438 -0.503906 L 3.523438 0 Z "/>
</g>
<g id="glyph-0-4">
<rect x="0" y="0" width="0" height="0" mask="url(#mask-0)"/>
</g>
<g id="glyph-0-5">
<path d="M 1.996094 -5.25 L 2.503906 -5.25 L 2.503906 0.976562 L 1.996094 0.976562 Z "/>
</g>
<g id="glyph-0-6">
<path d="M 0.800781 -5.25 L 3.886719 -5.25 L 3.886719 -4.695312 L 1.425781 -4.695312 L 1.425781 -2.976562 L 3.699219 -2.976562 L 3.699219 -2.421875 L 1.425781 -2.421875 L 1.425781 -0.554688 L 3.921875 -0.554688 L 3.921875 0 L 0.800781 0 Z "/>
</g>
<g id="glyph-0-7">
<path d="M 3.335938 -1.460938 C 3.335938 -1.277344 3.285156 -1.101562 3.183594 -0.933594 C 3.082031 -0.765625 2.949219 -0.609375 2.78125 -0.460938 C 2.617188 -0.3125 2.433594 -0.175781 2.234375 -0.0507812 C 2.035156 0.0742188 1.835938 0.183594 1.640625 0.277344 L 3.488281 0.277344 L 3.488281 0.75 L 0.855469 0.75 L 0.855469 0.351562 C 0.933594 0.289062 1.039062 0.214844 1.164062 0.136719 C 1.289062 0.0546875 1.421875 -0.03125 1.566406 -0.121094 C 1.710938 -0.210938 1.859375 -0.304688 2.007812 -0.410156 C 2.152344 -0.511719 2.289062 -0.617188 2.40625 -0.722656 C 2.527344 -0.832031 2.625 -0.941406 2.699219 -1.054688 C 2.773438 -1.167969 2.8125 -1.28125 2.8125 -1.394531 C 2.8125 -1.5 2.792969 -1.589844 2.75 -1.660156 C 2.707031 -1.734375 2.652344 -1.792969 2.585938 -1.839844 C 2.523438 -1.886719 2.453125 -1.921875 2.375 -1.941406 C 2.296875 -1.960938 2.21875 -1.972656 2.144531 -1.972656 C 2.03125 -1.972656 1.921875 -1.957031 1.828125 -1.929688 C 1.730469 -1.902344 1.640625 -1.871094 1.554688 -1.828125 C 1.472656 -1.789062 1.398438 -1.746094 1.335938 -1.699219 C 1.269531 -1.652344 1.21875 -1.609375 1.175781 -1.574219 L 0.9375 -1.941406 C 0.984375 -1.988281 1.046875 -2.039062 1.125 -2.097656 C 1.203125 -2.152344 1.300781 -2.207031 1.410156 -2.261719 C 1.519531 -2.3125 1.644531 -2.359375 1.785156 -2.394531 C 1.925781 -2.433594 2.074219 -2.453125 2.234375 -2.453125 C 2.390625 -2.453125 2.535156 -2.429688 2.671875 -2.390625 C 2.804688 -2.347656 2.921875 -2.285156 3.019531 -2.203125 C 3.117188 -2.121094 3.195312 -2.015625 3.25 -1.894531 C 3.308594 -1.773438 3.335938 -1.628906 3.335938 -1.460938 Z "/>
</g>
<g id="glyph-0-8">
<path d="M 1.746094 -3.359375 C 1.746094 -3.519531 1.792969 -3.644531 1.882812 -3.730469 C 1.972656 -3.820312 2.09375 -3.863281 2.242188 -3.863281 C 2.402344 -3.863281 2.527344 -3.820312 2.617188 -3.730469 C 2.707031 -3.644531 2.753906 -3.519531 2.753906 -3.359375 C 2.753906 -3.214844 2.707031 -3.09375 2.617188 -3 C 2.527344 -2.90625 2.402344 -2.859375 2.242188 -2.859375 C 2.09375 -2.859375 1.972656 -2.90625 1.882812 -3 C 1.792969 -3.09375 1.746094 -3.214844 1.746094 -3.359375 Z M 1.746094 -0.414062 C 1.746094 -0.574219 1.792969 -0.695312 1.882812 -0.785156 C 1.972656 -0.871094 2.09375 -0.914062 2.242188 -0.914062 C 2.402344 -0.914062 2.527344 -0.871094 2.617188 -0.785156 C 2.707031 -0.695312 2.753906 -0.574219 2.753906 -0.414062 C 2.753906 -0.269531 2.707031 -0.148438 2.617188 -0.0507812 C 2.527344 0.0429688 2.402344 0.0898438 2.242188 0.0898438 C 2.09375 0.0898438 1.972656 0.0429688 1.882812 -0.0507812 C 1.792969 -0.148438 1.746094 -0.265625 1.746094 -0.414062 Z "/>
</g>
<g id="glyph-0-9">
<path d="M 1.859375 -0.425781 C 2.058594 -0.425781 2.242188 -0.453125 2.410156 -0.507812 C 2.578125 -0.558594 2.726562 -0.632812 2.851562 -0.726562 C 2.976562 -0.820312 3.074219 -0.9375 3.140625 -1.074219 C 3.210938 -1.207031 3.246094 -1.359375 3.246094 -1.523438 C 3.246094 -1.867188 3.125 -2.113281 2.882812 -2.261719 C 2.640625 -2.410156 2.316406 -2.484375 1.90625 -2.484375 L 1.425781 -2.484375 L 1.425781 -2.84375 L 2.902344 -4.710938 L 0.660156 -4.710938 L 0.660156 -5.25 L 3.621094 -5.25 L 3.621094 -4.710938 L 2.144531 -2.976562 L 2.265625 -2.976562 C 2.496094 -2.976562 2.703125 -2.945312 2.894531 -2.878906 C 3.085938 -2.816406 3.25 -2.722656 3.390625 -2.601562 C 3.53125 -2.480469 3.640625 -2.335938 3.714844 -2.167969 C 3.792969 -1.996094 3.832031 -1.804688 3.832031 -1.589844 C 3.832031 -1.320312 3.78125 -1.078125 3.675781 -0.871094 C 3.570312 -0.660156 3.425781 -0.484375 3.246094 -0.339844 C 3.066406 -0.199219 2.855469 -0.0898438 2.613281 -0.0195312 C 2.371094 0.0546875 2.113281 0.0898438 1.835938 0.0898438 C 1.582031 0.0898438 1.359375 0.0703125 1.171875 0.0351562 C 0.984375 -0.00390625 0.816406 -0.0507812 0.660156 -0.105469 L 0.808594 -0.628906 C 0.941406 -0.570312 1.09375 -0.519531 1.265625 -0.484375 C 1.441406 -0.445312 1.640625 -0.425781 1.859375 -0.425781 Z "/>
</g>
<g id="glyph-0-10">
<path d="M 1.746094 -0.414062 C 1.746094 -0.574219 1.792969 -0.695312 1.882812 -0.785156 C 1.972656 -0.871094 2.09375 -0.914062 2.242188 -0.914062 C 2.402344 -0.914062 2.527344 -0.871094 2.617188 -0.785156 C 2.707031 -0.695312 2.753906 -0.574219 2.753906 -0.414062 C 2.753906 -0.269531 2.707031 -0.148438 2.617188 -0.0507812 C 2.527344 0.0429688 2.402344 0.0898438 2.242188 0.0898438 C 2.09375 0.0898438 1.972656 0.0429688 1.882812 -0.0507812 C 1.792969 -0.148438 1.746094 -0.265625 1.746094 -0.414062 Z "/>
</g>
<g id="glyph-0-11">
<path d="M 4.351562 -1.636719 L 3.335938 -1.636719 L 3.335938 0 L 2.753906 0 L 2.753906 -1.636719 L 0.328125 -1.636719 L 0.328125 -2.070312 L 2.84375 -5.25 L 3.335938 -5.25 L 3.335938 -2.128906 L 4.351562 -2.128906 Z M 2.753906 -4.3125 L 1.019531 -2.128906 L 2.753906 -2.128906 Z "/>
</g>
<g id="glyph-0-12">
<path d="M 3.96875 -0.472656 C 3.878906 -0.390625 3.769531 -0.316406 3.648438 -0.246094 C 3.527344 -0.175781 3.390625 -0.117188 3.246094 -0.0664062 C 3.101562 -0.015625 2.953125 0.0195312 2.792969 0.046875 C 2.636719 0.0742188 2.476562 0.0898438 2.316406 0.0898438 C 2.015625 0.0898438 1.753906 0.0429688 1.523438 -0.046875 C 1.292969 -0.140625 1.101562 -0.273438 0.945312 -0.445312 C 0.789062 -0.617188 0.671875 -0.824219 0.59375 -1.066406 C 0.511719 -1.304688 0.472656 -1.574219 0.472656 -1.875 C 0.472656 -2.191406 0.515625 -2.46875 0.605469 -2.714844 C 0.691406 -2.960938 0.816406 -3.164062 0.984375 -3.328125 C 1.148438 -3.496094 1.347656 -3.621094 1.582031 -3.707031 C 1.816406 -3.796875 2.078125 -3.839844 2.371094 -3.839844 C 2.582031 -3.839844 2.789062 -3.8125 2.992188 -3.757812 C 3.199219 -3.703125 3.378906 -3.597656 3.535156 -3.445312 C 3.695312 -3.292969 3.816406 -3.082031 3.898438 -2.816406 C 3.984375 -2.546875 4.015625 -2.203125 3.988281 -1.777344 L 1.085938 -1.777344 C 1.085938 -1.328125 1.207031 -0.992188 1.453125 -0.769531 C 1.695312 -0.546875 2.015625 -0.433594 2.421875 -0.433594 C 2.558594 -0.433594 2.691406 -0.453125 2.824219 -0.484375 C 2.957031 -0.515625 3.082031 -0.554688 3.203125 -0.601562 C 3.324219 -0.644531 3.429688 -0.695312 3.519531 -0.75 C 3.613281 -0.804688 3.683594 -0.855469 3.734375 -0.898438 Z M 2.386719 -3.34375 C 2.21875 -3.34375 2.0625 -3.328125 1.917969 -3.292969 C 1.769531 -3.257812 1.640625 -3.199219 1.527344 -3.117188 C 1.414062 -3.035156 1.320312 -2.925781 1.25 -2.792969 C 1.175781 -2.660156 1.128906 -2.496094 1.109375 -2.300781 L 3.441406 -2.300781 C 3.417969 -2.632812 3.3125 -2.890625 3.125 -3.070312 C 2.9375 -3.253906 2.691406 -3.34375 2.386719 -3.34375 Z "/>
</g>
<g id="glyph-0-13">
<path d="M 2.265625 -0.773438 L 2.347656 -0.773438 L 3.773438 -5.25 L 4.394531 -5.25 L 2.632812 0 L 1.90625 0 L 0.105469 -5.25 L 0.789062 -5.25 Z "/>
</g>
</g>
<image id="source-9" x="0" y="0" width="0" height="0"/>
<mask id="mask-0">
<use xlink:href="#source-9"/>
</mask>
</defs>
<g fill="rgb(16.470588%, 10.196078%, 5.490196%)" fill-opacity="1">
<use xlink:href="#glyph-0-0" x="30" y="26.637695"/>
<use xlink:href="#glyph-0-1" x="35" y="26.637695"/>
<use xlink:href="#glyph-0-2" x="40" y="26.637695"/>
<use xlink:href="#glyph-0-3" x="45" y="26.637695"/>
<use xlink:href="#glyph-0-4" x="50" y="26.637695"/>
<use xlink:href="#glyph-0-5" x="55" y="26.637695"/>
<use xlink:href="#glyph-0-6" x="60" y="26.637695"/>
<use xlink:href="#glyph-0-7" x="65" y="26.637695"/>
<use xlink:href="#glyph-0-5" x="70" y="26.637695"/>
<use xlink:href="#glyph-0-8" x="75" y="26.637695"/>
<use xlink:href="#glyph-0-4" x="80" y="26.637695"/>
<use xlink:href="#glyph-0-9" x="85" y="26.637695"/>
<use xlink:href="#glyph-0-10" x="90" y="26.637695"/>
<use xlink:href="#glyph-0-11" x="95" y="26.637695"/>
<use xlink:href="#glyph-0-4" x="100" y="26.637695"/>
<use xlink:href="#glyph-0-12" x="105" y="26.637695"/>
<use xlink:href="#glyph-0-13" x="110" y="26.637695"/>
</g>
</svg>
