<?xml version="1.0" encoding="UTF-8"?>
<svg xmlns="http://www.w3.org/2000/svg" xmlns:xlink="http://www.w3.org/1999/xlink" width="1920" height="1080" viewBox="0 0 1920 1080">
<defs>
<g>
<g id="glyph-0-0">
<path d="M 2.117188 0 C 1.878906 -0.753906 1.550781 -1.632812 1.125 -2.632812 C 0.699219 -3.636719 0.324219 -4.425781 0 -5.007812 L 0.960938 -5.007812 C 1.089844 -4.796875 1.269531 -4.433594 1.5 -3.917969 L 1.914062 -2.992188 C 2.179688 -2.394531 2.425781 -1.761719 2.652344 -1.082031 L 2.710938 -0.898438 C 3.125 -1.660156 3.4375 -2.324219 3.648438 -2.890625 C 3.855469 -3.460938 3.960938 -3.933594 3.960938 -4.3125 C 3.960938 -4.582031 3.921875 -4.8125 3.847656 -5.007812 L 4.746094 -5.007812 C 4.792969 -4.851562 4.8125 -4.675781 4.8125 -4.480469 C 4.8125 -4.113281 4.644531 -3.5 4.300781 -2.636719 C 3.957031 -1.777344 3.535156 -0.898438 3.03125 0 Z "/>
</g>
<g id="glyph-0-1">
<path d="M 2.734375 -6.207031 C 2.476562 -5.882812 2.148438 -5.722656 1.753906 -5.722656 C 1.390625 -5.722656 1.089844 -5.84375 0.859375 -6.082031 C 0.625 -6.320312 0.507812 -6.625 0.507812 -6.996094 C 0.507812 -7.421875 0.640625 -7.769531 0.90625 -8.042969 C 1.171875 -8.320312 1.511719 -8.457031 1.925781 -8.457031 C 2.40625 -8.457031 2.78125 -8.277344 3.054688 -7.914062 C 3.324219 -7.550781 3.457031 -7.046875 3.457031 -6.402344 C 3.457031 -5.6875 3.304688 -5.136719 2.996094 -4.742188 C 2.6875 -4.351562 2.25 -4.15625 1.6875 -4.15625 C 1.425781 -4.15625 1.105469 -4.207031 0.71875 -4.308594 L 0.71875 -4.84375 C 1.097656 -4.691406 1.421875 -4.617188 1.691406 -4.617188 C 2.386719 -4.617188 2.734375 -5.144531 2.734375 -6.207031 Z M 1.191406 -7.121094 C 1.191406 -6.488281 1.4375 -6.171875 1.925781 -6.171875 C 2.140625 -6.171875 2.328125 -6.246094 2.480469 -6.394531 C 2.632812 -6.546875 2.707031 -6.730469 2.707031 -6.949219 C 2.707031 -7.261719 2.632812 -7.515625 2.484375 -7.707031 C 2.335938 -7.898438 2.144531 -7.996094 1.90625 -7.996094 C 1.429688 -7.996094 1.191406 -7.703125 1.191406 -7.121094 Z "/>
</g>
<g id="glyph-0-2">
<rect x="0" y="0" width="0" height="0" mask="url(#mask-0)"/>
</g>
<g id="glyph-0-3">
<path d="M 3.492188 -6.078125 L 0.488281 -6.078125 L 0.488281 -6.535156 L 3.492188 -6.535156 Z "/>
</g>
<g id="glyph-1-0">
<rect x="0" y="0" width="0" height="0" mask="url(#mask-1)"/>
</g>
<g id="glyph-1-1">
<path d="M 0.640625 -4.316406 L 5.023438 -4.316406 L 5.023438 -3.636719 L 0.640625 -3.636719 Z M 0.640625 -2.765625 L 5.023438 -2.765625 L 5.023438 -2.085938 L 0.640625 -2.085938 Z "/>
</g>
<g id="glyph-1-2">
<path d="M 4.722656 -4.9375 C 4.722656 -4.359375 4.449219 -3.714844 3.902344 -3.003906 C 3.351562 -2.292969 2.585938 -1.515625 1.605469 -0.679688 L 4.929688 -0.679688 L 4.929688 0 L 0.738281 0 L 0.738281 -0.679688 C 0.855469 -0.792969 1.019531 -0.941406 1.226562 -1.125 C 1.433594 -1.308594 1.660156 -1.507812 1.898438 -1.734375 C 2.136719 -1.957031 2.382812 -2.199219 2.628906 -2.457031 C 2.878906 -2.714844 3.105469 -2.976562 3.304688 -3.25 C 3.507812 -3.519531 3.671875 -3.789062 3.796875 -4.0625 C 3.921875 -4.332031 3.984375 -4.59375 3.984375 -4.84375 C 3.984375 -5.222656 3.886719 -5.519531 3.6875 -5.738281 C 3.488281 -5.953125 3.191406 -6.0625 2.796875 -6.0625 C 2.457031 -6.0625 2.167969 -6.027344 1.9375 -5.949219 C 1.703125 -5.875 1.492188 -5.765625 1.304688 -5.621094 L 0.980469 -6.140625 C 1.265625 -6.339844 1.566406 -6.488281 1.882812 -6.582031 C 2.203125 -6.675781 2.550781 -6.722656 2.929688 -6.722656 C 3.519531 -6.722656 3.964844 -6.5625 4.269531 -6.242188 C 4.570312 -5.921875 4.722656 -5.488281 4.722656 -4.9375 Z "/>
</g>
<g id="glyph-1-3">
<path d="M 2.34375 -0.539062 C 2.59375 -0.539062 2.824219 -0.570312 3.035156 -0.636719 C 3.246094 -0.703125 3.429688 -0.796875 3.589844 -0.917969 C 3.746094 -1.035156 3.867188 -1.179688 3.957031 -1.351562 C 4.046875 -1.519531 4.089844 -1.710938 4.089844 -1.917969 C 4.089844 -2.351562 3.9375 -2.660156 3.632812 -2.847656 C 3.328125 -3.035156 2.914062 -3.125 2.398438 -3.125 L 1.792969 -3.125 L 1.792969 -3.578125 L 3.65625 -5.929688 L 0.832031 -5.929688 L 0.832031 -6.609375 L 4.5625 -6.609375 L 4.5625 -5.929688 L 2.699219 -3.75 L 2.851562 -3.75 C 3.140625 -3.75 3.40625 -3.707031 3.644531 -3.625 C 3.882812 -3.542969 4.09375 -3.429688 4.269531 -3.277344 C 4.445312 -3.125 4.582031 -2.945312 4.679688 -2.730469 C 4.777344 -2.515625 4.824219 -2.273438 4.824219 -2.003906 C 4.824219 -1.664062 4.761719 -1.359375 4.628906 -1.09375 C 4.496094 -0.832031 4.316406 -0.609375 4.089844 -0.429688 C 3.863281 -0.25 3.597656 -0.113281 3.292969 -0.0234375 C 2.988281 0.0664062 2.660156 0.113281 2.3125 0.113281 C 1.992188 0.113281 1.714844 0.0898438 1.476562 0.0429688 C 1.242188 -0.00390625 1.027344 -0.0625 0.832031 -0.132812 L 1.019531 -0.792969 C 1.183594 -0.71875 1.375 -0.65625 1.597656 -0.609375 C 1.816406 -0.5625 2.066406 -0.539062 2.34375 -0.539062 Z "/>
</g>
<g id="glyph-1-4">
<path d="M 2.199219 -0.519531 C 2.199219 -0.722656 2.257812 -0.875 2.371094 -0.988281 C 2.484375 -1.097656 2.636719 -1.152344 2.824219 -1.152344 C 3.027344 -1.152344 3.183594 -1.097656 3.296875 -0.988281 C 3.410156 -0.878906 3.464844 -0.722656 3.464844 -0.519531 C 3.464844 -0.335938 3.410156 -0.1875 3.296875 -0.0664062 C 3.183594 0.0546875 3.023438 0.113281 2.824219 0.113281 C 2.636719 0.113281 2.484375 0.0546875 2.371094 -0.0664062 C 2.257812 -0.1875 2.199219 -0.335938 2.199219 -0.519531 Z "/>
</g>
<g id="glyph-1-5">
<path d="M 0.707031 -1.605469 C 0.707031 -2.367188 1.171875 -2.980469 2.097656 -3.445312 C 1.921875 -3.539062 1.757812 -3.640625 1.605469 -3.738281 C 1.453125 -3.839844 1.324219 -3.953125 1.214844 -4.078125 C 1.105469 -4.207031 1.015625 -4.351562 0.953125 -4.515625 C 0.890625 -4.679688 0.859375 -4.867188 0.859375 -5.082031 C 0.859375 -5.3125 0.90625 -5.53125 1 -5.734375 C 1.09375 -5.933594 1.230469 -6.105469 1.40625 -6.253906 C 1.582031 -6.398438 1.796875 -6.511719 2.050781 -6.597656 C 2.300781 -6.683594 2.582031 -6.722656 2.890625 -6.722656 C 3.179688 -6.722656 3.441406 -6.6875 3.679688 -6.609375 C 3.914062 -6.535156 4.117188 -6.429688 4.28125 -6.292969 C 4.449219 -6.160156 4.578125 -6 4.664062 -5.816406 C 4.753906 -5.632812 4.796875 -5.441406 4.796875 -5.230469 C 4.796875 -4.871094 4.707031 -4.542969 4.527344 -4.246094 C 4.347656 -3.945312 4.0625 -3.675781 3.664062 -3.429688 C 3.847656 -3.335938 4.015625 -3.234375 4.175781 -3.125 C 4.332031 -3.019531 4.46875 -2.898438 4.585938 -2.765625 C 4.703125 -2.632812 4.792969 -2.484375 4.859375 -2.320312 C 4.925781 -2.152344 4.957031 -1.960938 4.957031 -1.746094 C 4.957031 -1.480469 4.910156 -1.234375 4.816406 -1.003906 C 4.722656 -0.773438 4.582031 -0.578125 4.394531 -0.414062 C 4.210938 -0.25 3.980469 -0.121094 3.710938 -0.0273438 C 3.441406 0.0664062 3.125 0.113281 2.765625 0.113281 C 2.433594 0.113281 2.136719 0.0664062 1.878906 -0.0273438 C 1.621094 -0.121094 1.40625 -0.25 1.234375 -0.40625 C 1.058594 -0.5625 0.929688 -0.746094 0.839844 -0.953125 C 0.753906 -1.160156 0.707031 -1.378906 0.707031 -1.605469 Z M 4.210938 -1.699219 C 4.210938 -1.882812 4.167969 -2.042969 4.085938 -2.1875 C 4 -2.328125 3.886719 -2.457031 3.746094 -2.570312 C 3.601562 -2.683594 3.441406 -2.785156 3.257812 -2.878906 C 3.074219 -2.972656 2.886719 -3.070312 2.691406 -3.164062 C 2.238281 -2.945312 1.914062 -2.699219 1.722656 -2.4375 C 1.53125 -2.171875 1.433594 -1.921875 1.433594 -1.691406 C 1.433594 -1.535156 1.464844 -1.382812 1.523438 -1.242188 C 1.585938 -1.101562 1.671875 -0.976562 1.789062 -0.867188 C 1.90625 -0.761719 2.050781 -0.675781 2.222656 -0.613281 C 2.398438 -0.550781 2.597656 -0.519531 2.824219 -0.519531 C 3.007812 -0.519531 3.179688 -0.542969 3.347656 -0.59375 C 3.515625 -0.644531 3.664062 -0.71875 3.792969 -0.816406 C 3.921875 -0.914062 4.023438 -1.039062 4.097656 -1.183594 C 4.175781 -1.332031 4.210938 -1.503906 4.210938 -1.699219 Z M 1.597656 -5.109375 C 1.597656 -4.933594 1.636719 -4.777344 1.71875 -4.636719 C 1.800781 -4.5 1.910156 -4.375 2.042969 -4.265625 C 2.179688 -4.15625 2.335938 -4.054688 2.511719 -3.960938 C 2.6875 -3.871094 2.875 -3.78125 3.070312 -3.691406 C 3.402344 -3.914062 3.652344 -4.132812 3.820312 -4.355469 C 3.988281 -4.574219 4.070312 -4.816406 4.070312 -5.082031 C 4.070312 -5.238281 4.039062 -5.378906 3.972656 -5.5 C 3.90625 -5.625 3.816406 -5.730469 3.707031 -5.816406 C 3.597656 -5.90625 3.46875 -5.972656 3.324219 -6.019531 C 3.179688 -6.066406 3.027344 -6.089844 2.871094 -6.089844 C 2.667969 -6.089844 2.488281 -6.0625 2.332031 -6.007812 C 2.175781 -5.949219 2.042969 -5.875 1.9375 -5.78125 C 1.828125 -5.6875 1.746094 -5.578125 1.6875 -5.464844 C 1.625 -5.347656 1.597656 -5.230469 1.597656 -5.109375 Z "/>
</g>
<g id="glyph-1-6">
<path d="M 1.171875 0 L 4.0625 -5.929688 L 0.652344 -5.929688 L 0.652344 -6.609375 L 4.824219 -6.609375 L 4.824219 -5.996094 L 1.945312 0 Z "/>
</g>
<g id="glyph-1-7">
<path d="M 1.644531 -4.882812 L 2.832031 -3.683594 L 4.03125 -4.882812 L 4.515625 -4.382812 L 3.324219 -3.191406 L 4.515625 -1.992188 L 4.03125 -1.5 L 2.832031 -2.710938 L 1.632812 -1.5 L 1.144531 -1.984375 L 2.351562 -3.203125 L 1.160156 -4.382812 Z "/>
</g>
<g id="glyph-1-8">
<path d="M 1.199219 -0.679688 L 2.683594 -0.679688 L 2.683594 -5.648438 L 1.171875 -4.589844 L 0.804688 -5.128906 L 2.878906 -6.609375 L 3.410156 -6.609375 L 3.410156 -0.679688 L 4.863281 -0.679688 L 4.863281 0 L 1.199219 0 Z "/>
</g>
<g id="glyph-1-9">
<path d="M 0.519531 -3.304688 C 0.519531 -3.839844 0.566406 -4.320312 0.660156 -4.746094 C 0.753906 -5.171875 0.898438 -5.53125 1.085938 -5.824219 C 1.273438 -6.117188 1.515625 -6.339844 1.804688 -6.492188 C 2.09375 -6.648438 2.4375 -6.722656 2.832031 -6.722656 C 3.253906 -6.722656 3.613281 -6.648438 3.90625 -6.496094 C 4.199219 -6.347656 4.4375 -6.125 4.617188 -5.835938 C 4.800781 -5.546875 4.933594 -5.191406 5.015625 -4.765625 C 5.097656 -4.339844 5.136719 -3.851562 5.136719 -3.304688 C 5.136719 -2.769531 5.089844 -2.289062 4.996094 -1.867188 C 4.902344 -1.441406 4.761719 -1.082031 4.570312 -0.789062 C 4.382812 -0.496094 4.144531 -0.273438 3.851562 -0.117188 C 3.5625 0.0351562 3.21875 0.113281 2.824219 0.113281 C 2.410156 0.113281 2.054688 0.03125 1.761719 -0.136719 C 1.46875 -0.304688 1.230469 -0.539062 1.042969 -0.839844 C 0.859375 -1.140625 0.722656 -1.503906 0.640625 -1.921875 C 0.558594 -2.339844 0.519531 -2.800781 0.519531 -3.304688 Z M 4.363281 -3.304688 C 4.363281 -3.640625 4.34375 -3.957031 4.304688 -4.257812 L 1.5 -1.699219 C 1.609375 -1.339844 1.769531 -1.054688 1.984375 -0.839844 C 2.199219 -0.625 2.476562 -0.519531 2.824219 -0.519531 C 3.378906 -0.519531 3.773438 -0.75 4.007812 -1.207031 C 4.246094 -1.667969 4.363281 -2.367188 4.363281 -3.304688 Z M 1.304688 -3.304688 C 1.304688 -3.148438 1.308594 -2.996094 1.316406 -2.851562 C 1.328125 -2.707031 1.339844 -2.566406 1.351562 -2.425781 L 4.164062 -4.976562 C 4.058594 -5.316406 3.898438 -5.589844 3.6875 -5.789062 C 3.476562 -5.992188 3.191406 -6.089844 2.832031 -6.089844 C 2.273438 -6.089844 1.878906 -5.859375 1.648438 -5.398438 C 1.417969 -4.933594 1.304688 -4.238281 1.304688 -3.304688 Z "/>
</g>
<g id="glyph-1-10">
<path d="M 4.136719 -1.273438 C 4.136719 -1.476562 4.058594 -1.632812 3.902344 -1.742188 C 3.742188 -1.851562 3.546875 -1.941406 3.316406 -2.007812 C 3.082031 -2.074219 2.828125 -2.132812 2.554688 -2.191406 C 2.28125 -2.246094 2.027344 -2.324219 1.792969 -2.417969 C 1.5625 -2.511719 1.367188 -2.640625 1.207031 -2.800781 C 1.050781 -2.960938 0.972656 -3.1875 0.972656 -3.476562 C 0.972656 -3.714844 1.023438 -3.917969 1.128906 -4.089844 C 1.234375 -4.257812 1.371094 -4.398438 1.539062 -4.507812 C 1.710938 -4.621094 1.90625 -4.703125 2.132812 -4.753906 C 2.359375 -4.808594 2.597656 -4.835938 2.84375 -4.835938 C 3.285156 -4.835938 3.664062 -4.78125 3.980469 -4.671875 C 4.296875 -4.5625 4.550781 -4.445312 4.742188 -4.324219 L 4.4375 -3.730469 C 4.230469 -3.84375 4.007812 -3.953125 3.761719 -4.054688 C 3.519531 -4.160156 3.21875 -4.210938 2.851562 -4.210938 C 2.714844 -4.210938 2.578125 -4.199219 2.441406 -4.167969 C 2.304688 -4.140625 2.183594 -4.097656 2.074219 -4.042969 C 1.964844 -3.984375 1.875 -3.910156 1.808594 -3.820312 C 1.742188 -3.730469 1.710938 -3.617188 1.710938 -3.484375 C 1.710938 -3.320312 1.789062 -3.195312 1.945312 -3.105469 C 2.101562 -3.019531 2.296875 -2.945312 2.53125 -2.886719 C 2.765625 -2.824219 3.015625 -2.769531 3.292969 -2.714844 C 3.566406 -2.660156 3.820312 -2.585938 4.050781 -2.484375 C 4.285156 -2.382812 4.480469 -2.246094 4.636719 -2.078125 C 4.792969 -1.90625 4.875 -1.679688 4.875 -1.386719 C 4.875 -0.953125 4.703125 -0.59375 4.359375 -0.3125 C 4.015625 -0.0273438 3.5 0.113281 2.8125 0.113281 C 2.605469 0.113281 2.402344 0.09375 2.199219 0.0585938 C 2 0.0195312 1.808594 -0.03125 1.632812 -0.09375 C 1.457031 -0.15625 1.296875 -0.226562 1.152344 -0.308594 C 1.007812 -0.386719 0.886719 -0.464844 0.792969 -0.546875 L 1.171875 -1.160156 C 1.246094 -1.085938 1.347656 -1.007812 1.472656 -0.929688 C 1.597656 -0.851562 1.738281 -0.78125 1.890625 -0.71875 C 2.039062 -0.65625 2.203125 -0.605469 2.375 -0.566406 C 2.546875 -0.527344 2.722656 -0.511719 2.898438 -0.511719 C 3.070312 -0.511719 3.226562 -0.523438 3.375 -0.550781 C 3.523438 -0.582031 3.65625 -0.625 3.769531 -0.683594 C 3.882812 -0.746094 3.972656 -0.824219 4.039062 -0.921875 C 4.105469 -1.019531 4.136719 -1.136719 4.136719 -1.273438 Z "/>
</g>
<g id="glyph-1-11">
<path d="M 1.265625 -4.164062 L 2.644531 -4.164062 L 2.644531 -6.761719 L 1.464844 -6.101562 L 1.207031 -6.621094 L 2.777344 -7.554688 L 3.304688 -7.554688 L 3.304688 -4.164062 L 4.582031 -4.164062 L 4.582031 -3.589844 L 1.265625 -3.589844 Z "/>
</g>
</g>
<image id="source-54" x="0" y="0" width="0" height="0"/>
<mask id="mask-0">
<use xlink:href="#source-54"/>
</mask>
<image id="source-23" x="0" y="0" width="0" height="0"/>
<mask id="mask-1">
<use xlink:href="#source-23"/>
</mask>
</defs>
<g fill="rgb(78.431373%, 6.27451%, 18.039216%)" fill-opacity="1">
<use xlink:href="#glyph-0-0" x="30" y="29.130859"/>
</g>
<g fill="rgb(78.431373%, 6.27451%, 18.039216%)" fill-opacity="1">
<use xlink:href="#glyph-1-0" x="35" y="29.130859"/>
<use xlink:href="#glyph-1-1" x="41" y="29.130859"/>
<use xlink:href="#glyph-1-0" x="47" y="29.130859"/>
<use xlink:href="#glyph-1-2" x="53" y="29.130859"/>
<use xlink:href="#glyph-1-3" x="59" y="29.130859"/>
<use xlink:href="#glyph-1-4" x="65" y="29.130859"/>
<use xlink:href="#glyph-1-5" x="71" y="29.130859"/>
<use xlink:href="#glyph-1-6" x="77" y="29.130859"/>
<use xlink:href="#glyph-1-0" x="83" y="29.130859"/>
<use xlink:href="#glyph-1-7" x="89" y="29.130859"/>
<use xlink:href="#glyph-1-0" x="95" y="29.130859"/>
<use xlink:href="#glyph-1-8" x="101" y="29.130859"/>
<use xlink:href="#glyph-1-9" x="107" y="29.130859"/>
</g>
<g fill="rgb(78.431373%, 6.27451%, 18.039216%)" fill-opacity="1">
<use xlink:href="#glyph-0-1" x="113" y="29.130859"/>
<use xlink:href="#glyph-0-2" x="117" y="29.130859"/>
</g>
<g fill="rgb(78.431373%, 6.27451%, 18.039216%)" fill-opacity="1">
<use xlink:href="#glyph-1-10" x="120" y="29.130859"/>
</g>
<g fill="rgb(78.431373%, 6.27451%, 18.039216%)" fill-opacity="1">
<use xlink:href="#glyph-0-3" x="126" y="29.130859"/>
</g>
<g fill="rgb(78.431373%, 6.27451%, 18.039216%)" fill-opacity="1">
<use xlink:href="#glyph-1-11" x="130" y="29.130859"/>
</g>
</svg>
